<?xml version="1.0" standalone="no"?>
<!DOCTYPE svg PUBLIC "-//W3C//DTD SVG 1.1//EN" "http://www.w3.org/Graphics/SVG/1.1/DTD/svg11.dtd" >
<svg>
<metadata>
Created by FontForge 20090622 at Thu Nov 29 19:25:32 2018
 By deploy user
Copyright (c) 2012 by Fontfabric LLC. All rights reserved.
</metadata>
<defs>
<font id="Intro-Book" horiz-adv-x="598" >
  <font-face 
    font-family="Intro Book"
    font-weight="400"
    font-stretch="normal"
    units-per-em="1000"
    panose-1="2 0 0 0 0 0 0 0 0 0"
    ascent="750"
    descent="-250"
    x-height="481"
    cap-height="700"
    bbox="-46 -267 1301 959"
    underline-thickness="50"
    underline-position="-50"
    unicode-range="U+0020-U+2212"
  />
<missing-glyph horiz-adv-x="219" 
 />
    <glyph glyph-name=".notdef" horiz-adv-x="219" 
 />
    <glyph glyph-name=".null" horiz-adv-x="0" 
 />
    <glyph glyph-name="nonmarkingreturn" horiz-adv-x="333" 
 />
    <glyph glyph-name="space" unicode=" " horiz-adv-x="259" 
 />
    <glyph glyph-name="space" unicode="&#xa0;" horiz-adv-x="259" 
 />
    <glyph glyph-name="exclam" unicode="!" horiz-adv-x="255" 
d="M127 -13q-20 0 -34 13t-14 33q0 21 13.5 33.5t34.5 12.5t35.5 -12.5t14.5 -33.5q0 -20 -14.5 -33t-35.5 -13zM90 147l-6 553h87l-5 -553h-76z" />
    <glyph glyph-name="quotedbl" unicode="&#x22;" horiz-adv-x="362" 
d="M75 700h75l-10 -223h-65v223zM218 700h74l-10 -223h-64v223z" />
    <glyph glyph-name="numbersign" unicode="#" horiz-adv-x="690" 
d="M46 200v57h125l24 164h-118v57h127l33 221h70l-32 -221h197l33 221h71l-33 -221h101v-57h-109l-24 -164h102v-57h-111l-28 -200h-74l30 200h-196l-29 -200h-74l31 200h-116zM265 423l-25 -168h201l24 168h-200z" />
    <glyph glyph-name="dollar" unicode="$" horiz-adv-x="643" 
d="M289 710v68h68v-69q90 -11 154 -59.5t67 -133.5h-79q-3 52 -44 81t-98 36v-245q44 -7 74 -13.5t64.5 -21t55 -33.5t34.5 -51t14 -74q0 -90 -72 -143t-170 -62v-69h-68v69q-63 6 -115 28t-89 67t-39 106h81q3 -56 50 -87.5t112 -38.5v261q-50 7 -87 17.5t-71.5 30.5
t-52.5 54t-18 81q0 90 66.5 141t162.5 60zM515 195q0 32 -12 54t-36.5 35.5t-48.5 20.5t-61 13v-253q65 7 111.5 39.5t46.5 90.5zM143 510q0 -39 24 -64t51.5 -33.5t70.5 -15.5v238q-59 -7 -102.5 -38.5t-43.5 -86.5z" />
    <glyph glyph-name="percent" unicode="%" horiz-adv-x="838" 
d="M208 -1l343 699h78l-342 -699h-79zM802 152q0 -45 -18.5 -81t-47.5 -54.5t-64.5 -27t-70.5 0t-64 27t-47.5 54.5t-18.5 81q0 46 18.5 81.5t47.5 54t64 27t70.5 0t64.5 -27t47.5 -54.5t18.5 -81zM535 152q0 -51 31.5 -80.5t69.5 -29.5t69.5 29.5t31.5 80.5t-31.5 80.5
t-69.5 29.5t-69.5 -29.5t-31.5 -80.5zM368 545q0 -53 -24.5 -92t-61.5 -56.5t-79.5 -17.5t-79.5 17.5t-61.5 56.5t-24.5 92t24.5 92t61.5 56.5t79.5 17.5t79.5 -17.5t61.5 -56.5t24.5 -92zM102 545q0 -51 31.5 -80.5t69.5 -29.5t69.5 29.5t31.5 80.5t-31.5 80.5t-69.5 29.5
t-69.5 -29.5t-31.5 -80.5z" />
    <glyph glyph-name="ampersand" unicode="&#x26;" horiz-adv-x="651" 
d="M525 556h-73q0 46 -39.5 67.5t-95.5 21.5q-57 0 -98.5 -26.5t-41.5 -82.5q0 -113 158 -113v-65q-25 0 -38 -1q-160 -14 -160 -149q0 -67 49 -109.5t122 -42.5q159 0 159 171v196h146v-67h-72v-130q0 -119 -59.5 -180t-173.5 -61t-184 62.5t-70 158.5q0 144 144 191
q-48 15 -73.5 51.5t-25.5 87.5q0 87 63 133t156 46q95 0 153 -40.5t54 -118.5z" />
    <glyph glyph-name="quotesingle" unicode="'" horiz-adv-x="221" 
d="M75 700h76l-10 -223h-66v223z" />
    <glyph glyph-name="parenleft" unicode="(" horiz-adv-x="307" 
d="M250 769l28 -48q-74 -56 -113 -180.5t-37.5 -257.5t40.5 -257.5t110 -182.5l-28 -48q-97 65 -150.5 203t-54.5 284.5t52.5 284t152.5 202.5z" />
    <glyph glyph-name="parenright" unicode=")" horiz-adv-x="307" 
d="M29 721l28 48q100 -64 153 -201t52 -283.5t-54.5 -285t-150.5 -204.5l-28 48q70 58 109.5 183t41 257.5t-37.5 256.5t-113 181z" />
    <glyph glyph-name="asterisk" unicode="*" horiz-adv-x="412" 
d="M352 592l-105 -35l77 -92l-48 -35l-69 94l-68 -94l-47 35l75 91l-109 32l17 53l107 -38l-4 110h58l-4 -109l102 40z" />
    <glyph glyph-name="plus" unicode="+" horiz-adv-x="473" 
d="M59 335v62h145v145h65v-145h145v-62h-145v-144h-65v144h-145z" />
    <glyph glyph-name="comma" unicode="," horiz-adv-x="236" 
d="M167 30q-1 -10 -6 -24l-30 -95h-49l22 78q-35 12 -35 45q0 21 14 33.5t35 12.5q37 0 48 -34q2 -13 1 -16z" />
    <glyph glyph-name="hyphen" unicode="-" horiz-adv-x="461" 
d="M68 299v69h325v-69h-325z" />
    <glyph glyph-name="period" unicode="." horiz-adv-x="239" 
d="M119 -9q-21 0 -36 13.5t-15 33.5q0 22 14.5 35t36.5 13q23 0 37.5 -12.5t14.5 -35.5q0 -20 -15 -33.5t-37 -13.5z" />
    <glyph glyph-name="slash" unicode="/" horiz-adv-x="481" 
d="M31 1l338 699h82l-338 -699h-82z" />
    <glyph glyph-name="zero" unicode="0" horiz-adv-x="658" 
d="M330 710q110 0 183.5 -65.5t73.5 -175.5v-240q0 -110 -73 -175.5t-184 -65.5q-112 0 -185.5 65.5t-73.5 175.5v240q0 110 73.5 175.5t185.5 65.5zM330 61q61 0 107 30t61 83q11 33 11 75v200q0 42 -11 75q-16 53 -61.5 83.5t-106.5 30.5q-63 0 -108 -30t-61 -84
q-11 -33 -11 -75v-200q0 -42 11 -75q16 -53 61 -83t108 -30z" />
    <glyph glyph-name="one" unicode="1" horiz-adv-x="432" 
d="M185 634h-122v66h201v-634h139v-66h-356v66h138v568z" />
    <glyph glyph-name="two" unicode="2" horiz-adv-x="542" 
d="M266 638q-127 0 -137 -121h-70q11 193 209 193q89 0 142.5 -45.5t59.5 -115.5q12 -104 -60 -194l-228 -281h305v-74h-441v18l289 361q32 39 47 84.5t10.5 84t-37 64.5t-89.5 26z" />
    <glyph glyph-name="three" unicode="3" horiz-adv-x="576" 
d="M48 188h73q8 -62 49.5 -94.5t106.5 -32.5q74 0 118.5 42t45.5 116q0 89 -75 128.5t-168 14.5v19l192 248h-311v71h440v-13l-202 -262q86 2 144.5 -59t58.5 -147q0 -102 -65.5 -166.5t-176.5 -64.5q-95 0 -158.5 53.5t-71.5 146.5z" />
    <glyph glyph-name="four" unicode="4" horiz-adv-x="588" 
d="M467 147v-157h-76v157h-361v36l355 507h82v-475h72v-68h-72zM399 596h-1l-268 -384h266v176z" />
    <glyph glyph-name="five" unicode="5" horiz-adv-x="580" 
d="M155 625v-181q51 13 107 13q117 0 194 -57.5t74 -177.5q0 -106 -66 -169.5t-175 -63.5q-94 0 -157.5 50.5t-71.5 142.5h79q7 -57 47.5 -88t101.5 -31q63 0 111.5 38t48.5 119q0 89 -55 126.5t-140 37.5q-105 0 -174 -22v338h410v-75h-334z" />
    <glyph glyph-name="six" unicode="6" horiz-adv-x="587" 
d="M305 703h92l-181 -282q39 23 89 23q105 2 174.5 -58.5t69.5 -165.5q0 -108 -73 -168.5t-183 -60.5t-182 60.5t-72 168.5q0 78 43 142zM293 63q75 0 124 42t49 115q0 74 -49 116t-125 42q-74 0 -122.5 -42t-48.5 -116q0 -73 49 -115t123 -42z" />
    <glyph glyph-name="seven" unicode="7" horiz-adv-x="517" 
d="M504 700v-12l-322 -688h-85l294 626h-354v74h467z" />
    <glyph glyph-name="eight" unicode="8" horiz-adv-x="618" 
d="M423 391q140 -54 141 -187q0 -94 -72.5 -154t-182.5 -60q-112 0 -183.5 57t-71.5 157q0 69 38.5 117t101.5 71q-42 20 -68 55.5t-27 84.5q0 79 59.5 128.5t150.5 49.5q92 0 152 -49t60 -128q0 -95 -98 -142zM309 418q56 0 96.5 30.5t40.5 82.5q0 51 -40 81.5t-97 30.5
q-55 0 -95.5 -30.5t-40.5 -82.5t40 -82t96 -30zM309 60q72 0 123 40t51 107t-51 107t-123 40t-122.5 -40.5t-50.5 -107.5q0 -66 51 -106t122 -40z" />
    <glyph glyph-name="nine" unicode="9" horiz-adv-x="586" 
d="M282 0h-92l185 285q-41 -23 -91 -23q-107 -2 -176.5 58.5t-69.5 165.5q0 109 73 169t183 60t182.5 -60t72.5 -169q-1 -79 -46 -144zM294 643q-75 0 -124 -42t-49 -115q0 -74 49.5 -116t124.5 -42t123.5 42t48.5 116q0 73 -49 115t-124 42z" />
    <glyph glyph-name="colon" unicode=":" horiz-adv-x="239" 
d="M119 -9q-21 0 -36 13.5t-15 33.5q0 22 14.5 35t36.5 13q23 0 37.5 -12.5t14.5 -35.5q0 -20 -15 -33.5t-37 -13.5zM119 324q-21 0 -36 13.5t-15 33.5q0 22 14.5 35t36.5 13q23 0 37.5 -12.5t14.5 -35.5q0 -20 -15 -33.5t-37 -13.5z" />
    <glyph glyph-name="semicolon" unicode=";" horiz-adv-x="239" 
d="M118 326q-21 0 -35 12.5t-14 32.5q0 21 14 34t35 13q22 0 36 -13t14 -34q0 -20 -14.5 -32.5t-35.5 -12.5zM169 30q-1 -14 -6 -24q0 -1 -28 -87h-49l20 70q-35 12 -35 45q0 21 14 33.5t35 12.5q37 0 48 -34q2 -13 1 -16z" />
    <glyph glyph-name="less" unicode="&#x3c;" horiz-adv-x="533" 
d="M50 318v59l395 173v-75l-303 -128l303 -134v-75z" />
    <glyph glyph-name="equal" unicode="=" horiz-adv-x="533" 
d="M74 220v66h385v-66h-385zM74 377v66h385v-66h-385z" />
    <glyph glyph-name="greater" unicode="&#x3e;" horiz-adv-x="533" 
d="M483 377v-59l-395 -180v71l303 138l-303 132v71z" />
    <glyph glyph-name="question" unicode="?" horiz-adv-x="492" 
d="M276 148h-75q-1 67 16 115.5t42 76t50 51t43 54.5t18 72q0 49 -34.5 80t-86.5 33q-51 2 -89.5 -26.5t-46.5 -82.5h-76q6 91 64 137t147 46q90 0 148 -50.5t58 -140.5q0 -43 -19 -77.5t-46 -60t-53.5 -54t-44 -72.5t-15.5 -101zM241 -13q-21 0 -35.5 13t-14.5 34
t14.5 33.5t35.5 12.5t35 -12.5t14 -33.5t-14 -34t-35 -13z" />
    <glyph glyph-name="at" unicode="@" horiz-adv-x="909" 
d="M600 88l2 16q-26 -53 -75 -81.5t-110 -29.5q-104 0 -156 73t-42 179q9 118 89 185.5t189 67.5q55 0 108 -21t91 -56l-27 -297q-2 -22 -1.5 -38.5t7.5 -26.5t23 -10q26 -1 47.5 18.5t35.5 51.5t22.5 64.5t11.5 64.5q14 160 -71.5 254.5t-247.5 94.5q-156 0 -265 -98
t-123 -254q-10 -101 20.5 -180t90.5 -119.5t142.5 -49t176.5 29.5l-5 -49q-83 -26 -158 -28t-137 27.5t-105.5 78.5t-64.5 124.5t-12 165.5q16 177 141.5 290t303.5 113q182 0 282 -109t82 -291q-9 -102 -63 -180t-133 -78q-41 0 -58 27t-11 71zM602 235l14 156
q-48 40 -133 40q-74 0 -126 -49.5t-60 -136.5q-6 -77 29 -128.5t109 -51.5q70 0 114 49t53 121z" />
    <glyph glyph-name="A" unicode="A" horiz-adv-x="706" 
d="M528 173h-350l-82 -173h-87v11l326 692h38l323 -692v-11h-86zM353 572l-147 -327h294z" />
    <glyph glyph-name="B" unicode="B" horiz-adv-x="669" 
d="M586 510q0 -51 -24.5 -89.5t-69.5 -55.5q126 -36 126 -168q0 -94 -60.5 -145.5t-161.5 -51.5h-303v700h273q100 0 160 -47t60 -143zM361 630h-185v-238h185q144 0 144 117q0 121 -144 121zM371 322h-195v-250h214q65 0 104.5 32t39.5 93q2 66 -43 95.5t-120 29.5z" />
    <glyph glyph-name="C" unicode="C" horiz-adv-x="762" 
d="M50 350q0 161 101.5 260.5t252.5 97.5q107 0 194 -57t117 -162h-81q-32 70 -92 106t-138 36q-119 2 -194 -77.5t-75 -203.5q0 -120 74.5 -200.5t193.5 -80.5q82 0 145 40.5t90 114.5h81q-29 -113 -116.5 -172.5t-198.5 -59.5q-150 0 -252 98.5t-102 259.5z" />
    <glyph glyph-name="D" unicode="D" horiz-adv-x="732" 
d="M93 700h248q156 0 248 -100t92 -249q0 -152 -92 -251.5t-248 -99.5h-248v700zM177 76h162q118 0 188.5 77t70.5 197q0 119 -70.5 196t-188.5 77h-162v-547z" />
    <glyph glyph-name="E" unicode="E" horiz-adv-x="569" 
d="M500 700v-73h-323v-229h312v-73h-312v-248h334v-77h-418v700h407z" />
    <glyph glyph-name="F" unicode="F" horiz-adv-x="550" 
d="M482 369v-74h-305v-295h-84v700h416v-74h-332v-257h305z" />
    <glyph glyph-name="G" unicode="G" horiz-adv-x="777" 
d="M50 351q0 160 100 259.5t249 99.5q110 0 196.5 -53t114.5 -157h-82q-49 134 -229 134q-120 0 -192.5 -80.5t-72.5 -202.5q0 -124 72.5 -203.5t192.5 -79.5q111 0 180.5 59t79.5 170h-249v71h326q5 -104 -27 -182q-38 -95 -120 -145.5t-190 -50.5q-151 0 -250 100t-99 261
z" />
    <glyph glyph-name="H" unicode="H" horiz-adv-x="723" 
d="M630 0h-84v328h-370v-328h-83v700h83v-295h370v295h84v-700z" />
    <glyph glyph-name="I" unicode="I" horiz-adv-x="400" 
d="M242 67h121v-67h-326v67h121v567h-113v66h310v-66h-113v-567z" />
    <glyph glyph-name="J" unicode="J" horiz-adv-x="639" 
d="M553 700v-465q0 -113 -74.5 -179t-188.5 -66q-113 0 -184.5 66.5t-71.5 178.5v73h79v-72q0 -81 48 -125.5t129 -44.5t130 45t49 125v390h-171v74h255z" />
    <glyph glyph-name="K" unicode="K" horiz-adv-x="666" 
d="M176 700v-320q126 0 159 20q50 30 88 169q23 78 68 112.5t137 17.5v-56q-57 6 -85.5 -17t-45.5 -81q-41 -142 -94 -188l244 -345v-12h-95l-222 323q-44 -13 -154 -13v-310h-83v700h83z" />
    <glyph glyph-name="L" unicode="L" horiz-adv-x="523" 
d="M177 700v-625h330v-75h-414v700h84z" />
    <glyph glyph-name="M" unicode="M" horiz-adv-x="827" 
d="M414 310l288 391h32v-701h-84v505l-230 -316h-13l-230 316v-505h-84v701h33z" />
    <glyph glyph-name="N" unicode="N" horiz-adv-x="746" 
d="M626 -1l-457 530l7 -192v-337h-83v702h29l456 -530l-9 201v328h84v-702h-27z" />
    <glyph glyph-name="O" unicode="O" horiz-adv-x="810" 
d="M760 350q0 -159 -99 -260t-257 -101q-152 0 -253 99t-101 262q0 164 102 263t253 99t253 -99.5t102 -262.5zM134 350q0 -126 77 -205t193 -79q117 0 194.5 79t77.5 205t-77 206t-194 80q-116 0 -193.5 -79.5t-77.5 -206.5z" />
    <glyph glyph-name="P" unicode="P" horiz-adv-x="650" 
d="M176 1h-83v700h280q110 0 177.5 -68.5t67.5 -171.5q0 -102 -68 -170t-177 -68h-197v-222zM175 298h198q70 0 117 46.5t47 118.5q0 71 -46 117.5t-118 46.5h-198v-329z" />
    <glyph glyph-name="Q" unicode="Q" horiz-adv-x="809" 
d="M750 6v-12h-78l-47 70q-98 -73 -223 -73q-150 0 -251 100.5t-101 259.5t99.5 261t255.5 102q151 0 253 -100.5t102 -262.5q0 -143 -80 -237zM134 351q0 -133 76.5 -209.5t194.5 -76.5q117 0 194.5 78.5t77.5 207.5q0 132 -77 209t-195 77q-117 0 -194 -77.5t-77 -208.5z
" />
    <glyph glyph-name="R" unicode="R" horiz-adv-x="672" 
d="M444 268l198 -256v-12h-88l-194 257h-183v-257h-84v701h279q106 0 172.5 -64t66.5 -161q0 -79 -46 -134.5t-121 -73.5zM176 326h196q68 0 113 42t45 109t-44.5 108.5t-113.5 41.5h-196v-301z" />
    <glyph glyph-name="S" unicode="S" horiz-adv-x="646" 
d="M47 191h81q2 -44 35 -75t75 -43t89 -12q48 2 87 13t70.5 42t32.5 79q0 18 -3 33.5t-11.5 27t-16 20t-23 15t-24 10.5t-29.5 8t-30 5.5t-33 4.5t-31 4q-54 6 -94.5 15.5t-79.5 29.5t-60 55.5t-21 85.5q0 66 38.5 113.5t95 68.5t120.5 21q47 1 91.5 -10t82.5 -33.5t62 -61
t26 -87.5h-78q-4 42 -33.5 69.5t-67 37.5t-81.5 10q-69 -3 -121 -33.5t-52 -93.5q0 -15 3.5 -28t7.5 -23t14 -18.5t15.5 -14t21 -11t22 -8t25.5 -5.5t24.5 -4t27 -4t25.5 -3q50 -6 82.5 -12t71.5 -19.5t61.5 -33t38 -53t15.5 -78.5q0 -71 -42.5 -119t-101 -67t-127.5 -21
q-50 -1 -98 10.5t-89 35.5t-66.5 64.5t-27.5 92.5z" />
    <glyph glyph-name="T" unicode="T" horiz-adv-x="549" 
d="M234 625h-216v75h513v-75h-216v-625h-81v625z" />
    <glyph glyph-name="U" unicode="U" horiz-adv-x="707" 
d="M355 -9q-117 0 -193 66t-76 181v462h84v-461q0 -81 51.5 -127t133.5 -46t133 46t51 127v461h82v-462q0 -115 -74.5 -181t-191.5 -66z" />
    <glyph glyph-name="V" unicode="V" horiz-adv-x="662" 
d="M333 143l98 262l120 295h89v-12l-291 -691h-35l-293 691v12h89l121 -295l101 -262h1z" />
    <glyph glyph-name="W" unicode="W" horiz-adv-x="965" 
d="M462 687h41l183 -544h2l76 299l80 258h87v-11l-215 -693h-58l-175 514h-1l-173 -514h-58l-218 691v13h89l80 -259l80 -298h1z" />
    <glyph glyph-name="X" unicode="X" horiz-adv-x="632" 
d="M316 423h2l98 149l90 128h89v-11l-228 -320l254 -358v-11h-91l-116 164l-96 146h-3l-94 -144l-117 -166h-92v12l254 357l-228 319v12h90l91 -130z" />
    <glyph glyph-name="Y" unicode="Y" horiz-adv-x="628" 
d="M313 366h3l101 170l102 164h89v-12l-252 -401v-287h-84v287l-253 402v11h91l102 -163z" />
    <glyph glyph-name="Z" unicode="Z" horiz-adv-x="584" 
d="M548 700v-13l-396 -611h397v-76h-528v11l396 615h-369v74h500z" />
    <glyph glyph-name="bracketleft" unicode="[" horiz-adv-x="300" 
d="M259 755v-65h-102v-794h102v-72h-176v931h176z" />
    <glyph glyph-name="backslash" unicode="\" horiz-adv-x="481" 
d="M112 700l338 -699h-82l-338 699h82z" />
    <glyph glyph-name="bracketright" unicode="]" horiz-adv-x="300" 
d="M41 690v65h176v-931h-176v72h102v794h-102z" />
    <glyph glyph-name="asciicircum" unicode="^" horiz-adv-x="525" 
d="M232 701h57l176 -285h-71l-134 215l-129 -215h-71z" />
    <glyph glyph-name="underscore" unicode="_" horiz-adv-x="616" 
d="M67 -81v68h482v-68h-482z" />
    <glyph glyph-name="grave" unicode="`" horiz-adv-x="336" 
d="M237 582h-66l-81 103v7l72 29l75 -132v-7z" />
    <glyph glyph-name="a" unicode="a" horiz-adv-x="544" 
d="M400 87q-25 -47 -77.5 -71t-112.5 -24q-70 0 -119 39.5t-51 109.5q-2 79 51 123t133 44q95 0 166 -40v59q0 38 -25.5 62.5t-57.5 32.5t-69 8q-87 0 -147 -35l-13 62q70 36 172 36q92 0 152.5 -40t58.5 -128v-201v-7v-16t0.5 -13.5t1.5 -11.5t3 -10t4.5 -8.5t7 -6t10 -3.5
t13 -1.5t16.5 1.5l1 -51q-63 -10 -90.5 8.5t-27.5 81.5zM389 163v46q-69 39 -152 39q-51 0 -86.5 -27.5t-33.5 -76.5q2 -43 32.5 -64t74.5 -21q54 0 104 27t61 77z" />
    <glyph glyph-name="b" unicode="b" horiz-adv-x="579" 
d="M73 29v702h78v-281q72 43 151 41q97 -2 164 -70t67 -183q0 -128 -74 -189t-189 -61q-99 0 -197 41zM149 378v-299q67 -24 126 -23q79 2 129.5 46.5t50.5 135.5q0 90 -47 138t-117 49q-74 2 -142 -47z" />
    <glyph glyph-name="c" unicode="c" horiz-adv-x="566" 
d="M523 335h-75q-19 43 -58 66t-87 23q-72 0 -126 -48t-54 -133q0 -84 53 -133t123 -49q50 0 92 26t61 75h76q-21 -82 -85.5 -126t-144.5 -44q-102 0 -178 66.5t-76 184.5q0 119 76.5 185.5t179.5 65.5q77 -1 139 -42t84 -117z" />
    <glyph glyph-name="d" unicode="d" horiz-adv-x="601" 
d="M441 81v22q-50 -110 -174 -112q-104 0 -163 72.5t-59 178.5q0 112 67.5 180t164.5 67q80 0 151 -48v291h78v-573q0 -8 -0.5 -19t-0.5 -17.5v-16t1 -14.5l2.5 -12.5t4.5 -10t7.5 -8t10.5 -5t14 -2t18 0.5l1 -57q-63 -10 -93 7t-30 76zM430 221v148q-71 53 -146 51
q-69 -1 -114.5 -48t-45.5 -130q0 -77 40 -129t114 -52q67 0 108.5 46t43.5 114z" />
    <glyph glyph-name="e" unicode="e" horiz-adv-x="554" 
d="M292 493q122 -1 178 -70.5t36 -189.5h-383q-4 -81 52 -130t140 -49q78 0 163 35l12 -59q-87 -41 -177 -41q-122 0 -197 72t-71 193q4 111 74 175t173 64zM292 431q-67 0 -111.5 -36.5t-54.5 -101.5h314q4 66 -38 102t-110 36z" />
    <glyph glyph-name="f" unicode="f" horiz-adv-x="390" 
d="M127 0v418h-103v60h104v81q0 65 23.5 107.5t63 58t89 12.5t105.5 -25l-11 -58q-38 16 -71 20.5t-61 -3t-44.5 -34.5t-16.5 -73v-86h175v-60h-175v-418h-78z" />
    <glyph glyph-name="g" unicode="g" horiz-adv-x="576" 
d="M427 -40v76q-76 -48 -154 -50q-97 -3 -162 65.5t-65 187.5q0 122 74 186t191 64q94 0 192 -44v-479q0 -117 -63.5 -175t-163.5 -58t-196 54l13 62q94 -51 182 -50q68 1 110 39.5t42 121.5zM426 104v296q-60 23 -117 23q-80 0 -132.5 -47.5t-52.5 -135.5q0 -90 46 -139
t116 -48q71 0 140 51z" />
    <glyph glyph-name="h" unicode="h" horiz-adv-x="584" 
d="M514 0h-80v284q1 69 -35 107t-99 38q-65 1 -105 -40t-40 -108v-281h-79v731h79v-312q32 40 70.5 57.5t94.5 17.5q96 -1 145 -57t49 -153v-284z" />
    <glyph glyph-name="i" unicode="i" horiz-adv-x="234" 
d="M68 641q0 31 24.5 44t49.5 0t25 -44q0 -24 -15.5 -37.5t-34 -13.5t-34 13.5t-15.5 37.5zM156 478v-478h-78v478h78z" />
    <glyph glyph-name="j" unicode="j" horiz-adv-x="234" 
d="M78 480h78l-1 -537q0 -117 -47.5 -165t-153.5 -28l2 61q75 -13 98.5 19.5t23.5 113.5v536zM67 641q0 31 24.5 44t49.5 0t25 -44q0 -24 -15.5 -37.5t-34 -13.5t-34 13.5t-15.5 37.5z" />
    <glyph glyph-name="k" unicode="k" horiz-adv-x="534" 
d="M155 283h64q99 0 144.5 48t45.5 152h75q0 -88 -31.5 -146.5t-107.5 -87.5l162 -240v-9h-81l-149 225q-27 -6 -59 -6h-63v-219h-79v731h79v-448z" />
    <glyph glyph-name="l" unicode="l" horiz-adv-x="275" 
d="M71 733h79v-559q0 -74 24 -98.5t97 -15.5l3 -62q-110 -18 -156.5 23t-46.5 153v559z" />
    <glyph glyph-name="m" unicode="m" horiz-adv-x="896" 
d="M825 0h-80v287q0 63 -26 101.5t-83 38.5q-61 0 -101.5 -41t-40.5 -105v-281h-78v283q0 144 -112 144q-62 0 -98.5 -40t-36.5 -107v-280h-78v349q0 51 -9.5 66.5t-46.5 11.5l-1 57q35 4 63.5 5.5t46.5 -18.5t18 -65q47 86 163 86q120 0 149 -104q22 51 71.5 77.5
t112.5 26.5q167 0 167 -205v-287z" />
    <glyph glyph-name="n" unicode="n" 
d="M528 0h-79v286q0 64 -37.5 102.5t-97.5 38.5q-62 0 -103 -39t-41 -99v-289h-78v344q0 51 -9.5 66t-46.5 11l-1 62q20 3 29.5 4t28.5 1.5t28.5 -4t21.5 -12.5t17 -24t5 -38q54 82 170 82q92 0 142.5 -57t50.5 -149v-286z" />
    <glyph glyph-name="o" unicode="o" 
d="M553 242q0 -80 -37.5 -138.5t-94 -85t-122.5 -26.5t-122.5 26.5t-94 85t-37.5 138.5q0 61 22 110t57.5 79t81 46.5t93.5 16.5t93.5 -16.5t81 -46.5t57.5 -79t22 -110zM124 242q0 -59 26 -102t65 -62.5t84.5 -19.5t84.5 19.5t65 62.5t26 102t-26 102t-65 62t-84.5 19
t-84.5 -19t-65 -62t-26 -102z" />
    <glyph glyph-name="p" unicode="p" horiz-adv-x="597" 
d="M157 402q57 93 176 93q102 0 160 -71.5t58 -179.5q0 -78 -36 -137.5t-91 -87t-124 -22.5t-132 47v-292h-78v569q0 66 -5 80q-11 29 -52 24l-1 58q61 10 94 -8.5t31 -72.5zM166 264v-149q65 -50 136.5 -52t120 47t48.5 134q0 78 -38.5 129t-114.5 51q-66 0 -108 -47.5
t-44 -112.5z" />
    <glyph glyph-name="q" unicode="q" horiz-adv-x="579" 
d="M506 453v-704h-79v291q-73 -47 -152 -47q-96 0 -162 68t-67 182q-2 129 72.5 190t190.5 61q95 0 197 -41zM429 111v294q-61 24 -118 25q-81 2 -133.5 -45t-52.5 -142q1 -87 49 -135t118 -47q72 2 137 50z" />
    <glyph glyph-name="r" unicode="r" horiz-adv-x="433" 
d="M163 418q37 80 146 80q63 0 113 -36l-19 -66q-50 32 -102 32q-54 0 -93.5 -36.5t-39.5 -91.5v-300h-77v369q0 20 -1 30t-6.5 20.5t-17.5 14t-33 1.5l-1 52q62 11 95.5 -3t35.5 -66z" />
    <glyph glyph-name="s" unicode="s" horiz-adv-x="509" 
d="M40 136h76q3 -43 43.5 -64t94.5 -21t94 22.5t42 64.5q0 38 -30 53.5t-105 26.5q-34 4 -58 8.5t-53 14t-47 22.5t-30.5 35t-13.5 51q-2 70 57.5 106.5t142.5 36.5q82 0 142 -36t58 -102h-75q0 37 -36.5 56.5t-88.5 19.5t-90 -20t-36 -59q1 -33 31 -47t104 -25
q34 -4 51.5 -7t46 -9.5t44 -16t32.5 -24t24 -35.5t6 -49q0 -70 -61 -109t-151 -41q-88 0 -148 35.5t-66 112.5z" />
    <glyph glyph-name="t" unicode="t" horiz-adv-x="421" 
d="M204 630v-150h177v-57h-177v-236q0 -90 52.5 -119.5t139.5 4.5l9 -63q-84 -25 -146 -18.5t-97.5 56t-35.5 138.5v238l-103 5v52h108l8 150h65z" />
    <glyph glyph-name="u" unicode="u" horiz-adv-x="587" 
d="M417 482h78v-353q0 -53 10 -66.5t47 -9.5l1 -54q-65 -11 -99 3.5t-31 72.5q-46 -83 -172 -83q-92 0 -136.5 57t-44.5 152v281h79v-281q-1 -67 32.5 -106t92.5 -39q64 0 103.5 39.5t39.5 106.5v280z" />
    <glyph glyph-name="v" unicode="v" horiz-adv-x="532" 
d="M283 -4h-33l-229 477v9h85l82 -181l80 -187l80 190l79 178h84v-9z" />
    <glyph glyph-name="w" unicode="w" horiz-adv-x="758" 
d="M249 -4h-35l-188 477v9h84l71 -190l51 -156h2l129 334h31l131 -334h1l52 156l70 190h85v-9l-190 -477h-36l-127 324z" />
    <glyph glyph-name="x" unicode="x" horiz-adv-x="492" 
d="M247 208h-2l-73 -106l-78 -102h-78v9l186 247l-159 218v8h81l63 -87l61 -94h2l66 98l63 83h78v-9l-165 -221l180 -243v-9h-76l-73 99z" />
    <glyph glyph-name="y" unicode="y" horiz-adv-x="547" 
d="M518 473l-212 -507l-24 -55.5t-24.5 -50.5t-29.5 -47t-34 -33t-42.5 -22.5t-50.5 -1.5t-62 17l11 58q63 -29 98.5 -1.5t63.5 98.5l28 68l-221 477v8h83l96 -214l79 -191h1l73 189l88 216h79v-8z" />
    <glyph glyph-name="z" unicode="z" horiz-adv-x="461" 
d="M424 482v-11l-269 -402h267v-69h-392v10l273 404h-258v68h379z" />
    <glyph glyph-name="braceleft" unicode="{" horiz-adv-x="298" 
d="M256 765v-59q-47 1 -67 -16t-20 -63v-198q0 -104 -53 -127q33 -14 43 -47t10 -82v-205q0 -46 20.5 -62.5t66.5 -14.5v-64q-87 0 -124 26.5t-37 111.5l-1 202q0 99 -55 105v59q24 4 37 22.5t15.5 36.5t2.5 45l1 194q0 83 38.5 109.5t122.5 26.5z" />
    <glyph glyph-name="bar" unicode="|" horiz-adv-x="244" 
d="M86 702h72v-782h-72v782z" />
    <glyph glyph-name="braceright" unicode="}" horiz-adv-x="298" 
d="M42 706v59q84 0 122.5 -26.5t38.5 -109.5l1 -194q0 -27 2.5 -45t15.5 -36.5t37 -22.5v-59q-55 -6 -55 -105l-1 -202q0 -85 -37 -111.5t-124 -26.5v64q46 -2 66.5 14.5t20.5 62.5v205q0 49 11 82t45 47q-56 24 -56 127v198q0 46 -20 63t-67 16z" />
    <glyph glyph-name="asciitilde" unicode="~" horiz-adv-x="613" 
d="M111 289l-49 27q31 81 105 98t145 -31q31 -20 56 -30.5t51 -13t46.5 13.5t34.5 50l54 -25q-17 -46 -44.5 -71.5t-61.5 -29.5t-70.5 6t-76.5 34q-138 79 -190 -28z" />
    <glyph glyph-name="exclamdown" unicode="&#xa1;" horiz-adv-x="232" 
d="M117 488q20 0 34 -13t14 -33q0 -21 -13.5 -33.5t-34.5 -12.5t-35.5 12.5t-14.5 33.5q0 20 14.5 33t35.5 13zM153 322l5 -547h-83l4 547h74z" />
    <glyph glyph-name="cent" unicode="&#xa2;" horiz-adv-x="602" 
d="M542 333l-74 -3q-21 53 -82 79l-118 -342q66 -17 126 9.5t81 92.5l75 -3q-27 -103 -117 -147t-188 -19l-27 -79h-39l31 91q-66 28 -107 87t-41 144q0 90 49.5 153t120 85t143.5 7l26 75h37l-29 -84q104 -39 133 -146zM235 82l116 339q-78 13 -144.5 -36t-66.5 -142
q0 -57 26 -98t69 -63z" />
    <glyph glyph-name="sterling" unicode="&#xa3;" horiz-adv-x="657" 
d="M47 320v61h80q-16 83 -3.5 144.5t48 102t84.5 61t106 20.5q100 1 207 -60l-28 -60q-83 54 -183 49q-89 -4 -134.5 -70t-15.5 -187h242v-61h-233q13 -74 7 -125q-7 -60 -44 -112q28 14 69.5 12.5t72 -9.5t72 -17t69.5 -9q39 0 59.5 24t18.5 83h67q12 -176 -131 -176
q-27 0 -78.5 9.5l-93.5 17.5t-90.5 5t-79.5 -23h-81v8q47 45 68.5 89t25.5 107q1 45 -12 116h-89z" />
    <glyph glyph-name="currency" unicode="&#xa4;" horiz-adv-x="565" 
d="M127 558l57 -58q44 28 99 29t100 -25l54 54l50 -50l-52 -52q32 -45 32 -109q0 -62 -33 -110l53 -52l-50 -50l-55 54q-45 -26 -99 -25t-98 29l-58 -58l-50 50l57 57q-28 43 -28 105q0 59 28 103l-57 58zM173 347q0 -56 35.5 -87.5t78 -31.5t78 31.5t35.5 87.5
q0 55 -35.5 86.5t-78 31.5t-78 -31.5t-35.5 -86.5z" />
    <glyph glyph-name="yen" unicode="&#xa5;" horiz-adv-x="561" 
d="M320 0h-79v144h-142v57h142v63h-142v56h123l-186 369v11h90l155 -334l155 334h89v-11l-187 -369h124v-56h-142v-63h142v-57h-142v-144z" />
    <glyph glyph-name="brokenbar" unicode="&#xa6;" horiz-adv-x="246" 
d="M87 702h72v-308h-72v308zM87 298h72v-312h-72v312z" />
    <glyph glyph-name="section" unicode="&#xa7;" horiz-adv-x="643" 
d="M415 177q41 12 68 41t27 69q0 56 -49.5 78t-149.5 32l-30 3t-31 4q-45 -12 -75.5 -40t-28.5 -68q2 -50 39 -73t102 -30q84 -8 128 -16zM176 425q-50 17 -77 45.5t-27 76.5q0 57 38 97t90 56.5t112 18.5q58 2 111.5 -14t94.5 -55t43 -95h-77q-3 51 -56 76.5t-114 22.5
q-39 -2 -73 -10.5t-62 -33.5t-28 -62q0 -17 5.5 -30t19 -22t26 -15t36.5 -11t39.5 -7l45.5 -6q49 -5 80 -9.5t69.5 -16.5t60 -28.5t37 -45.5t15.5 -68q-1 -88 -96 -136q96 -39 96 -132q0 -44 -24 -78t-63 -53.5t-82.5 -30t-89.5 -11.5q-63 -2 -122 14.5t-103.5 57.5
t-45.5 100q14 0 40 0.5t39 0.5q1 -39 34 -65.5t74.5 -36t82.5 -7.5q30 1 59 7.5t57 18.5t45.5 33.5t17.5 49.5q0 19 -7 34.5t-17 26t-28.5 19t-32 13t-38 8.5t-37 5.5t-38 3.5t-32.5 3q-199 15 -203 154q-4 93 105 137z" />
    <glyph glyph-name="dieresis" unicode="&#xa8;" horiz-adv-x="507" 
d="M367 618q-21 0 -35 12.5t-14 32.5q0 21 14 33.5t35 12.5t35 -12.5t14 -33.5q0 -20 -14 -32.5t-35 -12.5zM132 618q-21 0 -35 12.5t-14 32.5q0 21 14 33.5t35 12.5t35.5 -12.5t14.5 -33.5q0 -20 -14.5 -32.5t-35.5 -12.5z" />
    <glyph glyph-name="copyright" unicode="&#xa9;" horiz-adv-x="791" 
d="M734 347q0 -82 -29 -149t-76.5 -108t-108.5 -63t-124.5 -22.5t-124.5 22t-108.5 63.5t-76.5 107.5t-29 149.5q0 82 29 148.5t76.5 107.5t108.5 63.5t124.5 22.5t124.5 -22.5t108.5 -63.5t76.5 -107.5t29 -148.5zM550 403l-49 -4q-15 50 -67.5 63t-99 -19.5t-46.5 -96.5
q0 -51 33.5 -83t81.5 -34q34 -1 62.5 17t39.5 53h50q-10 -43 -37.5 -72t-63 -39.5t-74 -6t-70.5 23.5t-53 56t-21 85q0 57 28.5 98.5t71 56t86.5 12t80 -32t48 -77.5zM116 347q0 -70 24 -126t63.5 -91t89.5 -53.5t102.5 -18.5t102.5 18.5t89.5 53.5t63.5 91t24 126
t-24 126.5t-63.5 91t-89.5 53.5t-102.5 19t-102.5 -19t-89.5 -53.5t-63.5 -91t-24 -126.5z" />
    <glyph glyph-name="ordfeminine" unicode="&#xaa;" horiz-adv-x="493" 
d="M329 401q-34 -59 -135 -59q-53 0 -89.5 27.5t-38.5 80.5q-2 58 39.5 89t100.5 31q64 -2 113 -27v31q0 83 -107 83q-59 0 -103 -24l-11 43q53 29 123 29q71 0 116 -32t45 -100v-163q0 -17 8 -24.5t30 -5.5l2 -36q-43 -11 -71 4t-22 53zM88 214v52h321v-52h-321zM319 459
v39q-42 26 -104 26q-37 0 -62 -17.5t-25 -51.5q0 -32 21.5 -48t55.5 -16q39 0 72 17.5t42 50.5z" />
    <glyph glyph-name="guillemotleft" unicode="&#xab;" horiz-adv-x="468" 
d="M241 551l-104 -205l104 -202l-52 -20l-135 222l135 223zM404 551l-104 -205l104 -202l-52 -20l-135 222l135 223z" />
    <glyph glyph-name="logicalnot" unicode="&#xac;" horiz-adv-x="559" 
d="M74 308v69h407v-241h-65v172h-342z" />
    <glyph glyph-name="registered" unicode="&#xae;" horiz-adv-x="791" 
d="M734 350q0 -82 -29 -149t-76.5 -108t-108.5 -63t-124.5 -22.5t-124.5 22t-108.5 63.5t-76.5 107.5t-29 149.5q0 82 29 148.5t76.5 107.5t108.5 63.5t124.5 22.5t124.5 -22.5t108.5 -63.5t76.5 -107.5t29 -148.5zM460 308l87 -114v-8h-53l-85 115h-71v-115h-51v327h134
q50 0 83 -28.5t33 -78.5q0 -37 -21 -64t-56 -34zM338 469v-126h79q30 0 49.5 17t19.5 46q0 28 -19.5 45.5t-49.5 17.5h-79zM117 350q0 -70 24 -126t63 -91t89.5 -53.5t102.5 -18.5t102.5 18.5t89.5 53.5t63 91t24 126t-24 126.5t-63 91t-89.5 53.5t-102.5 19t-102.5 -19
t-89.5 -53.5t-63 -91t-24 -126.5z" />
    <glyph glyph-name="macron" unicode="&#xaf;" horiz-adv-x="499" 
d="M94 636v61h297v-61h-297z" />
    <glyph glyph-name="degree" unicode="&#xb0;" horiz-adv-x="431" 
d="M379 554q0 -49 -24 -85t-60.5 -52.5t-79 -16.5t-79 16.5t-60.5 52.5t-24 85q0 42 18 75t47 50.5t64 25.5t69.5 0t63.5 -25.5t47 -50.5t18 -75zM112 554q0 -38 21.5 -64t52 -32.5t60.5 0t51.5 32.5t21.5 64q0 48 -32.5 75t-71 26.5t-71 -27.5t-32.5 -74z" />
    <glyph glyph-name="plusminus" unicode="&#xb1;" horiz-adv-x="521" 
d="M84 333v64h145v145h64v-145h146v-64h-146v-150h-64v150h-145zM74 39v67h371v-67h-371z" />
    <glyph glyph-name="twosuperior" unicode="&#xb2;" horiz-adv-x="403" 
d="M334 414v-54h-269v14l172 206q26 29 31 61t-14 53.5t-57 21.5q-68 0 -72 -64h-53q5 117 126 117q63 0 97 -36t30.5 -86t-39.5 -92l-120 -141h168z" />
    <glyph glyph-name="threesuperior" unicode="&#xb3;" horiz-adv-x="384" 
d="M43 473h55q11 -66 86 -66q40 0 65 21.5t25 59.5q0 49 -40.5 68.5t-95.5 6.5v15l97 135h-174v50h270v-10l-108 -146q52 -2 81.5 -36.5t29.5 -82.5q0 -58 -40 -96.5t-109 -38.5q-59 0 -98 32t-44 88z" />
    <glyph glyph-name="acute" unicode="&#xb4;" horiz-adv-x="303" 
d="M147 576h-66v7l75 132l72 -29v-7z" />
    <glyph glyph-name="mu" unicode="&#xb5;" horiz-adv-x="572" 
d="M512 0h-76v90q-15 -46 -52 -72t-89 -26q-100 0 -139 82v-324h-75v733h75v-285q1 -69 36 -106.5t101 -38.5q63 0 103 41t40 107v282h76v-483z" />
    <glyph glyph-name="mu" unicode="&#x3bc;" horiz-adv-x="572" 
d="M512 0h-76v90q-15 -46 -52 -72t-89 -26q-100 0 -139 82v-324h-75v733h75v-285q1 -69 36 -106.5t101 -38.5q63 0 103 41t40 107v282h76v-483z" />
    <glyph glyph-name="paragraph" unicode="&#xb6;" horiz-adv-x="735" 
d="M641 -199h-78v826h-211v-826h-79v377q-73 2 -128 41.5t-81 97t-27 125t23.5 124.5t82.5 95t138 38h360v-898z" />
    <glyph glyph-name="periodcentered" unicode="&#xb7;" horiz-adv-x="238" 
d="M119 311q-21 0 -36 13t-15 34t14.5 34.5t36.5 13.5t36.5 -13.5t14.5 -34.5t-15 -34t-36 -13z" />
    <glyph glyph-name="cedilla" unicode="&#xb8;" horiz-adv-x="392" 
d="M156 -76l23 87h59l-16 -63q48 -2 70.5 -34t10.5 -73q-13 -38 -51.5 -54.5t-82 -10t-74.5 29.5l4 48q30 -27 78.5 -30t63.5 32q11 34 -20 53t-65 15z" />
    <glyph glyph-name="onesuperior" unicode="&#xb9;" horiz-adv-x="330" 
d="M54 360v50h80v303h-71v50h132v-353h81v-50h-222z" />
    <glyph glyph-name="ordmasculine" unicode="&#xba;" horiz-adv-x="537" 
d="M466 532q0 -61 -29.5 -105.5t-74 -65t-96.5 -20.5t-96.5 20.5t-74 65t-29.5 105.5q0 53 22 94t57.5 62.5t78 31.5t85 0t78 -31.5t57.5 -62.5t22 -94zM133 533q0 -51 27.5 -86t66.5 -43t78.5 0t67 43t27.5 86q0 43 -20 74t-49.5 45t-64 14t-64 -14t-49.5 -45t-20 -74z
M78 197v64h383v-64h-383z" />
    <glyph glyph-name="guillemotright" unicode="&#xbb;" horiz-adv-x="468" 
d="M331 346l-104 205l52 18l135 -223l-135 -222l-52 20zM168 346l-104 205l52 18l135 -223l-135 -222l-52 20z" />
    <glyph glyph-name="onequarter" unicode="&#xbc;" horiz-adv-x="889" 
d="M752 136v91q0 1 3 106h-1l-144 -197h142zM806 86v-85h-58v85h-214v28l208 290h64v-266h45v-52h-45zM244 1l338 699h65l-338 -699h-65zM49 304v47h81v310h-71v47h132v-357h81v-47h-223z" />
    <glyph glyph-name="onehalf" unicode="&#xbd;" horiz-adv-x="904" 
d="M244 1l338 699h66l-339 -699h-65zM50 304v46h81v308h-71v50h132v-358h81v-46h-223zM860 54v-54h-269v14l172 206q26 29 31 61t-14 53.5t-57 21.5q-68 0 -72 -64h-53q5 117 126 117q63 0 97 -36t30.5 -86t-39.5 -92l-120 -141h168z" />
    <glyph glyph-name="threequarters" unicode="&#xbe;" horiz-adv-x="911" 
d="M278 1l338 699h64l-338 -699h-64zM774 136v91q0 1 3 106h-1l-144 -197h142zM828 86v-85h-58v85h-214v28l208 290h64v-266h45v-52h-45zM43 415h55q11 -66 86 -66q40 0 65 21.5t25 59.5q0 49 -40.5 68.5t-95.5 6.5v15l97 135h-174v50h270v-10l-108 -146q52 -2 81.5 -36.5
t29.5 -82.5q0 -58 -40 -96.5t-109 -38.5q-59 0 -98 32t-44 88z" />
    <glyph glyph-name="questiondown" unicode="&#xbf;" horiz-adv-x="485" 
d="M214 337h75q1 -67 -16 -116t-42 -76t-50 -50.5t-43 -54.5t-18 -72q0 -49 34.5 -80t86.5 -33q51 -2 89.5 26.5t46.5 82.5h76q-6 -91 -64 -137t-147 -46q-90 0 -148 50.5t-58 140.5q0 43 18.5 77.5t45.5 60t53 54t44 72.5t17 101zM249 498q21 0 35.5 -13t14.5 -34
t-14.5 -33.5t-35.5 -12.5t-35 12.5t-14 33.5t14 34t35 13z" />
    <glyph glyph-name="Agrave" unicode="&#xc0;" horiz-adv-x="706" 
d="M528 173h-350l-82 -173h-87v11l326 692h38l323 -692v-11h-86zM353 572l-147 -327h294zM393 764h-66l-81 103v7l72 29l75 -132v-7z" />
    <glyph glyph-name="Aacute" unicode="&#xc1;" horiz-adv-x="706" 
d="M528 173h-350l-82 -173h-87v11l326 692h38l323 -692v-11h-86zM353 572l-147 -327h294zM388 767h-66v7l75 132l72 -29v-7z" />
    <glyph glyph-name="Acircumflex" unicode="&#xc2;" horiz-adv-x="706" 
d="M528 173h-350l-82 -173h-87v11l326 692h38l323 -692v-11h-86zM353 572l-147 -327h294zM530 745h-79l-98 91l-98 -91h-81v8l139 132h79l138 -133v-7z" />
    <glyph glyph-name="Atilde" unicode="&#xc3;" horiz-adv-x="706" 
d="M528 173h-350l-82 -173h-87v11l326 692h38l323 -692v-11h-86zM353 572l-147 -327h294zM239 763l-43 22q27 56 70 71.5t101 -16.5q66 -45 101 19l20.5 -10.5l22.5 -11.5q-22 -55 -66 -71.5t-98 14.5q-72 45 -108 -17z" />
    <glyph glyph-name="Adieresis" unicode="&#xc4;" horiz-adv-x="706" 
d="M528 173h-350l-82 -173h-87v11l326 692h38l323 -692v-11h-86zM353 572l-147 -327h294zM472 757q-21 0 -35 12.5t-14 32.5q0 21 14 33.5t35 12.5t35 -12.5t14 -33.5q0 -20 -14 -32.5t-35 -12.5zM237 757q-21 0 -35 12.5t-14 32.5q0 21 14 33.5t35 12.5t35.5 -12.5
t14.5 -33.5q0 -20 -14.5 -32.5t-35.5 -12.5z" />
    <glyph glyph-name="Aring" unicode="&#xc5;" horiz-adv-x="706" 
d="M281 801q0 -40 35 -56.5t70 0t35 56.5t-35 56t-70 0t-35 -56zM353 564l-147 -319h294zM528 173h-350l-82 -173h-87v11l321 683q-43 7 -70.5 33.5t-27.5 73.5q0 52 37 81.5t82 29.5t82 -29.5t37 -81.5q0 -45 -26.5 -72t-66.5 -34l319 -684v-11h-86z" />
    <glyph glyph-name="AE" unicode="&#xc6;" horiz-adv-x="825" 
d="M191 200l-102 -200h-81v12l356 686h397v-74h-285v-226h269v-71h-269v-254h290v-73h-363v200h-212zM405 623l-186 -353h184l3 353h-1z" />
    <glyph glyph-name="Ccedilla" unicode="&#xc7;" horiz-adv-x="762" 
d="M50 350q0 161 101.5 260.5t252.5 97.5q107 0 194 -57t117 -162h-81q-32 70 -92 106t-138 36q-119 2 -194 -77.5t-75 -203.5q0 -120 74.5 -200.5t193.5 -80.5q82 0 145 40.5t90 114.5h81q-27 -102 -103 -161t-176 -68l-14 -57q49 -2 72 -31t9 -73q-12 -39 -51 -55.5
t-82 -9.5t-75 30l4 47q26 -26 76.5 -26t61.5 36q11 33 -17.5 49t-63.5 13l20 76q-143 6 -236.5 104t-93.5 252z" />
    <glyph glyph-name="Egrave" unicode="&#xc8;" horiz-adv-x="569" 
d="M500 700v-73h-323v-229h312v-73h-312v-248h334v-77h-418v700h407zM361 761h-66l-81 103v7l72 29l75 -132v-7z" />
    <glyph glyph-name="Eacute" unicode="&#xc9;" horiz-adv-x="569" 
d="M500 700v-73h-323v-229h312v-73h-312v-248h334v-77h-418v700h407zM332 762h-66v7l75 132l72 -29v-7z" />
    <glyph glyph-name="Ecircumflex" unicode="&#xca;" horiz-adv-x="569" 
d="M500 700v-73h-323v-229h312v-73h-312v-248h334v-77h-418v700h407zM469 766h-76l-93 90l-94 -90h-77v8l132 130h76l132 -131v-7z" />
    <glyph glyph-name="Edieresis" unicode="&#xcb;" horiz-adv-x="569" 
d="M500 700v-73h-323v-229h312v-73h-312v-248h334v-77h-418v700h407zM416 766q-21 0 -35 12.5t-14 32.5q0 21 14 33.5t35 12.5t35 -12.5t14 -33.5q0 -20 -14 -32.5t-35 -12.5zM181 766q-21 0 -35 12.5t-14 32.5q0 21 14 33.5t35 12.5t35.5 -12.5t14.5 -33.5
q0 -20 -14.5 -32.5t-35.5 -12.5z" />
    <glyph glyph-name="Igrave" unicode="&#xcc;" horiz-adv-x="400" 
d="M242 67h121v-67h-326v67h121v567h-113v66h310v-66h-113v-567zM232 765h-66l-81 103v7l72 29l75 -132v-7z" />
    <glyph glyph-name="Iacute" unicode="&#xcd;" horiz-adv-x="400" 
d="M242 67h121v-67h-326v67h121v567h-113v66h310v-66h-113v-567zM219 761h-66v7l75 132l72 -29v-7z" />
    <glyph glyph-name="Icircumflex" unicode="&#xce;" horiz-adv-x="400" 
d="M242 67h121v-67h-326v67h121v567h-113v66h310v-66h-113v-567zM375 752h-75l-94 88l-94 -88h-77v7l133 129h75l132 -130v-6z" />
    <glyph glyph-name="Idieresis" unicode="&#xcf;" horiz-adv-x="400" 
d="M242 67h121v-67h-326v67h121v567h-113v66h310v-66h-113v-567zM322 758q-21 0 -35 12.5t-14 32.5q0 21 14 33.5t35 12.5t35 -12.5t14 -33.5q0 -20 -14 -32.5t-35 -12.5zM87 758q-21 0 -35 12.5t-14 32.5q0 21 14 33.5t35 12.5t35.5 -12.5t14.5 -33.5q0 -20 -14.5 -32.5
t-35.5 -12.5z" />
    <glyph glyph-name="Eth" unicode="&#xd0;" horiz-adv-x="734" 
d="M16 311v67h80v322h248q155 0 247.5 -101.5t92.5 -247.5q0 -148 -92.5 -249.5t-247.5 -101.5h-248v311h-80zM180 76h162q117 0 188 78.5t71 195.5q0 115 -71 194t-188 79h-162v-245h126v-67h-126v-235z" />
    <glyph glyph-name="Ntilde" unicode="&#xd1;" horiz-adv-x="746" 
d="M626 -1l-457 530l7 -192v-337h-83v702h29l456 -530l-9 201v328h84v-702h-27zM255 758l-43 22q27 56 70 71.5t101 -16.5q66 -45 101 19l20.5 -10.5l22.5 -11.5q-22 -55 -66 -71.5t-98 14.5q-72 45 -108 -17z" />
    <glyph glyph-name="Ograve" unicode="&#xd2;" horiz-adv-x="810" 
d="M760 350q0 -159 -99 -260t-257 -101q-152 0 -253 99t-101 262q0 164 102 263t253 99t253 -99.5t102 -262.5zM134 350q0 -126 77 -205t193 -79q117 0 194.5 79t77.5 205t-77 206t-194 80q-116 0 -193.5 -79.5t-77.5 -206.5zM448 774h-66l-81 103v7l72 29l75 -132v-7z" />
    <glyph glyph-name="Oacute" unicode="&#xd3;" horiz-adv-x="810" 
d="M760 350q0 -159 -99 -260t-257 -101q-152 0 -253 99t-101 262q0 164 102 263t253 99t253 -99.5t102 -262.5zM134 350q0 -126 77 -205t193 -79q117 0 194.5 79t77.5 205t-77 206t-194 80q-116 0 -193.5 -79.5t-77.5 -206.5zM437 775h-66v7l75 132l72 -29v-7z" />
    <glyph glyph-name="Ocircumflex" unicode="&#xd4;" horiz-adv-x="810" 
d="M760 350q0 -159 -99 -260t-257 -101q-152 0 -253 99t-101 262q0 164 102 263t253 99t253 -99.5t102 -262.5zM134 350q0 -126 77 -205t193 -79q117 0 194.5 79t77.5 205t-77 206t-194 80q-116 0 -193.5 -79.5t-77.5 -206.5zM581 765h-79l-98 91l-98 -91h-81v8l139 132h79
l138 -133v-7z" />
    <glyph glyph-name="Otilde" unicode="&#xd5;" horiz-adv-x="810" 
d="M760 350q0 -159 -99 -260t-257 -101q-152 0 -253 99t-101 262q0 164 102 263t253 99t253 -99.5t102 -262.5zM134 350q0 -126 77 -205t193 -79q117 0 194.5 79t77.5 205t-77 206t-194 80q-116 0 -193.5 -79.5t-77.5 -206.5zM293 785l-43 22q27 56 70 71.5t101 -16.5
q66 -45 101 19l20.5 -10.5l22.5 -11.5q-22 -55 -66 -71.5t-98 14.5q-72 45 -108 -17z" />
    <glyph glyph-name="Odieresis" unicode="&#xd6;" horiz-adv-x="810" 
d="M760 350q0 -159 -99 -260t-257 -101q-152 0 -253 99t-101 262q0 164 102 263t253 99t253 -99.5t102 -262.5zM134 350q0 -126 77 -205t193 -79q117 0 194.5 79t77.5 205t-77 206t-194 80q-116 0 -193.5 -79.5t-77.5 -206.5zM518 773q-21 0 -35 12.5t-14 32.5q0 21 14 33.5
t35 12.5t35 -12.5t14 -33.5q0 -20 -14 -32.5t-35 -12.5zM283 773q-21 0 -35 12.5t-14 32.5q0 21 14 33.5t35 12.5t35.5 -12.5t14.5 -33.5q0 -20 -14.5 -32.5t-35.5 -12.5z" />
    <glyph glyph-name="multiply" unicode="&#xd7;" horiz-adv-x="450" 
d="M69 456l46 47l110 -108l109 108l47 -47l-109 -110l108 -107l-47 -47l-108 107l-108 -107l-47 47l107 108z" />
    <glyph glyph-name="Oslash" unicode="&#xd8;" horiz-adv-x="808" 
d="M683 741l-62 -103q137 -100 137 -289q0 -162 -102 -261t-252 -99q-78 0 -148 32l-44 -73h-81v8l61 101q-141 99 -141 292q0 163 101 262t252 99q85 0 156 -35l42 74h81v-8zM574 565l-279 -471q51 -25 110 -25q116 0 192.5 77.5t76.5 202.5q0 144 -100 216zM239 128
l281 475q-55 26 -116 26q-116 0 -193 -77.5t-77 -202.5q0 -148 105 -221z" />
    <glyph glyph-name="Ugrave" unicode="&#xd9;" horiz-adv-x="707" 
d="M355 -9q-117 0 -193 66t-76 181v462h84v-461q0 -81 51.5 -127t133.5 -46t133 46t51 127v461h82v-462q0 -115 -74.5 -181t-191.5 -66zM395 773h-66l-81 103v7l72 29l75 -132v-7z" />
    <glyph glyph-name="Uacute" unicode="&#xda;" horiz-adv-x="707" 
d="M355 -9q-117 0 -193 66t-76 181v462h84v-461q0 -81 51.5 -127t133.5 -46t133 46t51 127v461h82v-462q0 -115 -74.5 -181t-191.5 -66zM382 770h-66v7l75 132l72 -29v-7z" />
    <glyph glyph-name="Ucircumflex" unicode="&#xdb;" horiz-adv-x="707" 
d="M355 -9q-117 0 -193 66t-76 181v462h84v-461q0 -81 51.5 -127t133.5 -46t133 46t51 127v461h82v-462q0 -115 -74.5 -181t-191.5 -66zM530 769h-79l-98 91l-98 -91h-81v8l139 132h79l138 -133v-7z" />
    <glyph glyph-name="Udieresis" unicode="&#xdc;" horiz-adv-x="707" 
d="M355 -9q-117 0 -193 66t-76 181v462h84v-461q0 -81 51.5 -127t133.5 -46t133 46t51 127v461h82v-462q0 -115 -74.5 -181t-191.5 -66zM469 769q-21 0 -35 12.5t-14 32.5q0 21 14 33.5t35 12.5t35 -12.5t14 -33.5q0 -20 -14 -32.5t-35 -12.5zM234 769q-21 0 -35 12.5
t-14 32.5q0 21 14 33.5t35 12.5t35.5 -12.5t14.5 -33.5q0 -20 -14.5 -32.5t-35.5 -12.5z" />
    <glyph glyph-name="Yacute" unicode="&#xdd;" horiz-adv-x="628" 
d="M313 366h3l101 170l102 164h89v-12l-252 -401v-287h-84v287l-253 402v11h91l102 -163zM328 765h-66v7l75 132l72 -29v-7z" />
    <glyph glyph-name="Thorn" unicode="&#xde;" horiz-adv-x="652" 
d="M175 189h198q71 0 118 47t47 120q0 71 -46.5 118t-118.5 47h-198v-332zM93 0v700h84v-106h196q110 0 177.5 -68.5t67.5 -171.5q0 -102 -68 -170t-177 -68h-196v-116h-84z" />
    <glyph glyph-name="germandbls" unicode="&#xdf;" horiz-adv-x="588" 
d="M75 1v500q0 58 18 99.5t46 63.5t68.5 32.5t78 11t83 -6t75.5 -13.5t62 -17v-21l-145 -236q75 0 128.5 -57t53.5 -142q0 -132 -80.5 -189.5t-207.5 -23.5v66q93 -24 148.5 16.5t55.5 130.5q0 79 -62.5 120t-138.5 20v25l143 240q-71 21 -126 19t-88 -40t-33 -108v-490h-79
z" />
    <glyph glyph-name="agrave" unicode="&#xe0;" horiz-adv-x="544" 
d="M400 87q-25 -47 -77.5 -71t-112.5 -24q-71 0 -121 39.5t-52 109.5q-2 79 52.5 123t134.5 44q91 0 162 -40v59q0 55 -43.5 79t-104.5 24q-90 0 -150 -35l-13 60q74 38 175 38q92 0 152 -40t60 -128l-1 -201v-7v-16t0.5 -13.5t1.5 -11.5t3 -10t4.5 -8.5t7 -6t10 -3.5
t13 -1.5t16.5 1.5l1 -51q-63 -10 -90.5 8.5t-27.5 81.5zM385 163v46q-69 39 -148 39q-52 0 -88.5 -27.5t-34.5 -76.5q2 -43 33.5 -64t76.5 -21q56 0 103 27t58 77zM312 587h-60l-75 94v7l66 26l69 -121v-6z" />
    <glyph glyph-name="aacute" unicode="&#xe1;" horiz-adv-x="544" 
d="M400 87q-25 -47 -77.5 -71t-112.5 -24q-71 0 -121 39.5t-52 109.5q-2 79 52.5 123t134.5 44q91 0 162 -40v59q0 55 -43.5 79t-104.5 24q-90 0 -150 -35l-13 60q74 38 175 38q92 0 152 -40t60 -128l-1 -201v-7v-16t0.5 -13.5t1.5 -11.5t3 -10t4.5 -8.5t7 -6t10 -3.5
t13 -1.5t16.5 1.5l1 -51q-63 -10 -90.5 8.5t-27.5 81.5zM385 163v46q-69 39 -148 39q-52 0 -88.5 -27.5t-34.5 -76.5q2 -43 33.5 -64t76.5 -21q56 0 103 27t58 77zM273 587h-62v6l71 124l68 -27v-6z" />
    <glyph glyph-name="acircumflex" unicode="&#xe2;" horiz-adv-x="544" 
d="M400 87q-25 -47 -77.5 -71t-112.5 -24q-71 0 -121 39.5t-52 109.5q-2 79 52.5 123t134.5 44q91 0 162 -40v59q0 55 -43.5 79t-104.5 24q-90 0 -150 -35l-13 60q74 38 175 38q92 0 152 -40t60 -128l-1 -201v-7v-16t0.5 -13.5t1.5 -11.5t3 -10t4.5 -8.5t7 -6t10 -3.5
t13 -1.5t16.5 1.5l1 -51q-63 -10 -90.5 8.5t-27.5 81.5zM385 163v46q-69 39 -148 39q-52 0 -88.5 -27.5t-34.5 -76.5q2 -43 33.5 -64t76.5 -21q56 0 103 27t58 77zM413 579h-70l-86 87l-87 -87h-71v8l122 126h70l122 -127v-7z" />
    <glyph glyph-name="atilde" unicode="&#xe3;" horiz-adv-x="544" 
d="M400 87q-25 -47 -77.5 -71t-112.5 -24q-71 0 -121 39.5t-52 109.5q-2 79 52.5 123t134.5 44q91 0 162 -40v59q0 55 -43.5 79t-104.5 24q-90 0 -150 -35l-13 60q74 38 175 38q92 0 152 -40t60 -128l-1 -201v-7v-16t0.5 -13.5t1.5 -11.5t3 -10t4.5 -8.5t7 -6t10 -3.5
t13 -1.5t16.5 1.5l1 -51q-63 -10 -90.5 8.5t-27.5 81.5zM385 163v46q-69 39 -148 39q-52 0 -88.5 -27.5t-34.5 -76.5q2 -43 33.5 -64t76.5 -21q56 0 103 27t58 77zM150 607q-6 4 -20 11l-20 10q25 52 65 66t94 -15q63 -43 94 18l19.5 -10l21.5 -11q-22 -50 -63 -65.5
t-90 12.5q-29 21 -55.5 19t-45.5 -35z" />
    <glyph glyph-name="adieresis" unicode="&#xe4;" horiz-adv-x="544" 
d="M360 599q-21 0 -35 12.5t-14 32.5q0 21 14 33.5t35 12.5t35 -12.5t14 -33.5q0 -20 -14 -32.5t-35 -12.5zM157 599q-21 0 -35 12.5t-14 32.5q0 21 14 33.5t35 12.5t35.5 -12.5t14.5 -33.5q0 -20 -14.5 -32.5t-35.5 -12.5zM400 87q-25 -47 -77.5 -71t-112.5 -24
q-71 0 -121 39.5t-52 109.5q-2 79 52.5 123t134.5 44q91 0 162 -40v59q0 55 -43.5 79t-104.5 24q-90 0 -150 -35l-13 60q74 38 175 38q92 0 152 -40t60 -128l-1 -201v-7v-16t0.5 -13.5t1.5 -11.5t3 -10t4.5 -8.5t7 -6t10 -3.5t13 -1.5t16.5 1.5l1 -51q-63 -10 -90.5 8.5
t-27.5 81.5zM385 163v46q-69 39 -148 39q-52 0 -88.5 -27.5t-34.5 -76.5q2 -43 33.5 -64t76.5 -21q56 0 103 27t58 77z" />
    <glyph glyph-name="aring" unicode="&#xe5;" horiz-adv-x="544" 
d="M400 87q-25 -47 -77.5 -71t-112.5 -24q-71 0 -121 39.5t-52 109.5q-2 79 52.5 123t134.5 44q91 0 162 -40v59q0 55 -43.5 79t-104.5 24q-90 0 -150 -35l-13 60q74 38 175 38q92 0 152 -40t60 -128l-1 -201v-7v-16t0.5 -13.5t1.5 -11.5t3 -10t4.5 -8.5t7 -6t10 -3.5
t13 -1.5t16.5 1.5l1 -51q-63 -10 -90.5 8.5t-27.5 81.5zM385 163v46q-69 39 -148 39q-52 0 -88.5 -27.5t-34.5 -76.5q2 -43 33.5 -64t76.5 -21q56 0 103 27t58 77zM379 652q0 -44 -34 -69t-75 -25t-75 25t-34 69q0 35 22.5 58.5t54.5 29t64 0t54.5 -29t22.5 -58.5zM206 652
q0 -34 32 -48t63.5 0t31.5 48q0 33 -31.5 46.5t-63.5 0t-32 -46.5z" />
    <glyph glyph-name="ae" unicode="&#xe6;" horiz-adv-x="836" 
d="M204 -9q-68 0 -117 39.5t-49 106.5q-2 73 43 116t116 49q36 2 61 -2q68 -9 116 -35v57q0 56 -44 82t-104 26q-80 0 -139 -34l-13 55q73 40 163 40q70 0 121.5 -28t60.5 -87q22 55 68.5 85t108.5 30q113 0 162.5 -74t28.5 -185h-346q0 -84 43 -131.5t121 -48.5
q74 -4 154 33l13 -58q-91 -38 -167 -38q-137 2 -190 102q-71 -100 -211 -100zM375 202q-64 40 -144 40q-52 0 -85.5 -26t-31.5 -75q1 -43 30.5 -64.5t74.5 -22.5q53 0 100.5 26.5t64.5 72.5q-8 27 -9 49zM591 429q-62 1 -99.5 -35.5t-47.5 -101.5h281q3 63 -33.5 100
t-100.5 37z" />
    <glyph glyph-name="ccedilla" unicode="&#xe7;" horiz-adv-x="569" 
d="M261 -76l18 69q-95 7 -164.5 73t-69.5 177q0 71 31 126t79 84t106 37.5t111 -5.5t95.5 -53t58.5 -97h-77q-23 53 -77.5 75t-109 11t-96.5 -58.5t-42 -119.5q0 -59 28 -103t70.5 -61.5t87.5 -17t85 27.5t58 73h78q-19 -71 -72 -114.5t-122 -52.5l-12 -47q48 -2 70.5 -34
t10.5 -73q-13 -38 -51.5 -54.5t-82 -10t-74.5 29.5l4 48q30 -27 78.5 -30t63.5 32q11 34 -19.5 53t-63.5 15z" />
    <glyph glyph-name="egrave" unicode="&#xe8;" horiz-adv-x="554" 
d="M292 493q122 -1 178 -70.5t36 -189.5h-383q-4 -81 52 -130t140 -49q78 0 163 35l12 -59q-87 -41 -177 -41q-122 0 -197 72t-71 193q4 111 74 175t173 64zM292 431q-67 0 -111.5 -36.5t-54.5 -101.5h314q4 66 -38 102t-110 36zM336 591h-62l-76 96v7l68 27l70 -124v-6z
" />
    <glyph glyph-name="eacute" unicode="&#xe9;" horiz-adv-x="554" 
d="M292 493q122 -1 178 -70.5t36 -189.5h-383q-4 -81 52 -130t140 -49q78 0 163 35l12 -59q-87 -41 -177 -41q-122 0 -197 72t-71 193q4 111 74 175t173 64zM292 431q-67 0 -111.5 -36.5t-54.5 -101.5h314q4 66 -38 102t-110 36zM306 592h-62v7l70 122l67 -27v-6z" />
    <glyph glyph-name="ecircumflex" unicode="&#xea;" horiz-adv-x="554" 
d="M292 493q122 -1 178 -70.5t36 -189.5h-383q-4 -81 52 -130t140 -49q78 0 163 35l12 -59q-87 -41 -177 -41q-122 0 -197 72t-71 193q4 111 74 175t173 64zM292 431q-67 0 -111.5 -36.5t-54.5 -101.5h314q4 66 -38 102t-110 36zM455 578h-74l-90 85l-91 -85h-75v8l129 122
h73l128 -123v-7z" />
    <glyph glyph-name="edieresis" unicode="&#xeb;" horiz-adv-x="554" 
d="M389 608q-20 0 -33 12t-13 30q0 19 13 30.5t33 11.5q19 0 32 -12t13 -30t-13 -30t-32 -12zM183 608q-19 0 -32 12t-13 30t13 30t32 12q20 0 33.5 -11.5t13.5 -30.5q0 -18 -13.5 -30t-33.5 -12zM292 493q122 -1 178 -70.5t36 -189.5h-383q-4 -81 52 -130t140 -49
q78 0 163 35l12 -59q-87 -41 -177 -41q-122 0 -197 72t-71 193q4 111 74 175t173 64zM292 431q-67 0 -111.5 -36.5t-54.5 -101.5h314q4 66 -38 102t-110 36z" />
    <glyph glyph-name="igrave" unicode="&#xec;" horiz-adv-x="235" 
d="M157 481v-481h-79v481h79zM160 584h-64l-78 100v6l70 28l72 -127v-7z" />
    <glyph glyph-name="iacute" unicode="&#xed;" horiz-adv-x="235" 
d="M157 481v-481h-79v481h79zM139 585h-63v6l71 127l69 -28v-7z" />
    <glyph glyph-name="icircumflex" unicode="&#xee;" horiz-adv-x="235" 
d="M157 481v-481h-79v481h79zM266 567h-66l-83 94l-83 -94h-68v8l117 137h67l116 -138v-7z" />
    <glyph glyph-name="idieresis" unicode="&#xef;" horiz-adv-x="235" 
d="M203 618q-21 0 -35 12.5t-14 32.5q0 21 14 33.5t35 12.5t35 -12.5t14 -33.5q0 -20 -14 -32.5t-35 -12.5zM28 618q-21 0 -35 12.5t-14 32.5q0 21 14 33.5t35 12.5t35.5 -12.5t14.5 -33.5q0 -20 -14.5 -32.5t-35.5 -12.5zM157 481v-481h-79v481h79z" />
    <glyph glyph-name="eth" unicode="&#xf0;" horiz-adv-x="593" 
d="M46 235q0 110 72 172t172 64q42 0 86 -16.5t67 -44.5q-22 58 -109 156l-64 -44l-22 32l61 43q-53 61 -106 95v4h70q44 -28 82 -67l63 45l22 -32l-57 -42q74 -81 118.5 -176t44.5 -189q1 -52 -16 -95.5t-45.5 -72t-66 -48.5t-79 -25t-83.5 -1t-79.5 23.5t-67 48t-46.5 73
t-17 97.5zM473 235q0 47 -19 84t-50 56t-68.5 28t-74.5 0t-68 -28t-50 -56t-19 -84q0 -48 19 -86t50 -57.5t68 -28.5t74.5 0t68.5 28.5t50 57.5t19 86z" />
    <glyph glyph-name="ntilde" unicode="&#xf1;" 
d="M528 0h-79v286q0 64 -37.5 102.5t-97.5 38.5q-62 0 -103 -39t-41 -99v-289h-78v344q0 51 -9.5 66t-46.5 11l-1 62q20 3 29.5 4t28.5 1.5t28.5 -4t21.5 -12.5t17 -24t5 -38q54 82 170 82q92 0 142.5 -57t50.5 -149v-286zM193 610l-20 10t-20 11q25 53 65.5 67.5
t95.5 -15.5q28 -21 53 -18t43 36l40 -21q-22 -52 -63 -67.5t-92 13.5q-68 43 -102 -16z" />
    <glyph glyph-name="ograve" unicode="&#xf2;" 
d="M553 242q0 -80 -37.5 -138.5t-94 -85t-122.5 -26.5t-122.5 26.5t-94 85t-37.5 138.5q0 61 22 110t57.5 79t81 46.5t93.5 16.5t93.5 -16.5t81 -46.5t57.5 -79t22 -110zM124 242q0 -59 26 -102t65 -62.5t84.5 -19.5t84.5 19.5t65 62.5t26 102t-26 102t-65 62t-84.5 19
t-84.5 -19t-65 -62t-26 -102zM336 583h-61l-75 95v6l67 27l69 -122v-6z" />
    <glyph glyph-name="oacute" unicode="&#xf3;" 
d="M553 242q0 -80 -37.5 -138.5t-94 -85t-122.5 -26.5t-122.5 26.5t-94 85t-37.5 138.5q0 61 22 110t57.5 79t81 46.5t93.5 16.5t93.5 -16.5t81 -46.5t57.5 -79t22 -110zM124 242q0 -59 26 -102t65 -62.5t84.5 -19.5t84.5 19.5t65 62.5t26 102t-26 102t-65 62t-84.5 19
t-84.5 -19t-65 -62t-26 -102zM323 585h-62v7l70 122l67 -27v-6z" />
    <glyph glyph-name="ocircumflex" unicode="&#xf4;" 
d="M553 242q0 -80 -37.5 -138.5t-94 -85t-122.5 -26.5t-122.5 26.5t-94 85t-37.5 138.5q0 61 22 110t57.5 79t81 46.5t93.5 16.5t93.5 -16.5t81 -46.5t57.5 -79t22 -110zM124 242q0 -59 26 -102t65 -62.5t84.5 -19.5t84.5 19.5t65 62.5t26 102t-26 102t-65 62t-84.5 19
t-84.5 -19t-65 -62t-26 -102zM461 572h-72l-90 87l-90 -87h-74v8l127 126h73l126 -127v-7z" />
    <glyph glyph-name="otilde" unicode="&#xf5;" 
d="M553 242q0 -80 -37.5 -138.5t-94 -85t-122.5 -26.5t-122.5 26.5t-94 85t-37.5 138.5q0 61 22 110t57.5 79t81 46.5t93.5 16.5t93.5 -16.5t81 -46.5t57.5 -79t22 -110zM124 242q0 -59 26 -102t65 -62.5t84.5 -19.5t84.5 19.5t65 62.5t26 102t-26 102t-65 62t-84.5 19
t-84.5 -19t-65 -62t-26 -102zM189 609q-6 4 -20 11l-20 10q25 53 65.5 67.5t95.5 -15.5q28 -21 53 -18t43 36l40 -21q-22 -52 -63 -67.5t-92 13.5q-68 43 -102 -16z" />
    <glyph glyph-name="odieresis" unicode="&#xf6;" 
d="M395 608q-20 0 -33 12t-13 30q0 19 13 30.5t33 11.5q19 0 32 -12t13 -30t-13 -30t-32 -12zM196 608q-19 0 -32 12t-13 30t13 30t32 12q20 0 33.5 -11.5t13.5 -30.5q0 -18 -13.5 -30t-33.5 -12zM553 242q0 -80 -37.5 -138.5t-94 -85t-122.5 -26.5t-122.5 26.5t-94 85
t-37.5 138.5q0 61 22 110t57.5 79t81 46.5t93.5 16.5t93.5 -16.5t81 -46.5t57.5 -79t22 -110zM124 242q0 -59 26 -102t65 -62.5t84.5 -19.5t84.5 19.5t65 62.5t26 102t-26 102t-65 62t-84.5 19t-84.5 -19t-65 -62t-26 -102z" />
    <glyph glyph-name="divide" unicode="&#xf7;" horiz-adv-x="544" 
d="M271 150q-21 0 -35 12.5t-14 32.5q0 21 14 33.5t35 12.5t35.5 -13t14.5 -33t-14.5 -32.5t-35.5 -12.5zM271 477q-21 0 -35 12.5t-14 32.5q0 21 14 33.5t35 12.5t35.5 -13t14.5 -33t-14.5 -32.5t-35.5 -12.5zM77 324v69h390v-69h-390z" />
    <glyph glyph-name="oslash" unicode="&#xf8;" horiz-adv-x="597" 
d="M553 243q0 -59 -21 -107.5t-55.5 -77.5t-78.5 -47.5t-91 -17.5t-92 13l-31 -62h-64l43 85q-118 68 -118 214q0 60 21.5 109t57 78t81 46.5t93 15.5t92.5 -15l34 67h64l-46 -91q111 -69 111 -210zM120 243q0 -101 80 -147l161 318q-82 30 -161.5 -18t-79.5 -153zM477 243
q0 96 -73 142l-160 -316q38 -13 79 -5.5t75.5 26.5t56.5 59.5t22 93.5z" />
    <glyph glyph-name="ugrave" unicode="&#xf9;" horiz-adv-x="587" 
d="M417 482h78v-353q0 -53 10 -66.5t47 -9.5l1 -54q-65 -11 -99 3.5t-31 72.5q-46 -83 -172 -83q-92 0 -136.5 57t-44.5 152v281h79v-281q-1 -67 32.5 -106t92.5 -39q64 0 103.5 39.5t39.5 106.5v280zM331 587h-63l-77 98v7l69 27l71 -125v-7z" />
    <glyph glyph-name="uacute" unicode="&#xfa;" horiz-adv-x="587" 
d="M417 482h78v-353q0 -53 10 -66.5t47 -9.5l1 -54q-65 -11 -99 3.5t-31 72.5q-46 -83 -172 -83q-92 0 -136.5 57t-44.5 152v281h79v-281q-1 -67 32.5 -106t92.5 -39q64 0 103.5 39.5t39.5 106.5v280zM304 584h-62v6l71 124l68 -27v-6z" />
    <glyph glyph-name="ucircumflex" unicode="&#xfb;" horiz-adv-x="587" 
d="M417 482h78v-353q0 -53 10 -66.5t47 -9.5l1 -54q-65 -11 -99 3.5t-31 72.5q-46 -83 -172 -83q-92 0 -136.5 57t-44.5 152v281h79v-281q-1 -67 32.5 -106t92.5 -39q64 0 103.5 39.5t39.5 106.5v280zM455 578h-76l-93 87l-94 -87h-77v7l132 126h76l132 -127v-6z" />
    <glyph glyph-name="udieresis" unicode="&#xfc;" horiz-adv-x="587" 
d="M417 482h78v-353q0 -53 10 -66.5t47 -9.5l1 -54q-65 -11 -99 3.5t-31 72.5q-46 -83 -172 -83q-92 0 -136.5 57t-44.5 152v281h79v-281q-1 -67 32.5 -106t92.5 -39q64 0 103.5 39.5t39.5 106.5v280zM392 600q-21 0 -34.5 12t-13.5 32t13.5 32t34.5 12t34.5 -12t13.5 -32
t-13.5 -32t-34.5 -12zM163 600q-21 0 -34.5 12t-13.5 32t13.5 32t34.5 12t35 -12t14 -32t-14 -32t-35 -12z" />
    <glyph glyph-name="yacute" unicode="&#xfd;" horiz-adv-x="547" 
d="M518 473l-212 -507l-24 -55.5t-24.5 -50.5t-29.5 -47t-34 -33t-42.5 -22.5t-50.5 -1.5t-62 17l11 58q63 -29 98.5 -1.5t63.5 98.5l28 68l-221 477v8h83l96 -214l79 -191h1l73 189l88 216h79v-8zM295 579h-66v7l75 132l72 -29v-7z" />
    <glyph glyph-name="thorn" unicode="&#xfe;" horiz-adv-x="583" 
d="M537 245q0 -79 -34.5 -137.5t-88.5 -86t-123.5 -22.5t-136.5 46v-292h-78v966h78v-274q67 42 137 47t123.5 -22.5t88 -86.5t34.5 -138zM458 245q0 86 -48.5 134.5t-120 46t-136.5 -52.5v-256q65 -50 136.5 -52.5t120 46t48.5 134.5z" />
    <glyph glyph-name="ydieresis" unicode="&#xff;" horiz-adv-x="547" 
d="M518 473l-212 -507l-24 -55.5t-24.5 -50.5t-29.5 -47t-34 -33t-42.5 -22.5t-50.5 -1.5t-62 17l11 58q63 -29 98.5 -1.5t63.5 98.5l28 68l-221 477v8h83l96 -214l79 -191h1l73 189l88 216h79v-8zM394 602q-21 0 -35 12.5t-14 32.5q0 21 14 33.5t35 12.5t35 -12.5t14 -33.5
q0 -20 -14 -32.5t-35 -12.5zM159 602q-21 0 -35 12.5t-14 32.5q0 21 14 33.5t35 12.5t35.5 -12.5t14.5 -33.5q0 -20 -14.5 -32.5t-35.5 -12.5z" />
    <glyph glyph-name="Amacron" unicode="&#x100;" horiz-adv-x="706" 
d="M528 173h-350l-82 -173h-87v11l326 692h38l323 -692v-11h-86zM353 572l-147 -327h294zM199 770v61h297v-61h-297z" />
    <glyph glyph-name="amacron" unicode="&#x101;" horiz-adv-x="544" 
d="M400 87q-25 -47 -77.5 -71t-112.5 -24q-71 0 -121 39.5t-52 109.5q-2 79 52.5 123t134.5 44q91 0 162 -40v59q0 55 -43.5 79t-104.5 24q-90 0 -150 -35l-13 60q74 38 175 38q92 0 152 -40t60 -128l-1 -201v-7v-16t0.5 -13.5t1.5 -11.5t3 -10t4.5 -8.5t7 -6t10 -3.5
t13 -1.5t16.5 1.5l1 -51q-63 -10 -90.5 8.5t-27.5 81.5zM385 163v46q-69 39 -148 39q-52 0 -88.5 -27.5t-34.5 -76.5q2 -43 33.5 -64t76.5 -21q56 0 103 27t58 77zM112 612v61h297v-61h-297z" />
    <glyph glyph-name="Abreve" unicode="&#x102;" horiz-adv-x="706" 
d="M528 173h-350l-82 -173h-87v11l326 692h38l323 -692v-11h-86zM353 572l-147 -327h294zM181 897h68q6 -29 27.5 -48t49 -23.5t55.5 0t49.5 24t26.5 47.5h68q-6 -53 -41.5 -88.5t-83 -43.5t-95 0.5t-83 44t-41.5 87.5z" />
    <glyph glyph-name="abreve" unicode="&#x103;" horiz-adv-x="544" 
d="M400 87q-25 -47 -77.5 -71t-112.5 -24q-71 0 -121 39.5t-52 109.5q-2 79 52.5 123t134.5 44q91 0 162 -40v59q0 55 -43.5 79t-104.5 24q-90 0 -150 -35l-13 60q74 38 175 38q92 0 152 -40t60 -128l-1 -201v-7v-16t0.5 -13.5t1.5 -11.5t3 -10t4.5 -8.5t7 -6t10 -3.5
t13 -1.5t16.5 1.5l1 -51q-63 -10 -90.5 8.5t-27.5 81.5zM385 163v46q-69 39 -148 39q-52 0 -88.5 -27.5t-34.5 -76.5q2 -43 33.5 -64t76.5 -21q56 0 103 27t58 77zM102 717h62q10 -44 53 -62t85.5 -0.5t50.5 62.5h63q-6 -62 -54 -97t-103.5 -34.5t-103 35t-53.5 96.5z" />
    <glyph glyph-name="Aogonek" unicode="&#x104;" horiz-adv-x="706" 
d="M353 564l-147 -319h294zM528 173h-350l-82 -173h-87v11l326 692h38l323 -692v-11q-41 -12 -67 -40.5t-8 -67.5q12 -22 34 -27.5t42 0t42 18.5l9 -52q-31 -18 -67.5 -24.5t-71.5 6t-50 47.5q-33 75 50 142z" />
    <glyph glyph-name="aogonek" unicode="&#x105;" horiz-adv-x="543" 
d="M384 158v54q-69 39 -148 39q-51 0 -88 -29.5t-35 -77.5q2 -43 34 -66.5t76 -23.5q56 0 103 27t58 77zM399 87q-25 -47 -77.5 -71t-112.5 -24q-70 0 -120.5 39.5t-52.5 107.5q-2 79 52.5 122.5t134.5 43.5q91 0 162 -40v62q0 55 -44 80t-104 25q-90 0 -150 -35l-13 58
q74 38 175 38q92 0 152 -40t60 -128l-1 -204v-7v-16t0.5 -13.5t1.5 -11.5t3 -10t4.5 -8.5t7 -6t10 -3.5t13 -1.5t16.5 1.5l1 -47q-37 4 -64 -31t-9 -65q11 -18 31.5 -22t40 1.5t37.5 16.5l8 -46q-22 -12 -46.5 -18t-49.5 -5.5t-45.5 14t-30.5 39.5q-14 31 2 63.5t48 52.5
q-23 8 -30 28t-10 61z" />
    <glyph glyph-name="Cacute" unicode="&#x106;" horiz-adv-x="762" 
d="M50 350q0 161 101.5 260.5t252.5 97.5q107 0 194 -57t117 -162h-81q-32 70 -92 106t-138 36q-119 2 -194 -77.5t-75 -203.5q0 -120 74.5 -200.5t193.5 -80.5q82 0 145 40.5t90 114.5h81q-29 -113 -116.5 -172.5t-198.5 -59.5q-150 0 -252 98.5t-102 259.5zM428 773h-66v7
l75 132l72 -29v-7z" />
    <glyph glyph-name="cacute" unicode="&#x107;" horiz-adv-x="567" 
d="M524 335h-75q-23 53 -77.5 75t-109 11t-96.5 -58.5t-42 -119.5q0 -59 28 -103t70.5 -61.5t87.5 -17t85 27.5t58 73h76q-16 -61 -58.5 -102.5t-96 -57t-112 -7.5t-106.5 36.5t-79.5 84t-31.5 127.5q0 71 31 126t78 84t105 37.5t110.5 -5.5t95.5 -53t59 -97zM310 579h-64v7
l73 120l69 -26v-7z" />
    <glyph glyph-name="Ccircumflex" unicode="&#x108;" horiz-adv-x="762" 
d="M50 350q0 161 101.5 260.5t252.5 97.5q107 0 194 -57t117 -162h-81q-32 70 -92 106t-138 36q-119 2 -194 -77.5t-75 -203.5q0 -120 74.5 -200.5t193.5 -80.5q82 0 145 40.5t90 114.5h81q-29 -113 -116.5 -172.5t-198.5 -59.5q-150 0 -252 98.5t-102 259.5zM566 776h-79
l-98 91l-98 -91h-81v8l139 132h79l138 -133v-7z" />
    <glyph glyph-name="ccircumflex" unicode="&#x109;" horiz-adv-x="567" 
d="M524 335h-75q-23 53 -77.5 75t-109 11t-96.5 -58.5t-42 -119.5q0 -59 28 -103t70.5 -61.5t87.5 -17t85 27.5t58 73h76q-16 -61 -58.5 -102.5t-96 -57t-112 -7.5t-106.5 36.5t-79.5 84t-31.5 127.5q0 71 31 126t78 84t105 37.5t110.5 -5.5t95.5 -53t59 -97zM462 574h-72
l-90 87l-90 -87h-74v7l127 126h73l126 -127v-6z" />
    <glyph glyph-name="Cdotaccent" unicode="&#x10a;" horiz-adv-x="762" 
d="M50 350q0 161 101.5 260.5t252.5 97.5q107 0 194 -57t117 -162h-81q-32 70 -92 106t-138 36q-119 2 -194 -77.5t-75 -203.5q0 -120 74.5 -200.5t193.5 -80.5q82 0 145 40.5t90 114.5h81q-29 -113 -116.5 -172.5t-198.5 -59.5q-150 0 -252 98.5t-102 259.5zM403 774
q-21 0 -35.5 13t-14.5 33q0 22 14.5 35.5t35.5 13.5q22 0 37 -13.5t15 -35.5q0 -20 -15.5 -33t-36.5 -13z" />
    <glyph glyph-name="cdotaccent" unicode="&#x10b;" horiz-adv-x="567" 
d="M524 335h-75q-23 53 -77.5 75t-109 11t-96.5 -58.5t-42 -119.5q0 -59 28 -103t70.5 -61.5t87.5 -17t85 27.5t58 73h76q-16 -61 -58.5 -102.5t-96 -57t-112 -7.5t-106.5 36.5t-79.5 84t-31.5 127.5q0 71 31 126t78 84t105 37.5t110.5 -5.5t95.5 -53t59 -97zM296 596
q-19 0 -32 11t-13 29q0 19 13 30.5t32 11.5q20 0 33 -11t13 -31q0 -18 -13.5 -29t-32.5 -11z" />
    <glyph glyph-name="Ccaron" unicode="&#x10c;" horiz-adv-x="762" 
d="M50 350q0 161 101.5 260.5t252.5 97.5q107 0 194 -57t117 -162h-81q-32 70 -92 106t-138 36q-119 2 -194 -77.5t-75 -203.5q0 -120 74.5 -200.5t193.5 -80.5q82 0 145 40.5t90 114.5h81q-29 -113 -116.5 -172.5t-198.5 -59.5q-150 0 -252 98.5t-102 259.5zM216 914h77
l96 -91l97 91h79v-9l-136 -130h-78l-135 132v7z" />
    <glyph glyph-name="ccaron" unicode="&#x10d;" horiz-adv-x="567" 
d="M524 335h-75q-23 53 -77.5 75t-109 11t-96.5 -58.5t-42 -119.5q0 -59 28 -103t70.5 -61.5t87.5 -17t85 27.5t58 73h76q-16 -61 -58.5 -102.5t-96 -57t-112 -7.5t-106.5 36.5t-79.5 84t-31.5 127.5q0 71 31 126t78 84t105 37.5t110.5 -5.5t95.5 -53t59 -97zM126 709h76
l95 -88l94 88h79v-8l-135 -128h-76l-133 130v6z" />
    <glyph glyph-name="Dcaron" unicode="&#x10e;" horiz-adv-x="732" 
d="M93 700h248q156 0 248 -100t92 -249q0 -152 -92 -251.5t-248 -99.5h-248v700zM177 76h162q118 0 188.5 77t70.5 197q0 119 -70.5 196t-188.5 77h-162v-547zM141 899h75l94 -87l94 87h77v-8l-133 -126h-75l-132 128v6z" />
    <glyph glyph-name="dcaron" unicode="&#x10f;" horiz-adv-x="601" 
d="M441 81v22q-50 -110 -174 -112q-104 0 -163 72.5t-59 178.5q0 79 36 138t91 86t124 22t132 -47v291h78v-573q0 -8 -0.5 -19t-0.5 -17.5v-16t1 -14.5l2.5 -12.5t4.5 -10t7.5 -8t10.5 -5t14 -2t18 0.5l1 -57q-63 -10 -93 7t-30 76zM430 221v148q-66 50 -137.5 52t-120 -46
t-48.5 -133q0 -77 40 -129t114 -52q67 0 108.5 46t43.5 114zM662 684q-2 -10 -6 -24l-28 -88h-50l21 71q-35 12 -35 45q0 21 14 33.5t35 12.5q17 0 30 -9t17 -24q2 -5 2 -17z" />
    <glyph glyph-name="Dcroat" unicode="&#x110;" horiz-adv-x="734" 
d="M15 314v64h80v322h248q155 0 247.5 -101.5t92.5 -247.5q0 -148 -92.5 -249.5t-247.5 -101.5h-248v314h-80zM179 76h162q117 0 188 78.5t71 195.5q0 115 -71 194t-188 79h-162v-245h126v-64h-126v-238z" />
    <glyph glyph-name="dcroat" unicode="&#x111;" horiz-adv-x="599" 
d="M430 218v149q-66 50 -137.5 52t-120 -46t-48.5 -133q0 -77 40 -129t114 -52q67 0 108.5 45.5t43.5 113.5zM441 78v17q-21 -53 -67.5 -79.5t-106.5 -26.5q-104 0 -163 72.5t-59 178.5q0 78 36 137.5t91 86t124 21.5t132 -47v142h-104v51h104v99h78v-99h83v-51h-83v-433
q0 -8 -0.5 -20.5t-0.5 -19t0.5 -17t1.5 -15t3.5 -12.5t7 -10t10.5 -6.5t15 -3t20 0.5l1 -48q-123 -21 -123 82z" />
    <glyph glyph-name="Emacron" unicode="&#x112;" horiz-adv-x="569" 
d="M500 700v-73h-323v-229h312v-73h-312v-248h334v-77h-418v700h407zM151 777v61h297v-61h-297z" />
    <glyph glyph-name="emacron" unicode="&#x113;" horiz-adv-x="554" 
d="M292 493q122 -1 178 -70.5t36 -189.5h-383q-4 -81 52 -130t140 -49q78 0 163 35l12 -59q-87 -41 -177 -41q-122 0 -197 72t-71 193q4 111 74 175t173 64zM292 431q-67 0 -111.5 -36.5t-54.5 -101.5h314q4 66 -38 102t-110 36zM143 609v61h297v-61h-297z" />
    <glyph glyph-name="Ebreve" unicode="&#x114;" horiz-adv-x="569" 
d="M500 700v-73h-323v-229h312v-73h-312v-248h334v-77h-418v700h407zM121 905h67q10 -46 56 -64.5t92.5 0t55.5 64.5h67q-5 -52 -40.5 -87t-82.5 -43t-94 0.5t-81.5 43.5t-39.5 86z" />
    <glyph glyph-name="ebreve" unicode="&#x115;" horiz-adv-x="554" 
d="M292 493q122 -1 178 -70.5t36 -189.5h-383q-4 -81 52 -130t140 -49q78 0 163 35l12 -59q-87 -41 -177 -41q-122 0 -197 72t-71 193q4 111 74 175t173 64zM292 431q-67 0 -111.5 -36.5t-54.5 -101.5h314q4 66 -38 102t-110 36zM124 696h62q5 -26 24 -43.5t43.5 -21.5
t49.5 0.5t44.5 22t24.5 42.5h61q-7 -59 -54 -92t-100.5 -33t-100.5 33t-54 92z" />
    <glyph glyph-name="Edotaccent" unicode="&#x116;" horiz-adv-x="569" 
d="M500 700v-73h-323v-229h312v-73h-312v-248h334v-77h-418v700h407zM304 781q-21 0 -35 12.5t-14 32.5q0 21 14 34t35 13t35.5 -13t14.5 -34q0 -20 -14.5 -32.5t-35.5 -12.5z" />
    <glyph glyph-name="edotaccent" unicode="&#x117;" horiz-adv-x="554" 
d="M292 493q122 -1 178 -70.5t36 -189.5h-383q-4 -81 52 -130t140 -49q78 0 163 35l12 -59q-87 -41 -177 -41q-122 0 -197 72t-71 193q4 111 74 175t173 64zM292 431q-67 0 -111.5 -36.5t-54.5 -101.5h314q4 66 -38 102t-110 36zM295 599q-21 0 -34.5 11.5t-13.5 30.5
q0 20 13.5 31.5t34.5 11.5t35.5 -11.5t14.5 -31.5q0 -18 -14.5 -30t-35.5 -12z" />
    <glyph glyph-name="Eogonek" unicode="&#x118;" horiz-adv-x="558" 
d="M493 700v-74h-316v-228h300v-73h-300v-248h321v-77h-92q-34 -18 -49 -51.5t-1 -61.5q11 -23 36.5 -28.5t50 1t47.5 18.5l9 -52q-23 -14 -52.5 -21.5t-60 -7.5t-56 16.5t-35.5 48.5q-14 36 1.5 76t51.5 62h-255v700h400z" />
    <glyph glyph-name="eogonek" unicode="&#x119;" horiz-adv-x="554" 
d="M125 285h315q8 70 -35 108t-113 38q-69 0 -114 -39t-53 -107zM292 493q122 -1 178 -70.5t36 -189.5h-382q0 -85 53.5 -131.5t139.5 -46.5q81 0 161 34l12 -59q-31 -15 -68 -26q-28 -17 -43 -45.5t-2 -53.5q13 -21 36 -26.5t45.5 0.5t43.5 18l9 -50q-24 -12 -51 -18
t-54.5 -4.5t-50.5 17t-33 43.5q-24 56 33 109q-44 -5 -70 -2q-110 6 -177 77t-63 185q4 111 74 175t173 64z" />
    <glyph glyph-name="Ecaron" unicode="&#x11a;" horiz-adv-x="569" 
d="M500 700v-73h-323v-229h312v-73h-312v-248h334v-77h-418v700h407zM132 898h76l95 -88l94 88h79v-8l-135 -128h-76l-133 130v6z" />
    <glyph glyph-name="ecaron" unicode="&#x11b;" horiz-adv-x="554" 
d="M292 493q122 -1 178 -70.5t36 -189.5h-383q-4 -81 52 -130t140 -49q78 0 163 35l12 -59q-87 -41 -177 -41q-122 0 -197 72t-71 193q4 111 74 175t173 64zM292 431q-67 0 -111.5 -36.5t-54.5 -101.5h314q4 66 -38 102t-110 36zM116 702h74l91 -86l91 86h75v-8l-129 -125
h-74l-128 127v6z" />
    <glyph glyph-name="Gcircumflex" unicode="&#x11c;" horiz-adv-x="777" 
d="M50 351q0 160 100 259.5t249 99.5q110 0 196.5 -53t114.5 -157h-82q-49 134 -229 134q-120 0 -192.5 -80.5t-72.5 -202.5q0 -124 72.5 -203.5t192.5 -79.5q111 0 180.5 59t79.5 170h-249v71h326q5 -104 -27 -182q-38 -95 -120 -145.5t-190 -50.5q-151 0 -250 100t-99 261
zM579 783h-79l-98 91l-98 -91h-81v8l139 132h79l138 -133v-7z" />
    <glyph glyph-name="gcircumflex" unicode="&#x11d;" horiz-adv-x="576" 
d="M427 -40v76q-67 -43 -136.5 -49t-123 21t-87.5 87.5t-34 143.5q0 122 74 186t191 64q94 0 192 -44v-479q0 -90 -40.5 -147.5t-103.5 -74.5t-136.5 -6t-142.5 49l13 62q52 -28 108.5 -40.5t108 -6.5t84.5 46t33 112zM426 104v296q-60 23 -117 23q-80 0 -132.5 -47.5
t-52.5 -135.5q0 -89 47 -139.5t117 -48.5t138 52zM480 567h-74l-92 91l-92 -91h-75v8l130 132h74l129 -133v-7z" />
    <glyph glyph-name="Gbreve" unicode="&#x11e;" horiz-adv-x="777" 
d="M50 351q0 160 100 259.5t249 99.5q110 0 196.5 -53t114.5 -157h-82q-49 134 -229 134q-120 0 -192.5 -80.5t-72.5 -202.5q0 -124 72.5 -203.5t192.5 -79.5q111 0 180.5 59t79.5 170h-249v71h326q5 -104 -27 -182q-38 -95 -120 -145.5t-190 -50.5q-151 0 -250 100t-99 261
zM214 910h70q7 -36 39 -56.5t67.5 -20.5t67 20.5t38.5 56.5h70q-6 -54 -42 -90.5t-85 -45t-98 0.5t-85 45t-42 90z" />
    <glyph glyph-name="gbreve" unicode="&#x11f;" horiz-adv-x="576" 
d="M427 -40v76q-67 -43 -136.5 -49t-123 21t-87.5 87.5t-34 143.5q0 122 74 186t191 64q94 0 192 -44v-479q0 -90 -40.5 -147.5t-103.5 -74.5t-136.5 -6t-142.5 49l13 62q52 -28 108.5 -40.5t108 -6.5t84.5 46t33 112zM426 104v296q-60 23 -117 23q-80 0 -132.5 -47.5
t-52.5 -135.5q0 -89 47 -139.5t117 -48.5t138 52zM133 705h64q7 -33 36.5 -52t63 -19.5t62 18.5t34.5 53h65q-5 -51 -38.5 -85t-79 -42t-90.5 0.5t-78.5 42.5t-38.5 84z" />
    <glyph glyph-name="Gdotaccent" unicode="&#x120;" horiz-adv-x="777" 
d="M50 351q0 160 100 259.5t249 99.5q110 0 196.5 -53t114.5 -157h-82q-49 134 -229 134q-120 0 -192.5 -80.5t-72.5 -202.5q0 -124 72.5 -203.5t192.5 -79.5q111 0 180.5 59t79.5 170h-249v71h326q5 -104 -27 -182q-38 -95 -120 -145.5t-190 -50.5q-151 0 -250 100t-99 261
zM403 769q-21 0 -35.5 12.5t-14.5 30.5q0 21 14.5 33.5t35.5 12.5q22 0 37 -12.5t15 -33.5q0 -18 -15.5 -30.5t-36.5 -12.5z" />
    <glyph glyph-name="gdotaccent" unicode="&#x121;" horiz-adv-x="576" 
d="M427 -40v76q-67 -43 -136.5 -49t-123 21t-87.5 87.5t-34 143.5q0 122 74 186t191 64q94 0 192 -44v-479q0 -90 -40.5 -147.5t-103.5 -74.5t-136.5 -6t-142.5 49l13 62q52 -28 108.5 -40.5t108 -6.5t84.5 46t33 112zM426 104v296q-60 23 -117 23q-80 0 -132.5 -47.5
t-52.5 -135.5q0 -89 47 -139.5t117 -48.5t138 52zM298 603q-19 0 -32.5 12.5t-13.5 30.5q0 20 13 32t33 12t33.5 -12t13.5 -32q0 -18 -14 -30.5t-33 -12.5z" />
    <glyph glyph-name="Gcommaaccent" unicode="&#x122;" horiz-adv-x="777" 
d="M457 -142q-1 -10 -6 -24l-30 -95h-49l22 78q-35 12 -35 45q0 21 14 33.5t35 12.5q37 0 48 -34q2 -13 1 -16zM50 351q0 160 100 259.5t249 99.5q110 0 196.5 -53t114.5 -157h-82q-49 134 -229 134q-120 0 -192.5 -80.5t-72.5 -202.5q0 -124 72.5 -203.5t192.5 -79.5
q111 0 180.5 59t79.5 170h-249v71h326q5 -104 -27 -182q-38 -95 -120 -145.5t-190 -50.5q-151 0 -250 100t-99 261z" />
    <glyph glyph-name="gcommaaccent" unicode="&#x123;" horiz-adv-x="576" 
d="M427 -40v76q-67 -43 -136.5 -49t-123 21t-87.5 87.5t-34 143.5q0 122 74 186t191 64q94 0 192 -44v-479q0 -90 -40.5 -147.5t-103.5 -74.5t-136.5 -6t-142.5 49l13 62q52 -28 108.5 -40.5t108 -6.5t84.5 46t33 112zM426 104v296q-60 23 -117 23q-80 0 -132.5 -47.5
t-52.5 -135.5q0 -89 47 -139.5t117 -48.5t138 52zM274 620q2 18 4 22l27 81h49l-21 -66q35 -8 35 -41q0 -19 -13.5 -30.5t-34.5 -11.5q-17 0 -29.5 8.5t-15.5 21.5q-2 12 -1 16z" />
    <glyph glyph-name="Hcircumflex" unicode="&#x124;" horiz-adv-x="723" 
d="M630 0h-84v328h-370v-328h-83v700h83v-295h370v295h84v-700zM553 765h-79l-98 91l-98 -91h-81v8l139 132h79l138 -133v-7z" />
    <glyph glyph-name="hcircumflex" unicode="&#x125;" horiz-adv-x="584" 
d="M514 0h-80v284q1 69 -35 107t-99 38q-65 1 -105 -40t-40 -108v-281h-79v731h79v-312q32 40 70.5 57.5t94.5 17.5q96 -1 145 -57t49 -153v-284zM477 770h-76l-94 90l-95 -90h-78v8l134 131h76l133 -132v-7z" />
    <glyph glyph-name="Hbar" unicode="&#x126;" horiz-adv-x="733" 
d="M30 524v58h68v118h83v-118h370v118h84v-118h70v-58h-70v-524h-84v312h-370v-312h-83v524h-68zM181 389h370v135h-370v-135z" />
    <glyph glyph-name="hbar" unicode="&#x127;" horiz-adv-x="583" 
d="M513 0h-80v284q1 69 -35 107t-99 38q-64 0 -104.5 -41t-40.5 -107v-281h-78v580h-66v56h66v95h78v-95h94v-56h-94v-188q20 48 64 75t102 27q96 -1 144.5 -57t48.5 -153v-284z" />
    <glyph glyph-name="Itilde" unicode="&#x128;" horiz-adv-x="400" 
d="M242 67h121v-67h-326v67h121v567h-113v66h310v-66h-113v-567zM97 755l-43 22q27 56 70 71.5t101 -16.5q66 -45 101 19l20.5 -10.5l22.5 -11.5q-22 -55 -66 -71.5t-98 14.5q-72 45 -108 -17z" />
    <glyph glyph-name="itilde" unicode="&#x129;" horiz-adv-x="235" 
d="M157 481v-481h-79v481h79zM17 609q-7 3 -38 21q24 56 61.5 70.5t88.5 -16.5q59 -42 88 19q8 -4 20 -11.5t18 -10.5q-19 -53 -57.5 -69t-86.5 13q-63 46 -94 -16z" />
    <glyph glyph-name="Imacron" unicode="&#x12a;" horiz-adv-x="400" 
d="M242 67h121v-67h-326v67h121v567h-113v66h310v-66h-113v-567zM57 771v61h297v-61h-297z" />
    <glyph glyph-name="imacron" unicode="&#x12b;" horiz-adv-x="235" 
d="M157 481v-481h-79v481h79zM-17 613v62h247v-62h-247z" />
    <glyph glyph-name="Ibreve" unicode="&#x12c;" horiz-adv-x="400" 
d="M242 67h121v-67h-326v67h121v567h-113v66h310v-66h-113v-567zM35 890h66q8 -36 37.5 -55.5t63 -19.5t63.5 20t37 55h66q-6 -53 -40 -89t-80 -44.5t-92.5 0t-80.5 44.5t-40 89z" />
    <glyph glyph-name="ibreve" unicode="&#x12d;" horiz-adv-x="235" 
d="M157 481v-481h-79v481h79zM-39 700h57q6 -34 32 -52.5t55.5 -18t55.5 19t31 51.5h58q-5 -50 -34.5 -83.5t-69.5 -41.5t-80.5 0.5t-70 42t-34.5 82.5z" />
    <glyph glyph-name="Iogonek" unicode="&#x12e;" horiz-adv-x="402" 
d="M243 69h121v-69h-128q-29 -20 -44.5 -52t-0.5 -60q12 -24 38.5 -29t50 2t46.5 19l9 -54q-34 -20 -74 -26t-77.5 10t-52.5 57q-29 71 47 133h-140v69h121v563h-113v68h310v-68h-113v-563z" />
    <glyph glyph-name="iogonek" unicode="&#x12f;" horiz-adv-x="234" 
d="M69 641q0 30 24.5 42t48.5 0t24 -42t-24 -42.5t-48.5 0t-24.5 42.5zM156 478v-478h-26q-28 -20 -43 -52t0 -59q13 -24 38.5 -29t49 1.5t46.5 18.5l10 -53q-25 -14 -54.5 -21t-59 -5.5t-54.5 18.5t-36 48q-15 36 0.5 72t50.5 62v477h78z" />
    <glyph glyph-name="Idotaccent" unicode="&#x130;" horiz-adv-x="400" 
d="M242 67h121v-67h-326v67h121v567h-113v66h310v-66h-113v-567zM200 750q-22 0 -38 12.5t-16 32.5q0 21 16 34.5t38 13.5t38 -13.5t16 -34.5q0 -20 -16 -32.5t-38 -12.5z" />
    <glyph glyph-name="dotlessi" unicode="&#x131;" horiz-adv-x="235" 
d="M157 481v-481h-79v481h79z" />
    <glyph glyph-name="IJ" unicode="&#x132;" horiz-adv-x="1039" 
d="M242 67h121v-67h-326v67h121v567h-113v66h310v-66h-113v-567zM953 700v-465q0 -113 -74.5 -179t-188.5 -66q-113 0 -184.5 66.5t-71.5 178.5v73h79v-72q0 -81 48 -125.5t129 -44.5t130 45t49 125v390h-171v74h255z" />
    <glyph glyph-name="ij" unicode="&#x133;" horiz-adv-x="467" 
d="M67 641q0 31 24.5 44t49.5 0t25 -44q0 -24 -15.5 -37.5t-34 -13.5t-34 13.5t-15.5 37.5zM155 478v-478h-78v478h78zM311 480h78l-1 -537q0 -117 -47.5 -165t-153.5 -28l2 61q75 -13 98.5 19.5t23.5 113.5v536zM300 641q0 31 25 44t49.5 0t24.5 -44q0 -24 -15.5 -37.5
t-34 -13.5t-34 13.5t-15.5 37.5z" />
    <glyph glyph-name="Jcircumflex" unicode="&#x134;" horiz-adv-x="639" 
d="M553 700v-465q0 -113 -74.5 -179t-188.5 -66q-113 0 -184.5 66.5t-71.5 178.5v73h79v-72q0 -81 48 -125.5t129 -44.5t130 45t49 125v390h-171v74h255zM589 773h-74l-93 92l-92 -92h-76v8l131 133h74l130 -134v-7z" />
    <glyph glyph-name="jcircumflex" unicode="&#x135;" horiz-adv-x="234" 
d="M78 480h78l-1 -537q0 -117 -47.5 -165t-153.5 -28l2 61q75 -13 98.5 19.5t23.5 113.5v536zM263 561h-67l-83 97l-83 -97h-69v9l118 140h67l117 -142v-7z" />
    <glyph glyph-name="Kcommaaccent" unicode="&#x136;" horiz-adv-x="666" 
d="M408 -116q-2 -10 -6 -24l-30 -95h-49l22 78q-35 12 -35 45q0 21 14 33.5t35 12.5q37 0 48 -34q2 -13 1 -16zM176 700v-320q126 0 159 20q50 30 88 169q23 78 68 112.5t137 17.5v-56q-57 6 -85.5 -17t-45.5 -81q-41 -142 -94 -188l244 -345v-12h-95l-222 323
q-44 -13 -154 -13v-310h-83v700h83z" />
    <glyph glyph-name="kcommaaccent" unicode="&#x137;" horiz-adv-x="535" 
d="M342 -129q-2 -11 -6 -24l-30 -95h-49l22 78q-35 12 -35 45q0 21 14 33.5t35 12.5q37 0 48 -34q2 -13 1 -16zM155 283h64q99 0 144.5 48t45.5 152h75q0 -88 -31.5 -146.5t-107.5 -87.5l162 -240v-9h-81l-149 225q-27 -6 -59 -6h-63v-219h-79v731h79v-448z" />
    <glyph glyph-name="kgreenlandic" unicode="&#x138;" horiz-adv-x="532" 
d="M152 268h64q94 0 140.5 52t49.5 163h74q5 -192 -138 -247l162 -227v-9h-81l-149 212q-27 -6 -59 -6h-63v-206h-79v482h79v-214z" />
    <glyph glyph-name="Lacute" unicode="&#x139;" horiz-adv-x="523" 
d="M177 700v-625h330v-75h-414v700h84zM176 802h-66v7l75 132l72 -29v-7z" />
    <glyph glyph-name="lacute" unicode="&#x13a;" horiz-adv-x="275" 
d="M71 733h79v-559q0 -74 24 -98.5t97 -15.5l3 -62q-110 -18 -156.5 23t-46.5 153v559zM150 816h-61v7l69 122l67 -27v-7z" />
    <glyph glyph-name="Lcommaaccent" unicode="&#x13b;" horiz-adv-x="523" 
d="M360 -142q-2 -10 -6 -24l-30 -95h-49l22 78q-35 12 -35 45q0 21 14 33.5t35 12.5q37 0 48 -34q2 -13 1 -16zM177 700v-625h330v-75h-414v700h84z" />
    <glyph glyph-name="lcommaaccent" unicode="&#x13c;" horiz-adv-x="275" 
d="M232 -131q-2 -11 -6 -24l-30 -95h-49l22 78q-35 12 -35 45q0 21 14 33.5t35 12.5q37 0 48 -34q2 -13 1 -16zM71 733h79v-559q0 -74 24 -98.5t97 -15.5l3 -62q-110 -18 -156.5 23t-46.5 153v559z" />
    <glyph glyph-name="Lcaron" unicode="&#x13d;" horiz-adv-x="524" 
d="M177 700v-625h330v-75h-414v700h84zM442 649q-1 -9 -6 -23l-26 -84h-48l20 68q-33 12 -33 43q0 20 13 32t33 12q37 0 45 -32q2 -3 2 -16z" />
    <glyph glyph-name="lcaron" unicode="&#x13e;" horiz-adv-x="275" 
d="M71 733h79v-559q0 -74 24 -98.5t97 -15.5l3 -62q-110 -18 -156.5 23t-46.5 153v559zM316 679q-2 -16 -5 -23l-27 -83h-48l20 67q-33 12 -33 43q0 19 13.5 31t33.5 12q37 0 44 -31q2 -5 2 -16z" />
    <glyph glyph-name="Ldot" unicode="&#x13f;" horiz-adv-x="523" 
d="M177 700v-625h330v-75h-414v700h84zM359 331q-19 0 -33 13.5t-14 33.5q0 21 14 34.5t33 13.5q21 0 34.5 -13.5t13.5 -34.5t-13.5 -34t-34.5 -13z" />
    <glyph glyph-name="ldot" unicode="&#x140;" horiz-adv-x="333" 
d="M71 733h79v-559q0 -74 24 -98.5t97 -15.5l3 -62q-110 -18 -156.5 23t-46.5 153v559zM282 330q-19 0 -32.5 13t-13.5 33q0 21 13.5 34.5t32.5 13.5t32 -13.5t13 -34.5q0 -20 -13 -33t-32 -13z" />
    <glyph glyph-name="Lslash" unicode="&#x141;" horiz-adv-x="530" 
d="M184 700v-322l110 33v-69l-110 -33v-234h321v-75h-405v286l-76 -22v69l76 21v346h84z" />
    <glyph glyph-name="lslash" unicode="&#x142;" horiz-adv-x="292" 
d="M84 731h79v-353l96 29v-68l-96 -29v-134q0 -77 24.5 -106t96.5 -18l3 -62q-116 -17 -159.5 34t-43.5 182v82l-77 -23v69l77 22v375z" />
    <glyph glyph-name="Nacute" unicode="&#x143;" horiz-adv-x="746" 
d="M626 -1l-457 530l7 -192v-337h-83v702h29l456 -530l-9 201v328h84v-702h-27zM385 756h-66v7l75 132l72 -29v-7z" />
    <glyph glyph-name="nacute" unicode="&#x144;" 
d="M528 0h-79v286q0 64 -37.5 102.5t-97.5 38.5q-62 0 -103 -39t-41 -99v-289h-78v344q0 51 -9.5 66t-46.5 11l-1 62q20 3 29.5 4t28.5 1.5t28.5 -4t21.5 -12.5t17 -24t5 -38q54 82 170 82q92 0 142.5 -57t50.5 -149v-286zM315 584h-61v7l69 122l67 -27v-7z" />
    <glyph glyph-name="Ncommaaccent" unicode="&#x145;" horiz-adv-x="746" 
d="M444 -130q-2 -10 -6 -24l-30 -95h-49l22 78q-35 12 -35 45q0 21 14 33.5t35 12.5q37 0 48 -34q2 -13 1 -16zM626 -1l-457 530l7 -192v-337h-83v702h29l456 -530l-9 201v328h84v-702h-27z" />
    <glyph glyph-name="ncommaaccent" unicode="&#x146;" 
d="M372 -138q-2 -10 -6 -24l-30 -95h-49l22 78q-35 12 -35 45q0 21 14 33.5t35 12.5q37 0 48 -34q2 -13 1 -16zM528 0h-79v286q0 64 -37.5 102.5t-97.5 38.5q-62 0 -103 -39t-41 -99v-289h-78v344q0 51 -9.5 66t-46.5 11l-1 62q20 3 29.5 4t28.5 1.5t28.5 -4t21.5 -12.5
t17 -24t5 -38q54 82 170 82q92 0 142.5 -57t50.5 -149v-286z" />
    <glyph glyph-name="Ncaron" unicode="&#x147;" horiz-adv-x="746" 
d="M626 -1l-457 530l7 -192v-337h-83v702h29l456 -530l-9 201v328h84v-702h-27zM188 891h79l98 -92l98 92h81v-9l-139 -132h-79l-138 134v7z" />
    <glyph glyph-name="ncaron" unicode="&#x148;" 
d="M528 0h-79v286q0 64 -37.5 102.5t-97.5 38.5q-62 0 -103 -39t-41 -99v-289h-78v344q0 51 -9.5 66t-46.5 11l-1 62q20 3 29.5 4t28.5 1.5t28.5 -4t21.5 -12.5t17 -24t5 -38q54 82 170 82q92 0 142.5 -57t50.5 -149v-286zM120 719h79l98 -92l98 92h81v-9l-139 -132h-79
l-138 134v7z" />
    <glyph glyph-name="napostrophe" unicode="&#x149;" 
d="M528 0h-79v286q0 64 -37.5 102.5t-97.5 38.5q-62 0 -103 -39t-41 -99v-289h-78v344q0 51 -9.5 66t-46.5 11l-1 62q20 3 29.5 4t28.5 1.5t28.5 -4t21.5 -12.5t17 -24t5 -38q54 82 170 82q92 0 142.5 -57t50.5 -149v-286z" />
    <glyph glyph-name="Eng" unicode="&#x14a;" horiz-adv-x="746" 
d="M458 -187l3 59q74 -13 97.5 19.5t23.5 112.5v41l-406 496v-541h-83v702h29l447 -534v533h84v-698q0 -114 -45 -162t-150 -28z" />
    <glyph glyph-name="eng" unicode="&#x14b;" horiz-adv-x="594" 
d="M524 286v-293q0 -114 -48 -162.5t-154 -28.5l3 56q74 -13 97.5 21.5t23.5 114.5v292q0 64 -37.5 102.5t-97.5 38.5q-63 0 -103.5 -39.5t-40.5 -105.5v-282h-78v345q0 65 -5 76q-8 19 -51 16l-2 47q134 22 134 -71v-20q21 47 66.5 73t100.5 26q91 0 141.5 -57.5
t50.5 -148.5z" />
    <glyph glyph-name="Omacron" unicode="&#x14c;" horiz-adv-x="810" 
d="M760 350q0 -159 -99 -260t-257 -101q-152 0 -253 99t-101 262q0 164 102 263t253 99t253 -99.5t102 -262.5zM134 350q0 -126 77 -205t193 -79q117 0 194.5 79t77.5 205t-77 206t-194 80q-116 0 -193.5 -79.5t-77.5 -206.5zM253 793v61h297v-61h-297z" />
    <glyph glyph-name="omacron" unicode="&#x14d;" 
d="M553 242q0 -80 -37.5 -138.5t-94 -85t-122.5 -26.5t-122.5 26.5t-94 85t-37.5 138.5q0 61 22 110t57.5 79t81 46.5t93.5 16.5t93.5 -16.5t81 -46.5t57.5 -79t22 -110zM124 242q0 -59 26 -102t65 -62.5t84.5 -19.5t84.5 19.5t65 62.5t26 102t-26 102t-65 62t-84.5 19
t-84.5 -19t-65 -62t-26 -102zM148 598v61h297v-61h-297z" />
    <glyph glyph-name="Obreve" unicode="&#x14e;" horiz-adv-x="810" 
d="M760 350q0 -159 -99 -260t-257 -101q-152 0 -253 99t-101 262q0 164 102 263t253 99t253 -99.5t102 -262.5zM134 350q0 -126 77 -205t193 -79q117 0 194.5 79t77.5 205t-77 206t-194 80q-116 0 -193.5 -79.5t-77.5 -206.5zM218 910h70q7 -36 39 -56.5t67.5 -20.5t67 20.5
t38.5 56.5h70q-6 -54 -42 -90.5t-85 -45t-98 0.5t-85 45t-42 90z" />
    <glyph glyph-name="obreve" unicode="&#x14f;" 
d="M553 242q0 -80 -37.5 -138.5t-94 -85t-122.5 -26.5t-122.5 26.5t-94 85t-37.5 138.5q0 61 22 110t57.5 79t81 46.5t93.5 16.5t93.5 -16.5t81 -46.5t57.5 -79t22 -110zM124 242q0 -59 26 -102t65 -62.5t84.5 -19.5t84.5 19.5t65 62.5t26 102t-26 102t-65 62t-84.5 19
t-84.5 -19t-65 -62t-26 -102zM132 708h66q6 -28 26.5 -46t47 -22.5t53 0t47 23t26.5 45.5h66q-5 -43 -30.5 -74t-60.5 -45t-75 -13.5t-75 14.5t-60.5 45t-30.5 73z" />
    <glyph glyph-name="Ohungarumlaut" unicode="&#x150;" horiz-adv-x="810" 
d="M271 769v7l59 127l72 -18v-7l-67 -109h-64zM455 769v7l59 121l71 -21v-8l-66 -99h-64zM760 350q0 -159 -99 -260t-257 -101q-152 0 -253 99t-101 262q0 164 102 263t253 99t253 -99.5t102 -262.5zM134 350q0 -126 77 -205t193 -79q117 0 194.5 79t77.5 205t-77 206
t-194 80q-116 0 -193.5 -79.5t-77.5 -206.5z" />
    <glyph glyph-name="ohungarumlaut" unicode="&#x151;" 
d="M177 578v7l59 127l72 -18v-7l-67 -109h-64zM361 578v7l59 121l71 -21v-8l-66 -99h-64zM553 242q0 -80 -37.5 -138.5t-94 -85t-122.5 -26.5t-122.5 26.5t-94 85t-37.5 138.5q0 61 22 110t57.5 79t81 46.5t93.5 16.5t93.5 -16.5t81 -46.5t57.5 -79t22 -110zM124 242
q0 -59 26 -102t65 -62.5t84.5 -19.5t84.5 19.5t65 62.5t26 102t-26 102t-65 62t-84.5 19t-84.5 -19t-65 -62t-26 -102z" />
    <glyph glyph-name="OE" unicode="&#x152;" horiz-adv-x="928" 
d="M869 1h-357q-58 -14 -109 -14q-157 0 -254.5 98t-97.5 264q0 168 99.5 264.5t259.5 96.5q56 0 106 -11h348v-70h-292v-230h276v-68h-276v-260h297v-70zM132 349q0 -133 75.5 -214.5t202.5 -81.5q47 0 90 13v564q-41 9 -89 11q-128 0 -203.5 -79.5t-75.5 -212.5z" />
    <glyph glyph-name="oe" unicode="&#x153;" horiz-adv-x="902" 
d="M45 240q0 68 25.5 121.5t65.5 82.5t90 40t97 0.5t88 -44t62 -85.5q22 64 72 100t119 36q75 0 123 -36t63.5 -94.5t2.5 -129.5h-340q-1 -82 40.5 -128.5t119.5 -48.5q69 -4 151 34l13 -60q-90 -39 -165 -38q-156 5 -199 140q-18 -53 -58 -88t-87 -46t-97.5 -1t-91.5 39
t-67.5 83t-26.5 123zM121 240q0 -58 23.5 -100t58.5 -61t76.5 -19t76.5 19t58.5 61t23.5 100t-23.5 100t-58.5 61t-76.5 19t-76.5 -19t-58.5 -61t-23.5 -100zM658 428q-61 0 -97 -36t-46 -101h273q4 63 -31.5 100t-98.5 37z" />
    <glyph glyph-name="Racute" unicode="&#x154;" horiz-adv-x="672" 
d="M444 268l198 -256v-12h-88l-194 257h-183v-257h-84v701h279q106 0 172.5 -64t66.5 -161q0 -79 -46 -134.5t-121 -73.5zM176 326h196q68 0 113 42t45 109t-44.5 108.5t-113.5 41.5h-196v-301zM332 769h-66v7l75 132l72 -29v-7z" />
    <glyph glyph-name="racute" unicode="&#x155;" horiz-adv-x="433" 
d="M163 418q37 80 146 80q63 0 113 -36l-19 -66q-50 32 -102 32q-54 0 -93.5 -36.5t-39.5 -91.5v-300h-77v369q0 20 -1 30t-6.5 20.5t-17.5 14t-33 1.5l-1 52q62 11 95.5 -3t35.5 -66zM229 585h-63v6l71 127l69 -28v-7z" />
    <glyph glyph-name="Rcommaaccent" unicode="&#x156;" horiz-adv-x="672" 
d="M404 -131q-2 -11 -6 -24l-30 -95h-49l22 78q-35 12 -35 45q0 21 14 33.5t35 12.5q37 0 48 -34q2 -13 1 -16zM444 268l198 -256v-12h-88l-194 257h-183v-257h-84v701h279q106 0 172.5 -64t66.5 -161q0 -79 -46 -134.5t-121 -73.5zM176 326h196q68 0 113 42t45 109
t-44.5 108.5t-113.5 41.5h-196v-301z" />
    <glyph glyph-name="rcommaaccent" unicode="&#x157;" horiz-adv-x="433" 
d="M185 -142q-1 -10 -6 -24l-30 -95h-49l22 78q-35 12 -35 45q0 21 14 33.5t35 12.5q37 0 48 -34q2 -13 1 -16zM163 418q37 80 146 80q63 0 113 -36l-19 -66q-50 32 -102 32q-54 0 -93.5 -36.5t-39.5 -91.5v-300h-77v369q0 20 -1 30t-6.5 20.5t-17.5 14t-33 1.5l-1 52
q62 11 95.5 -3t35.5 -66z" />
    <glyph glyph-name="Rcaron" unicode="&#x158;" horiz-adv-x="672" 
d="M444 268l198 -256v-12h-88l-194 257h-183v-257h-84v701h279q106 0 172.5 -64t66.5 -161q0 -79 -46 -134.5t-121 -73.5zM176 326h196q68 0 113 42t45 109t-44.5 108.5t-113.5 41.5h-196v-301zM133 906h79l98 -92l98 92h81v-9l-139 -132h-79l-138 134v7z" />
    <glyph glyph-name="rcaron" unicode="&#x159;" horiz-adv-x="433" 
d="M163 418q37 80 146 80q63 0 113 -36l-19 -66q-50 32 -102 32q-54 0 -93.5 -36.5t-39.5 -91.5v-300h-77v369q0 20 -1 30t-6.5 20.5t-17.5 14t-33 1.5l-1 52q62 11 95.5 -3t35.5 -66zM54 710h74l91 -87l92 87h76v-8l-130 -125h-74l-129 127v6z" />
    <glyph glyph-name="Sacute" unicode="&#x15a;" horiz-adv-x="646" 
d="M47 191h81q2 -44 35 -75t75 -43t89 -12q48 2 87 13t70.5 42t32.5 79q0 18 -3 33.5t-11.5 27t-16 20t-23 15t-24 10.5t-29.5 8t-30 5.5t-33 4.5t-31 4q-54 6 -94.5 15.5t-79.5 29.5t-60 55.5t-21 85.5q0 66 38.5 113.5t95 68.5t120.5 21q47 1 91.5 -10t82.5 -33.5t62 -61
t26 -87.5h-78q-4 42 -33.5 69.5t-67 37.5t-81.5 10q-69 -3 -121 -33.5t-52 -93.5q0 -15 3.5 -28t7.5 -23t14 -18.5t15.5 -14t21 -11t22 -8t25.5 -5.5t24.5 -4t27 -4t25.5 -3q50 -6 82.5 -12t71.5 -19.5t61.5 -33t38 -53t15.5 -78.5q0 -71 -42.5 -119t-101 -67t-127.5 -21
q-50 -1 -98 10.5t-89 35.5t-66.5 64.5t-27.5 92.5zM341 774h-66v7l75 132l72 -29v-7z" />
    <glyph glyph-name="sacute" unicode="&#x15b;" horiz-adv-x="509" 
d="M40 136h76q3 -43 43.5 -64t94.5 -21t94 22.5t42 64.5q0 38 -30 53.5t-105 26.5q-34 4 -58 8.5t-53 14t-47 22.5t-30.5 35t-13.5 51q-2 70 57.5 106.5t142.5 36.5q82 0 142 -36t58 -102h-75q0 37 -36.5 56.5t-88.5 19.5t-90 -20t-36 -59q1 -33 31 -47t104 -25
q34 -4 51.5 -7t46 -9.5t44 -16t32.5 -24t24 -35.5t6 -49q0 -70 -61 -109t-151 -41q-88 0 -148 35.5t-66 112.5zM277 582h-63v6l71 126l69 -28v-6z" />
    <glyph glyph-name="Scircumflex" unicode="&#x15c;" horiz-adv-x="646" 
d="M47 191h81q2 -44 35 -75t75 -43t89 -12q48 2 87 13t70.5 42t32.5 79q0 18 -3 33.5t-11.5 27t-16 20t-23 15t-24 10.5t-29.5 8t-30 5.5t-33 4.5t-31 4q-54 6 -94.5 15.5t-79.5 29.5t-60 55.5t-21 85.5q0 66 38.5 113.5t95 68.5t120.5 21q47 1 91.5 -10t82.5 -33.5t62 -61
t26 -87.5h-78q-4 42 -33.5 69.5t-67 37.5t-81.5 10q-69 -3 -121 -33.5t-52 -93.5q0 -15 3.5 -28t7.5 -23t14 -18.5t15.5 -14t21 -11t22 -8t25.5 -5.5t24.5 -4t27 -4t25.5 -3q50 -6 82.5 -12t71.5 -19.5t61.5 -33t38 -53t15.5 -78.5q0 -71 -42.5 -119t-101 -67t-127.5 -21
q-50 -1 -98 10.5t-89 35.5t-66.5 64.5t-27.5 92.5zM498 768h-79l-98 91l-98 -91h-81v8l139 132h79l138 -133v-7z" />
    <glyph glyph-name="scircumflex" unicode="&#x15d;" horiz-adv-x="509" 
d="M40 136h76q3 -43 43.5 -64t94.5 -21t94 22.5t42 64.5q0 38 -30 53.5t-105 26.5q-34 4 -58 8.5t-53 14t-47 22.5t-30.5 35t-13.5 51q-2 70 57.5 106.5t142.5 36.5q82 0 142 -36t58 -102h-75q0 37 -36.5 56.5t-88.5 19.5t-90 -20t-36 -59q1 -33 31 -47t104 -25
q34 -4 51.5 -7t46 -9.5t44 -16t32.5 -24t24 -35.5t6 -49q0 -70 -61 -109t-151 -41q-88 0 -148 35.5t-66 112.5zM414 580h-70l-88 85l-88 -85h-73v7l125 124h71l123 -124v-7z" />
    <glyph glyph-name="Scedilla" unicode="&#x15e;" horiz-adv-x="646" 
d="M47 191h81q2 -44 35 -75t75 -43t89 -12q73 3 130.5 37t59.5 97q0 81 -90 108q-28 9 -111 20q-54 6 -94.5 15.5t-79.5 29.5t-60 55.5t-21 85.5q0 66 38.5 113.5t95 68.5t120.5 21q63 2 120.5 -17.5t99 -66t43.5 -111.5h-78q-6 61 -60 90.5t-123 29.5q-69 -3 -121 -33.5
t-52 -93.5q0 -28 12.5 -48.5t27.5 -31.5t45 -20t47.5 -11.5l53.5 -7.5q50 -6 82.5 -12t71.5 -19.5t61.5 -33t38 -53t15.5 -78.5q0 -88 -69.5 -141t-163.5 -62l-16 -66q49 -2 72.5 -31t9.5 -73q-11 -39 -50 -55.5t-82.5 -9.5t-74.5 30l4 47q27 -24 79 -24t58 34
q11 33 -16.5 49t-63.5 13l21 83q-65 3 -121 23.5t-96.5 67t-42.5 111.5z" />
    <glyph glyph-name="scedilla" unicode="&#x15f;" horiz-adv-x="511" 
d="M42 136h76q3 -43 43.5 -64t94.5 -21t94 22.5t42 64.5q0 38 -30 53.5t-105 26.5q-34 4 -58 8.5t-53 14t-47 22.5t-30.5 35t-13.5 51q-2 70 57.5 106.5t142.5 36.5q82 0 142 -36t58 -102h-75q0 37 -36.5 56.5t-88.5 19.5t-90 -20t-36 -59q1 -33 31 -47t104 -25
q34 -4 51.5 -7t46 -9.5t44 -16t32.5 -24t24 -35.5t6 -49q0 -62 -50.5 -100.5t-126.5 -47.5l-10 -45q44 -2 65.5 -28.5t9.5 -66.5q-11 -35 -46.5 -50.5t-75 -9.5t-68.5 28l4 43q26 -23 72.5 -24t56.5 28q11 31 -17 48t-60 14l13 62q-81 4 -134 39t-59 108z" />
    <glyph glyph-name="Scaron" unicode="&#x160;" horiz-adv-x="646" 
d="M47 191h81q2 -44 35 -75t75 -43t89 -12q48 2 87 13t70.5 42t32.5 79q0 18 -3 33.5t-11.5 27t-16 20t-23 15t-24 10.5t-29.5 8t-30 5.5t-33 4.5t-31 4q-54 6 -94.5 15.5t-79.5 29.5t-60 55.5t-21 85.5q0 66 38.5 113.5t95 68.5t120.5 21q47 1 91.5 -10t82.5 -33.5t62 -61
t26 -87.5h-78q-4 42 -33.5 69.5t-67 37.5t-81.5 10q-69 -3 -121 -33.5t-52 -93.5q0 -15 3.5 -28t7.5 -23t14 -18.5t15.5 -14t21 -11t22 -8t25.5 -5.5t24.5 -4t27 -4t25.5 -3q50 -6 82.5 -12t71.5 -19.5t61.5 -33t38 -53t15.5 -78.5q0 -71 -42.5 -119t-101 -67t-127.5 -21
q-50 -1 -98 10.5t-89 35.5t-66.5 64.5t-27.5 92.5zM148 928h79l98 -92l98 92h81v-9l-139 -132h-79l-138 134v7z" />
    <glyph glyph-name="scaron" unicode="&#x161;" horiz-adv-x="509" 
d="M40 136h76q3 -43 43.5 -64t94.5 -21t94 22.5t42 64.5q0 38 -30 53.5t-105 26.5q-34 4 -58 8.5t-53 14t-47 22.5t-30.5 35t-13.5 51q-2 70 57.5 106.5t142.5 36.5q82 0 142 -36t58 -102h-75q0 37 -36.5 56.5t-88.5 19.5t-90 -20t-36 -59q1 -33 31 -47t104 -25
q34 -4 51.5 -7t46 -9.5t44 -16t32.5 -24t24 -35.5t6 -49q0 -70 -61 -109t-151 -41q-88 0 -148 35.5t-66 112.5zM95 690h72l88 -83l89 83h74v-8l-126 -119h-72l-125 120v7z" />
    <glyph glyph-name="Tcommaaccent" unicode="&#x162;" horiz-adv-x="529" 
d="M224 625h-206v75h493v-75h-206v-625h-11l-15 -62q49 -2 72 -31t9 -73q-12 -39 -51 -55.5t-82 -9.5t-75 30l4 47q26 -26 76.5 -26t61.5 36q11 33 -17.5 49t-63.5 13l21 82h-10v625z" />
    <glyph glyph-name="tcommaaccent" unicode="&#x163;" horiz-adv-x="421" 
d="M205 630v-150h177v-57h-177v-231q0 -94 52.5 -125t139.5 3l9 -62q-57 -20 -114 -18l-13 -52q49 -2 72 -31t9 -73q-12 -39 -51 -55.5t-82 -9.5t-75 30l4 47q26 -26 76.5 -26t61.5 36q11 33 -17.5 49t-63.5 13l21 79q-107 29 -107 193v233l-103 5v52h103l8 150h70z" />
    <glyph glyph-name="Tcaron" unicode="&#x164;" horiz-adv-x="549" 
d="M234 625h-216v75h513v-75h-216v-625h-81v625zM94 908h79l98 -92l98 92h81v-9l-139 -132h-79l-138 134v7z" />
    <glyph glyph-name="tcaron" unicode="&#x165;" horiz-adv-x="409" 
d="M204 630v-150h127v-57h-127v-236q0 -90 52.5 -119.5t139.5 4.5l9 -63q-84 -25 -146 -18.5t-97.5 56t-35.5 138.5v238l-103 5v52h108l8 150h65zM420 588q0 -9 -5 -22l-26 -79h-47l19 63q-33 9 -33 42q0 20 12.5 31.5t33.5 11.5q37 0 45 -31q1 -7 1 -16z" />
    <glyph glyph-name="Tbar" unicode="&#x166;" horiz-adv-x="549" 
d="M117 282v64h117v279h-206v75h493v-75h-206v-279h114v-64h-114v-282h-81v282h-117z" />
    <glyph glyph-name="tbar" unicode="&#x167;" horiz-adv-x="425" 
d="M208 630v-150h177v-57h-177v-151h112v-57h-112v-31q0 -92 52.5 -120t139.5 6l9 -62q-84 -25 -146 -19t-97.5 55t-35.5 138v33h-87v57h87v151q-36 3 -103 5v52h103l8 150h70z" />
    <glyph glyph-name="Utilde" unicode="&#x168;" horiz-adv-x="707" 
d="M355 -9q-117 0 -193 66t-76 181v462h84v-461q0 -81 51.5 -127t133.5 -46t133 46t51 127v461h82v-462q0 -115 -74.5 -181t-191.5 -66zM246 770l-43 22q27 56 70 71.5t101 -16.5q66 -45 101 19l20.5 -10.5l22.5 -11.5q-22 -55 -66 -71.5t-98 14.5q-72 45 -108 -17z" />
    <glyph glyph-name="utilde" unicode="&#x169;" horiz-adv-x="587" 
d="M417 482h78v-353q0 -53 10 -66.5t47 -9.5l1 -54q-65 -11 -99 3.5t-31 72.5q-46 -83 -172 -83q-92 0 -136.5 57t-44.5 152v281h79v-281q-1 -67 32.5 -106t92.5 -39q64 0 103.5 39.5t39.5 106.5v280zM164 613l-42 21q25 55 68 69.5t98 -16.5q66 -42 98 19q7 -3 20.5 -10.5
t21.5 -11.5q-22 -52 -64.5 -68t-94.5 13q-70 46 -105 -16z" />
    <glyph glyph-name="Umacron" unicode="&#x16a;" horiz-adv-x="707" 
d="M355 -9q-117 0 -193 66t-76 181v462h84v-461q0 -81 51.5 -127t133.5 -46t133 46t51 127v461h82v-462q0 -115 -74.5 -181t-191.5 -66zM205 784v61h297v-61h-297z" />
    <glyph glyph-name="umacron" unicode="&#x16b;" horiz-adv-x="587" 
d="M417 482h78v-353q0 -53 10 -66.5t47 -9.5l1 -54q-65 -11 -99 3.5t-31 72.5q-46 -83 -172 -83q-92 0 -136.5 57t-44.5 152v281h79v-281q-1 -67 32.5 -106t92.5 -39q64 0 103.5 39.5t39.5 106.5v280zM144 606v61h297v-61h-297z" />
    <glyph glyph-name="Ubreve" unicode="&#x16c;" horiz-adv-x="707" 
d="M355 -9q-117 0 -193 66t-76 181v462h84v-461q0 -81 51.5 -127t133.5 -46t133 46t51 127v461h82v-462q0 -115 -74.5 -181t-191.5 -66zM178 888h70q7 -36 39 -56.5t67.5 -20.5t67 20.5t38.5 56.5h70q-6 -54 -42 -90.5t-85 -45t-98 0.5t-85 45t-42 90z" />
    <glyph glyph-name="ubreve" unicode="&#x16d;" horiz-adv-x="587" 
d="M417 482h78v-353q0 -53 10 -66.5t47 -9.5l1 -54q-65 -11 -99 3.5t-31 72.5q-46 -83 -172 -83q-92 0 -136.5 57t-44.5 152v281h79v-281q-1 -67 32.5 -106t92.5 -39q64 0 103.5 39.5t39.5 106.5v280zM114 704h65q10 -45 54.5 -63t89 0t54.5 63h65q-6 -51 -39.5 -85t-79 -42
t-91 0.5t-79 42.5t-39.5 84z" />
    <glyph glyph-name="Uring" unicode="&#x16e;" horiz-adv-x="707" 
d="M355 -9q-117 0 -193 66t-76 181v462h84v-461q0 -81 51.5 -127t133.5 -46t133 46t51 127v461h82v-462q0 -115 -74.5 -181t-191.5 -66zM466 828q0 -49 -35 -77t-77.5 -28t-77.5 28t-35 77t35 77t77.5 28t77.5 -28t35 -77zM288 828q0 -28 20.5 -44.5t45 -16.5t45 16.5
t20.5 44.5t-20.5 44.5t-45 16.5t-45 -16.5t-20.5 -44.5z" />
    <glyph glyph-name="uring" unicode="&#x16f;" horiz-adv-x="587" 
d="M417 482h78v-353q0 -53 10 -66.5t47 -9.5l1 -54q-65 -11 -99 3.5t-31 72.5q-46 -83 -172 -83q-92 0 -136.5 57t-44.5 152v281h79v-281q-1 -67 32.5 -106t92.5 -39q64 0 103.5 39.5t39.5 106.5v280zM385 637q0 -45 -34 -71t-75.5 -26t-75.5 26t-34 71q0 46 34 72t75.5 26
t75.5 -26t34 -72zM212 637q0 -26 20 -41t43.5 -15t43.5 15t20 41q0 35 -31.5 50t-63.5 0t-32 -50z" />
    <glyph glyph-name="Uhungarumlaut" unicode="&#x170;" horiz-adv-x="707" 
d="M355 -9q-117 0 -193 66t-76 181v462h84v-461q0 -81 51.5 -127t133.5 -46t133 46t51 127v461h82v-462q0 -115 -74.5 -181t-191.5 -66zM222 794v7l59 127l72 -18v-7l-67 -109h-64zM406 794v7l59 121l71 -21v-8l-66 -99h-64z" />
    <glyph glyph-name="uhungarumlaut" unicode="&#x171;" horiz-adv-x="587" 
d="M417 482h78v-353q0 -53 10 -66.5t47 -9.5l1 -54q-65 -11 -99 3.5t-31 72.5q-46 -83 -172 -83q-92 0 -136.5 57t-44.5 152v281h79v-281q-1 -67 32.5 -106t92.5 -39q64 0 103.5 39.5t39.5 106.5v280zM165 589v7l56 120l68 -17v-7l-63 -103h-61zM339 589v7l56 114l67 -19v-8
l-63 -94h-60z" />
    <glyph glyph-name="Uogonek" unicode="&#x172;" horiz-adv-x="708" 
d="M355 -9q-117 0 -193 66t-76 181v462h84v-461q0 -80 51 -126.5t134 -46.5q82 0 133 46t51 127v461h82v-462q0 -82 -38 -139t-105 -85q-27 -20 -39.5 -49t0.5 -58q13 -24 38.5 -29t49 1.5t46.5 18.5l10 -53q-25 -14 -54.5 -21.5t-59.5 -6.5t-55 17t-36 47q-27 58 25 115
q-28 -5 -48 -5z" />
    <glyph glyph-name="uogonek" unicode="&#x173;" horiz-adv-x="585" 
d="M417 482h78v-316q0 -11 -0.5 -30.5t-0.5 -28.5t1.5 -23t5 -20t9.5 -12.5t16.5 -8t25.5 0.5l1 -47q-43 -7 -66 -4q-25 -18 -37.5 -47.5t0.5 -54.5q13 -21 36 -26.5t44.5 0.5t43.5 19l9 -50q-33 -18 -69.5 -24t-71 8.5t-48.5 53.5q-15 35 2 70t50 60q-27 18 -27 70v25
q-21 -52 -65.5 -78.5t-102.5 -26.5q-101 0 -141 63t-40 174v253h79v-253q0 -82 27.5 -127.5t97.5 -45.5q64 0 103.5 39.5t39.5 106.5v280z" />
    <glyph glyph-name="Wcircumflex" unicode="&#x174;" horiz-adv-x="965" 
d="M462 687h41l183 -544h2l76 299l80 258h87v-11l-215 -693h-58l-175 514h-1l-173 -514h-58l-218 691v13h89l80 -259l80 -298h1zM655 765h-79l-98 91l-98 -91h-81v8l139 132h79l138 -133v-7z" />
    <glyph glyph-name="wcircumflex" unicode="&#x175;" horiz-adv-x="758" 
d="M249 -4h-35l-188 477v9h84l71 -190l51 -156h2l129 334h31l131 -334h1l52 156l70 190h85v-9l-190 -477h-36l-127 324zM543 580h-75l-93 86l-93 -86h-77v7l132 125h75l131 -126v-6z" />
    <glyph glyph-name="Ycircumflex" unicode="&#x176;" horiz-adv-x="628" 
d="M313 366h3l101 170l102 164h89v-12l-252 -401v-287h-84v287l-253 402v11h91l102 -163zM488 765h-79l-98 91l-98 -91h-81v8l139 132h79l138 -133v-7z" />
    <glyph glyph-name="ycircumflex" unicode="&#x177;" horiz-adv-x="547" 
d="M518 473l-212 -507l-24 -55.5t-24.5 -50.5t-29.5 -47t-34 -33t-42.5 -22.5t-50.5 -1.5t-62 17l11 58q63 -29 98.5 -1.5t63.5 98.5l28 68l-221 477v8h83l96 -214l79 -191h1l73 189l88 216h79v-8zM448 577h-79l-98 91l-98 -91h-81v8l139 132h79l138 -133v-7z" />
    <glyph glyph-name="Ydieresis" unicode="&#x178;" horiz-adv-x="628" 
d="M313 366h3l101 170l102 164h89v-12l-252 -401v-287h-84v287l-253 402v11h91l102 -163zM430 752q-21 0 -35 12.5t-14 32.5q0 21 14 33.5t35 12.5t35 -12.5t14 -33.5q0 -20 -14 -32.5t-35 -12.5zM195 752q-21 0 -35 12.5t-14 32.5q0 21 14 33.5t35 12.5t35.5 -12.5
t14.5 -33.5q0 -20 -14.5 -32.5t-35.5 -12.5z" />
    <glyph glyph-name="Zacute" unicode="&#x179;" horiz-adv-x="584" 
d="M548 700v-13l-396 -611h397v-76h-528v11l396 615h-369v74h500zM313 776h-66v7l75 132l72 -29v-7z" />
    <glyph glyph-name="zacute" unicode="&#x17a;" horiz-adv-x="461" 
d="M424 482v-11l-269 -402h267v-69h-392v10l273 404h-258v68h379zM251 576h-62v6l71 124l68 -27v-6z" />
    <glyph glyph-name="Zdotaccent" unicode="&#x17b;" horiz-adv-x="584" 
d="M548 700v-13l-396 -611h397v-76h-528v11l396 615h-369v74h500zM298 775q-21 0 -35 12.5t-14 32.5q0 21 14 34t35 13t35.5 -13t14.5 -34q0 -20 -14.5 -32.5t-35.5 -12.5z" />
    <glyph glyph-name="zdotaccent" unicode="&#x17c;" horiz-adv-x="461" 
d="M424 482v-11l-269 -402h267v-69h-392v10l273 404h-258v68h379zM237 584q-19 0 -32.5 12.5t-13.5 30.5q0 20 13.5 32.5t32.5 12.5q20 0 34 -12.5t14 -32.5q0 -18 -14.5 -30.5t-33.5 -12.5z" />
    <glyph glyph-name="Zcaron" unicode="&#x17d;" horiz-adv-x="584" 
d="M548 700v-13l-396 -611h397v-76h-528v11l396 615h-369v74h500zM117 923h79l98 -92l98 92h81v-9l-139 -132h-79l-138 134v7z" />
    <glyph glyph-name="zcaron" unicode="&#x17e;" horiz-adv-x="461" 
d="M424 482v-11l-269 -402h267v-69h-392v10l273 404h-258v68h379zM83 697h67l84 -79l83 79h69v-8l-118 -113h-68l-117 115v6z" />
    <glyph glyph-name="longs" unicode="&#x17f;" horiz-adv-x="312" 
d="M127 0v424h-103v58h104v70q0 65 22 108.5t60.5 60.5t87 14.5t103.5 -23.5l-11 -59q-50 18 -91 19t-67.5 -30.5t-26.5 -91.5v-550h-78z" />
    <glyph glyph-name="florin" unicode="&#x192;" horiz-adv-x="547" 
d="M309 310v-348q0 -64 -22.5 -106.5t-61 -59t-86.5 -13.5t-101 24l9 60q48 -20 89 -22t68 28.5t27 90.5v346h-161v58h161v165q0 83 40.5 130.5t103 50.5t137.5 -25l-10 -60q-51 23 -93.5 23.5t-71 -29t-28.5 -89.5v-166h170v-58h-170z" />
    <glyph glyph-name="Aringacute" unicode="&#x1fa;" horiz-adv-x="706" 
d="M288 735q0 -33 33 -46.5t66 0t33 46.5t-33 46t-66 0t-33 -46zM357 557h-8l-143 -312h294zM528 173h-350l-82 -173h-87v11l301 640q-69 21 -69 84q0 43 35.5 67.5t77.5 24.5t77.5 -24.5t35.5 -67.5q0 -64 -70 -84l299 -640v-11h-86zM382 858h-64v6l74 95l69 -22v-6z" />
    <glyph glyph-name="aringacute" unicode="&#x1fb;" horiz-adv-x="544" 
d="M400 87q-25 -47 -77.5 -71t-112.5 -24q-71 0 -121 39.5t-52 109.5q-2 79 52.5 123t134.5 44q91 0 162 -40v59q0 55 -43.5 79t-104.5 24q-90 0 -150 -35l-13 60q74 38 175 38q92 0 152 -40t60 -128l-1 -201v-7v-16t0.5 -13.5t1.5 -11.5t3 -10t4.5 -8.5t7 -6t10 -3.5
t13 -1.5t16.5 1.5l1 -51q-63 -10 -90.5 8.5t-27.5 81.5zM385 163v46q-69 39 -148 39q-52 0 -88.5 -27.5t-34.5 -76.5q2 -43 33.5 -64t76.5 -21q56 0 103 27t58 77zM378 634q0 -44 -35.5 -69.5t-78.5 -25.5t-78.5 25.5t-35.5 69.5t35.5 69t78.5 25t78.5 -25t35.5 -69z
M198 634q0 -34 33 -48t66.5 0t33.5 48t-33.5 48t-66.5 0t-33 -48zM297 775h-71v6l81 102l78 -23v-5z" />
    <glyph glyph-name="AEacute" unicode="&#x1fc;" horiz-adv-x="825" 
d="M191 200l-102 -200h-81v12l356 686h397v-74h-285v-226h269v-71h-269v-254h290v-73h-363v200h-212zM405 623l-186 -353h184l3 353h-1zM511 768h-66v7l75 132l72 -29v-7z" />
    <glyph glyph-name="aeacute" unicode="&#x1fd;" horiz-adv-x="836" 
d="M204 -9q-68 0 -117 39.5t-49 106.5q-2 73 43 116t116 49q36 2 61 -2q68 -9 116 -35v57q0 56 -44 82t-104 26q-80 0 -139 -34l-13 55q73 40 163 40q70 0 121.5 -28t60.5 -87q22 55 68.5 85t108.5 30q113 0 162.5 -74t28.5 -185h-346q0 -84 43 -131.5t121 -48.5
q74 -4 154 33l13 -58q-91 -38 -167 -38q-137 2 -190 102q-71 -100 -211 -100zM375 202q-64 40 -144 40q-52 0 -85.5 -26t-31.5 -75q1 -43 30.5 -64.5t74.5 -22.5q53 0 100.5 26.5t64.5 72.5q-8 27 -9 49zM591 429q-62 1 -99.5 -35.5t-47.5 -101.5h281q3 63 -33.5 100
t-100.5 37zM451 579h-63v6l71 126l69 -28v-6z" />
    <glyph glyph-name="Oslashacute" unicode="&#x1fe;" horiz-adv-x="808" 
d="M621 638q137 -100 137 -289q0 -162 -102 -261t-252 -99q-78 0 -148 32l-44 -73h-81v8l61 101q-141 99 -141 292q0 163 101 262t252 99q85 0 156 -35l42 74h81v-8zM295 94q51 -25 110 -25q116 0 192.5 77.5t76.5 202.5q0 144 -100 216zM520 603q-55 26 -116 26
q-116 0 -193 -77.5t-77 -202.5q0 -148 105 -221zM436 792h-66v7l75 132l72 -29v-7z" />
    <glyph glyph-name="oslashacute" unicode="&#x1ff;" horiz-adv-x="597" 
d="M553 243q0 -59 -21 -107.5t-55.5 -77.5t-78.5 -47.5t-91 -17.5t-92 13l-31 -62h-64l43 85q-118 68 -118 214q0 60 21.5 109t57 78t81 46.5t93 15.5t92.5 -15l34 67h64l-46 -91q111 -69 111 -210zM120 243q0 -101 80 -147l161 318q-82 30 -161.5 -18t-79.5 -153zM477 243
q0 96 -73 142l-160 -316q38 -13 79 -5.5t75.5 26.5t56.5 59.5t22 93.5zM325 585h-62v6l71 125l68 -27v-7z" />
    <glyph glyph-name="Scommaaccent" unicode="&#x218;" horiz-adv-x="646" 
d="M379 -142q-1 -10 -6 -24l-30 -95h-49l22 78q-35 12 -35 45q0 21 14 33.5t35 12.5q37 0 48 -34q2 -13 1 -16zM47 191h81q2 -44 35 -75t75 -43t89 -12q48 2 87 13t70.5 42t32.5 79q0 18 -3 33.5t-11.5 27t-16 20t-23 15t-24 10.5t-29.5 8t-30 5.5t-33 4.5t-31 4
q-54 6 -94.5 15.5t-79.5 29.5t-60 55.5t-21 85.5q0 66 38.5 113.5t95 68.5t120.5 21q47 1 91.5 -10t82.5 -33.5t62 -61t26 -87.5h-78q-4 42 -33.5 69.5t-67 37.5t-81.5 10q-69 -3 -121 -33.5t-52 -93.5q0 -15 3.5 -28t7.5 -23t14 -18.5t15.5 -14t21 -11t22 -8t25.5 -5.5
t24.5 -4t27 -4t25.5 -3q50 -6 82.5 -12t71.5 -19.5t61.5 -33t38 -53t15.5 -78.5q0 -71 -42.5 -119t-101 -67t-127.5 -21q-50 -1 -98 10.5t-89 35.5t-66.5 64.5t-27.5 92.5z" />
    <glyph glyph-name="scommaaccent" unicode="&#x219;" horiz-adv-x="509" 
d="M311 -142q-1 -10 -6 -24l-30 -95h-49l22 78q-35 12 -35 45q0 21 14 33.5t35 12.5q37 0 48 -34q2 -13 1 -16zM40 136h76q3 -43 43.5 -64t94.5 -21t94 22.5t42 64.5q0 38 -30 53.5t-105 26.5q-34 4 -58 8.5t-53 14t-47 22.5t-30.5 35t-13.5 51q-2 70 57.5 106.5t142.5 36.5
q82 0 142 -36t58 -102h-75q0 37 -36.5 56.5t-88.5 19.5t-90 -20t-36 -59q1 -33 31 -47t104 -25q34 -4 51.5 -7t46 -9.5t44 -16t32.5 -24t24 -35.5t6 -49q0 -70 -61 -109t-151 -41q-88 0 -148 35.5t-66 112.5z" />
    <glyph glyph-name="uni021A" unicode="&#x21a;" horiz-adv-x="549" 
d="M329 -142q-1 -10 -6 -24l-30 -95h-49l22 78q-35 12 -35 45q0 21 14 33.5t35 12.5q37 0 48 -34q2 -13 1 -16zM234 625h-216v75h513v-75h-216v-625h-81v625z" />
    <glyph glyph-name="uni021B" unicode="&#x21b;" horiz-adv-x="421" 
d="M314 -142q-2 -10 -6 -24l-30 -95h-49l22 78q-35 12 -35 45q0 21 14 33.5t35 12.5q37 0 48 -34q2 -13 1 -16zM204 630v-150h177v-57h-177v-236q0 -90 52.5 -119.5t139.5 4.5l9 -63q-84 -25 -146 -18.5t-97.5 56t-35.5 138.5v238l-103 5v52h108l8 150h65z" />
    <glyph glyph-name="circumflex" unicode="&#x2c6;" horiz-adv-x="494" 
d="M426 563h-79l-98 91l-98 -91h-81v8l139 132h79l138 -133v-7z" />
    <glyph glyph-name="caron" unicode="&#x2c7;" horiz-adv-x="531" 
d="M86 702h79l98 -92l98 92h81v-9l-139 -132h-79l-138 134v7z" />
    <glyph glyph-name="breve" unicode="&#x2d8;" horiz-adv-x="529" 
d="M86 703h70q7 -36 39 -56.5t67.5 -20.5t67 20.5t38.5 56.5h70q-6 -54 -42 -90.5t-85 -45t-98 0.5t-85 45t-42 90z" />
    <glyph glyph-name="dotaccent" unicode="&#x2d9;" horiz-adv-x="321" 
d="M146 614q-21 0 -35 12.5t-14 32.5q0 21 14 34t35 13t35.5 -13t14.5 -34q0 -20 -14.5 -32.5t-35.5 -12.5z" />
    <glyph glyph-name="ring" unicode="&#x2da;" horiz-adv-x="379" 
d="M300 614q0 -49 -35 -77t-77.5 -28t-77.5 28t-35 77t35 77t77.5 28t77.5 -28t35 -77zM122 614q0 -28 20.5 -44.5t45 -16.5t45 16.5t20.5 44.5t-20.5 44.5t-45 16.5t-45 -16.5t-20.5 -44.5z" />
    <glyph glyph-name="ogonek" unicode="&#x2db;" horiz-adv-x="364" 
d="M145 7h60q-33 -17 -51.5 -53t-2.5 -65q12 -24 38.5 -29t49.5 2t46 19l10 -53q-25 -14 -54.5 -21t-59 -5.5t-54.5 18.5t-36 48q-15 38 1 76t53 63z" />
    <glyph glyph-name="tilde" unicode="&#x2dc;" horiz-adv-x="420" 
d="M104 612l-43 22q27 56 70 71.5t101 -16.5q66 -45 101 19l20.5 -10.5l22.5 -11.5q-22 -55 -66 -71.5t-98 14.5q-72 45 -108 -17z" />
    <glyph glyph-name="hungarumlaut" unicode="&#x2dd;" horiz-adv-x="518" 
d="M104 568v7l59 127l72 -18v-7l-67 -109h-64zM288 568v7l59 121l71 -21v-8l-66 -99h-64z" />
    <glyph glyph-name="afii10023" unicode="&#x401;" horiz-adv-x="569" 
d="M500 700v-73h-323v-229h312v-73h-312v-248h334v-77h-418v700h407zM416 766q-21 0 -35 12.5t-14 32.5q0 21 14 33.5t35 12.5t35 -12.5t14 -33.5q0 -20 -14 -32.5t-35 -12.5zM181 766q-21 0 -35 12.5t-14 32.5q0 21 14 33.5t35 12.5t35.5 -12.5t14.5 -33.5
q0 -20 -14.5 -32.5t-35.5 -12.5z" />
    <glyph glyph-name="afii10051" unicode="&#x402;" horiz-adv-x="742" 
d="M695 115q0 -117 -47 -162.5t-155 -26.5l3 60q75 -13 98 17.5t23 112.5v153q0 67 -42 104.5t-110 38.5q-67 0 -115.5 -42t-50.5 -104v-266h-81v627h-200v73h516v-73h-235v-237q23 45 74 67.5t114 22.5q97 0 152.5 -58t55.5 -153v-154z" />
    <glyph glyph-name="afii10052" unicode="&#x403;" horiz-adv-x="516" 
d="M501 626h-325v-626h-83v700h408v-74zM321 769h-65v7l94 147l71 -27v-7z" />
    <glyph glyph-name="afii10053" unicode="&#x404;" horiz-adv-x="760" 
d="M402 633q-112 1 -187.5 -68t-82.5 -179h311v-75h-310q8 -109 83.5 -176.5t187.5 -67.5q81 0 145 40.5t90 114.5h82q-29 -112 -117.5 -171.5t-199.5 -59.5q-151 0 -252.5 99t-101.5 260t100.5 261t251.5 99q107 -2 194 -59t118 -162h-81q-63 144 -231 144z" />
    <glyph glyph-name="afii10054" unicode="&#x405;" horiz-adv-x="646" 
d="M47 191h81q2 -44 35 -75t75 -43t89 -12q48 2 87 13t70.5 42t32.5 79q0 18 -3 33.5t-11.5 27t-16 20t-23 15t-24 10.5t-29.5 8t-30 5.5t-33 4.5t-31 4q-54 6 -94.5 15.5t-79.5 29.5t-60 55.5t-21 85.5q0 66 38.5 113.5t95 68.5t120.5 21q47 1 91.5 -10t82.5 -33.5t62 -61
t26 -87.5h-78q-4 42 -33.5 69.5t-67 37.5t-81.5 10q-69 -3 -121 -33.5t-52 -93.5q0 -15 3.5 -28t7.5 -23t14 -18.5t15.5 -14t21 -11t22 -8t25.5 -5.5t24.5 -4t27 -4t25.5 -3q50 -6 82.5 -12t71.5 -19.5t61.5 -33t38 -53t15.5 -78.5q0 -71 -42.5 -119t-101 -67t-127.5 -21
q-50 -1 -98 10.5t-89 35.5t-66.5 64.5t-27.5 92.5z" />
    <glyph glyph-name="afii10055" unicode="&#x406;" horiz-adv-x="400" 
d="M242 67h121v-67h-326v67h121v567h-113v66h310v-66h-113v-567z" />
    <glyph glyph-name="afii10056" unicode="&#x407;" horiz-adv-x="400" 
d="M242 67h121v-67h-326v67h121v567h-113v66h310v-66h-113v-567zM322 758q-21 0 -35 12.5t-14 32.5q0 21 14 33.5t35 12.5t35 -12.5t14 -33.5q0 -20 -14 -32.5t-35 -12.5zM87 758q-21 0 -35 12.5t-14 32.5q0 21 14 33.5t35 12.5t35.5 -12.5t14.5 -33.5q0 -20 -14.5 -32.5
t-35.5 -12.5z" />
    <glyph glyph-name="afii10057" unicode="&#x408;" horiz-adv-x="639" 
d="M553 700v-465q0 -113 -74.5 -179t-188.5 -66q-113 0 -184.5 66.5t-71.5 178.5v73h79v-72q0 -81 48 -125.5t129 -44.5t130 45t49 125v390h-171v74h255z" />
    <glyph glyph-name="afii10058" unicode="&#x409;" horiz-adv-x="989" 
d="M564 386v-312h139q80 0 127.5 42t47.5 114q0 78 -47.5 117t-127.5 39h-139zM564 460h152q110 0 176 -65.5t66 -164.5q0 -101 -69 -165.5t-174 -64.5h-230v625h-207l-41 -400q-4 -35 -8 -59.5t-10 -50t-14 -42.5t-19.5 -33t-26.5 -24.5t-35.5 -14t-46.5 -5t-58 5.5l1 62
q84 -13 110 42q12 27 24 122v2l52 470h358v-240z" />
    <glyph glyph-name="afii10059" unicode="&#x40a;" horiz-adv-x="992" 
d="M565 700v-264h152q111 0 177.5 -56.5t66.5 -152.5q0 -104 -67 -165.5t-178 -61.5h-233v354h-307v-354h-83v700h83v-269h307v269h82zM716 361h-151v-287h151q75 1 120.5 42.5t42.5 110.5q-1 64 -46.5 99t-116.5 35z" />
    <glyph glyph-name="afii10060" unicode="&#x40b;" horiz-adv-x="746" 
d="M695 0h-78v269q0 67 -42 105t-110 39q-66 0 -115 -44t-51 -107v-262h-81v628h-200v72h516v-72h-235v-239q50 92 188 92q97 -1 152.5 -59t55.5 -153v-269z" />
    <glyph glyph-name="afii10061" unicode="&#x40c;" horiz-adv-x="666" 
d="M354 769h-66v7l95 147l71 -27v-7zM176 700v-320q126 0 159 20q50 30 88 169q23 78 68 112.5t137 17.5v-56q-57 6 -85.5 -17t-45.5 -81q-41 -142 -94 -188l244 -345v-12h-95l-222 323q-44 -13 -154 -13v-310h-83v700h83z" />
    <glyph glyph-name="afii10062" unicode="&#x40e;" horiz-adv-x="611" 
d="M159 887l55 6q6 -35 30 -55t62 -21q37 0 63.5 20t33.5 56q8 0 52 -6q-7 -63 -44 -99.5t-104 -36.5q-63 0 -102 36.5t-46 99.5zM222 139l44 87l-261 464v10h93l211 -389h3l190 389h90v-8l-287 -568q-22 -46 -39.5 -71.5t-45.5 -44.5t-67 -18t-94 20l12 66q99 -49 151 63z
" />
    <glyph glyph-name="afii10145" unicode="&#x40f;" horiz-adv-x="723" 
d="M325 -142v142h-232v700h84v-623h370v623h83v-700h-225v-142h-80z" />
    <glyph glyph-name="afii10017" unicode="&#x410;" horiz-adv-x="706" 
d="M528 173h-350l-82 -173h-87v11l326 692h38l323 -692v-11h-86zM353 572l-147 -327h294z" />
    <glyph glyph-name="afii10018" unicode="&#x411;" horiz-adv-x="656" 
d="M372 351h-197v-277h197q79 0 120.5 37t41.5 102q0 61 -42 99.5t-120 38.5zM175 626v-203h198q119 0 181.5 -57t62.5 -152t-63.5 -154t-180.5 -60h-280v700h464v-74h-382z" />
    <glyph glyph-name="afii10019" unicode="&#x412;" horiz-adv-x="669" 
d="M586 513q0 -50 -24 -89t-70 -57q60 -17 93 -61t33 -106q0 -93 -61 -145t-161 -52h-303v700h273q100 0 160 -47t60 -143zM361 629h-184v-233h172q154 0 154 114q1 60 -38 89.5t-104 29.5zM534 200q5 124 -185 124h-172v-247h202q70 0 112 31t43 92z" />
    <glyph glyph-name="afii10020" unicode="&#x413;" horiz-adv-x="516" 
d="M501 626h-325v-626h-83v700h408v-74z" />
    <glyph glyph-name="afii10021" unicode="&#x414;" horiz-adv-x="725" 
d="M272 627l-49 -445q-9 -86 -47 -111h353v556h-257zM24 72h22q50 1 68 27.5t26 86.5l59 514h411v-628h76v-186h-72v114h-517v-114h-73v186z" />
    <glyph glyph-name="afii10022" unicode="&#x415;" horiz-adv-x="569" 
d="M500 700v-73h-323v-229h312v-73h-312v-248h334v-77h-418v700h407z" />
    <glyph glyph-name="afii10024" unicode="&#x416;" horiz-adv-x="974" 
d="M956 0h-95l-221 323q-44 -19 -111 -19v-304h-84v304q-66 0 -110 19l-222 -323h-95v12l247 345q-54 47 -94 189q-17 56 -47.5 77.5t-86.5 14.5v61q86 14 136.5 -16.5t72.5 -113.5q11 -42 17.5 -63t26 -55.5t42.5 -47.5q41 -24 113 -24v321h84v-321q73 0 114 24
q7 4 14 10.5t12.5 12.5t11.5 16t9.5 16.5t8.5 19l7.5 18.5t7 20t5.5 18t5.5 19t4.5 16q21 83 71.5 113.5t136.5 16.5v-61q-56 7 -86.5 -14.5t-47.5 -77.5q-14 -48 -23 -74t-27.5 -60.5t-41.5 -54.5l245 -345v-12z" />
    <glyph glyph-name="afii10025" unicode="&#x417;" horiz-adv-x="588" 
d="M137 539h-75q-2 88 62.5 133t158.5 45q96 0 157.5 -53t61.5 -137q0 -50 -27.5 -89t-73.5 -58q66 -22 102 -69t36 -117q0 -100 -70.5 -155.5t-185.5 -55.5q-108 0 -176 58.5t-68 164.5h74q0 -71 49 -111t121 -40q75 0 124 37t49 107q0 65 -50.5 104t-122.5 39h-48v69h47
q58 0 100.5 31t42.5 84q0 58 -41.5 90t-100.5 32q-61 0 -103.5 -27t-42.5 -82z" />
    <glyph glyph-name="afii10026" unicode="&#x418;" horiz-adv-x="746" 
d="M577 529l-457 -530h-27v702h84v-328l-9 -201l456 530h29v-702h-83v337z" />
    <glyph glyph-name="afii10027" unicode="&#x419;" horiz-adv-x="746" 
d="M240 884l58 7q6 -36 31.5 -55.5t65.5 -21.5q37 0 64 20t34 57l55 -7q-7 -64 -48.5 -101t-104.5 -37q-60 0 -104 37t-51 101zM120 -1l457 530l-7 -192v-337h83v702h-29l-456 -530l9 201v328h-84v-702h27z" />
    <glyph glyph-name="afii10028" unicode="&#x41a;" horiz-adv-x="666" 
d="M176 700v-320q126 0 159 20q50 30 88 169q23 78 68 112.5t137 17.5v-56q-57 6 -85.5 -17t-45.5 -81q-41 -142 -94 -188l244 -345v-12h-95l-222 323q-44 -13 -154 -13v-310h-83v700h83z" />
    <glyph glyph-name="afii10029" unicode="&#x41b;" horiz-adv-x="723" 
d="M278 625l-48 -455q-11 -108 -57 -146.5t-155 -21.5l1 62q67 -11 93.5 16t34.5 95l58 525h425v-700h-83v625h-269z" />
    <glyph glyph-name="afii10030" unicode="&#x41c;" horiz-adv-x="827" 
d="M414 310l288 391h32v-701h-84v505l-230 -316h-13l-230 316v-505h-84v701h33z" />
    <glyph glyph-name="afii10031" unicode="&#x41d;" horiz-adv-x="723" 
d="M630 0h-84v328h-370v-328h-83v700h83v-295h370v295h84v-700z" />
    <glyph glyph-name="afii10032" unicode="&#x41e;" horiz-adv-x="810" 
d="M760 350q0 -159 -99 -260t-257 -101q-152 0 -253 99t-101 262q0 164 102 263t253 99t253 -99.5t102 -262.5zM134 350q0 -126 77 -205t193 -79q117 0 194.5 79t77.5 205t-77 206t-194 80q-116 0 -193.5 -79.5t-77.5 -206.5z" />
    <glyph glyph-name="afii10033" unicode="&#x41f;" horiz-adv-x="723" 
d="M93 700h537v-700h-84v623h-369v-623h-84v700z" />
    <glyph glyph-name="afii10034" unicode="&#x420;" horiz-adv-x="650" 
d="M176 1h-83v700h280q110 0 177.5 -68.5t67.5 -171.5q0 -102 -68 -170t-177 -68h-197v-222zM175 298h198q70 0 117 46.5t47 118.5q0 71 -46 117.5t-118 46.5h-198v-329z" />
    <glyph glyph-name="afii10035" unicode="&#x421;" horiz-adv-x="762" 
d="M50 350q0 161 101.5 260.5t252.5 97.5q107 0 194 -57t117 -162h-81q-32 70 -92 106t-138 36q-119 2 -194 -77.5t-75 -203.5q0 -120 74.5 -200.5t193.5 -80.5q82 0 145 40.5t90 114.5h81q-29 -113 -116.5 -172.5t-198.5 -59.5q-150 0 -252 98.5t-102 259.5z" />
    <glyph glyph-name="afii10036" unicode="&#x422;" horiz-adv-x="549" 
d="M234 625h-216v75h513v-75h-216v-625h-81v625z" />
    <glyph glyph-name="afii10037" unicode="&#x423;" horiz-adv-x="614" 
d="M224 139l44 87l-261 464v10h93l211 -389h3l190 389h90v-8l-287 -568q-21 -44 -41.5 -72t-49.5 -47t-67.5 -18t-87.5 21l12 68q99 -49 151 63z" />
    <glyph glyph-name="afii10038" unicode="&#x424;" horiz-adv-x="885" 
d="M741 351q0 56 -21.5 97t-60 62.5t-82 31.5t-96.5 11v-405q260 8 260 203zM144 351q0 -195 261 -203v405q-53 -1 -97 -11t-82.5 -31.5t-60 -62.5t-21.5 -97zM404 -1v79q-70 1 -129.5 16.5t-109 46.5t-77.5 84.5t-28 125.5t28 125.5t77.5 84.5t108.5 46.5t129 17.5v76h79
v-76q72 -2 131 -17t108 -45.5t76.5 -84.5t27.5 -127t-28 -127t-77.5 -84.5t-108.5 -45.5t-129 -16v-79h-78z" />
    <glyph glyph-name="afii10039" unicode="&#x425;" horiz-adv-x="632" 
d="M316 423h2l98 149l90 128h89v-11l-228 -320l254 -358v-11h-91l-116 164l-96 146h-3l-94 -144l-117 -166h-92v12l254 357l-228 319v12h90l91 -130z" />
    <glyph glyph-name="afii10040" unicode="&#x426;" horiz-adv-x="728" 
d="M621 0h-528v700h84v-623h353v623h84v-628h75v-184h-68v112z" />
    <glyph glyph-name="afii10041" unicode="&#x427;" horiz-adv-x="634" 
d="M541 0h-83v262q-205 -30 -310 47t-105 287v103h84v-103q0 -169 80.5 -225.5t250.5 -30.5v359h83v-699z" />
    <glyph glyph-name="afii10042" unicode="&#x428;" horiz-adv-x="1028" 
d="M93 0v700h83v-623h294v623h84v-623h297v623h84v-700h-842z" />
    <glyph glyph-name="afii10043" unicode="&#x429;" horiz-adv-x="1039" 
d="M93 0v700h85v-623h286v623h84v-623h293v623h83v-628h76v-183h-69v111h-838z" />
    <glyph glyph-name="afii10044" unicode="&#x42a;" horiz-adv-x="705" 
d="M429 386h-193v-312h193q71 0 117.5 44.5t46.5 114.5q-1 68 -47 110.5t-117 42.5zM22 629v71h214v-240h194q109 0 176 -64t67 -163q0 -100 -67.5 -166.5t-175.5 -66.5h-276v629h-132z" />
    <glyph glyph-name="afii10045" unicode="&#x42b;" horiz-adv-x="904" 
d="M174 700v-52v-188h193q115 0 182 -70t61 -173q-5 -95 -71.5 -156t-171.5 -61h-274v700h81zM367 386h-47h-146v-312h180q77 0 125 40t51 112q2 70 -43.5 115t-119.5 45zM811 700v-700h-83v700h83z" />
    <glyph glyph-name="afii10046" unicode="&#x42c;" horiz-adv-x="643" 
d="M174 700v-240h193q110 0 177 -64t67 -163q1 -100 -67 -166.5t-177 -66.5h-274v700h81zM367 386h-193v-312h193q71 0 117.5 45t45.5 114q0 69 -45.5 111t-117.5 42z" />
    <glyph glyph-name="afii10047" unicode="&#x42d;" horiz-adv-x="760" 
d="M359 633q-78 0 -139.5 -37.5t-91.5 -106.5h-82q31 105 118 162t195 59q150 1 250.5 -99t100.5 -261t-101.5 -260t-252.5 -99q-111 0 -199.5 59.5t-117.5 171.5h82q26 -74 90 -114.5t145 -40.5q111 0 184.5 69t81.5 178h-305v71h306q-6 110 -79.5 179.5t-184.5 68.5z" />
    <glyph glyph-name="afii10048" unicode="&#x42e;" horiz-adv-x="1060" 
d="M1010 350q0 -164 -102 -263t-253 -98q-143 0 -241.5 90t-108.5 238h-128v-317h-84v700h84v-306h129q14 144 112.5 231t238.5 86q151 -1 252 -99.5t101 -261.5zM386 350q0 -127 76.5 -204.5t193.5 -77.5t193.5 77.5t76.5 204.5q0 126 -77 203.5t-194 77.5t-193 -77.5
t-76 -203.5z" />
    <glyph glyph-name="afii10049" unicode="&#x42f;" horiz-adv-x="672" 
d="M30 13l199 253q-76 18 -122 74.5t-46 135.5q0 97 66 161t173 64h279v-700h-84v254h-183l-191 -254h-91v12zM300 327h196v300h-196q-68 0 -113 -41.5t-45 -108.5t44.5 -108.5t113.5 -41.5z" />
    <glyph glyph-name="afii10065" unicode="&#x430;" horiz-adv-x="544" 
d="M400 87q-25 -47 -77.5 -71t-112.5 -24q-71 0 -121 39.5t-52 109.5q-2 79 52.5 123t134.5 44q95 0 166 -40v59q0 38 -25.5 62.5t-57.5 32.5t-69 8q-90 0 -150 -35l-13 60q74 38 175 38q92 0 152.5 -40t58.5 -128v-201v-7v-16t0.5 -13.5t1.5 -11.5t3 -10t4.5 -8.5t7 -6
t10 -3.5t13 -1.5t16.5 1.5l1 -51q-63 -10 -90.5 8.5t-27.5 81.5zM389 163v46q-69 39 -152 39q-52 0 -88.5 -27.5t-34.5 -76.5q2 -43 33.5 -64t76.5 -21q54 0 104 27t61 77z" />
    <glyph glyph-name="afii10066" unicode="&#x431;" horiz-adv-x="601" 
d="M319 478q107 2 172.5 -68.5t63.5 -174.5q-1 -100 -66 -172t-181 -72q-110 0 -173 61.5t-74 157.5q-17 154 25.5 252t168.5 158q15 7 42 17.5t42 18t31.5 18.5t21.5 26t0 35h77q8 -19 4 -37.5t-9 -31.5t-20 -26t-27.5 -21.5t-32 -18.5t-34.5 -16l-33.5 -14l-29.5 -13
q-74 -36 -111.5 -77.5t-47.5 -115.5q23 49 75 81t116 33zM134 236q0 -79 49 -127.5t125 -48.5q79 0 125.5 51t45.5 126q-1 72 -46.5 122t-123.5 50t-126 -51.5t-49 -121.5z" />
    <glyph glyph-name="afii10067" unicode="&#x432;" horiz-adv-x="527" 
d="M455 357q0 -35 -18 -62.5t-54 -37.5q46 -11 73 -44t27 -79q0 -35 -13 -60.5t-32.5 -39.5t-49.5 -22.5t-55.5 -10.5t-58.5 -2h-198v484h176q31 0 55 -2t53.5 -9.5t48.5 -20t32.5 -37t13.5 -57.5zM152 64h115h27t26 1.5t27.5 4t22 8t20 13.5t11.5 20.5t5 28.5
q0 27 -13.5 44.5t-38 25t-46 10t-49.5 2.5h-107v-158zM152 282h104q26 0 42.5 1.5t37.5 8t31.5 21.5t10.5 38t-11 38.5t-31 22t-37.5 8.5t-42.5 2h-104v-140z" />
    <glyph glyph-name="afii10068" unicode="&#x433;" horiz-adv-x="426" 
d="M154 0h-78v482h328v-72h-250v-410z" />
    <glyph glyph-name="afii10069" unicode="&#x434;" horiz-adv-x="585" 
d="M94 -119h-68l-2 181h1h15q16 1 28.5 6t21.5 19l14.5 23t10.5 34.5l7 36t6 43.5q1 9 2 14l35 244h319v-420h66l-3 -181h-67v119h-386v-119zM410 62v354h-181l-25 -195q-8 -75 -22 -110t-42 -49h270z" />
    <glyph glyph-name="afii10070" unicode="&#x435;" horiz-adv-x="554" 
d="M292 493q122 -1 178 -70.5t36 -189.5h-383q-4 -81 52 -130t140 -49q78 0 163 35l12 -59q-87 -41 -177 -41q-122 0 -197 72t-71 193q4 111 74 175t173 64zM292 431q-67 0 -111.5 -36.5t-54.5 -101.5h314q4 66 -38 102t-110 36z" />
    <glyph glyph-name="afii10072" unicode="&#x436;" horiz-adv-x="749" 
d="M412 280q113 0 163.5 52t48.5 150h72q3 -83 -29.5 -145t-103.5 -89l161 -238v-10h-80l-147 224q-45 -10 -85 -10v-214h-75v214q-39 0 -84 10l-147 -224h-80v10l160 238q-138 52 -131 234h72q-2 -99 47.5 -150.5t162.5 -51.5v203h75v-203z" />
    <glyph glyph-name="afii10073" unicode="&#x437;" horiz-adv-x="484" 
d="M59 391l-4 62q71 40 170 38q78 0 132 -30.5t54 -98.5q0 -37 -21.5 -67t-55.5 -37q49 -11 77.5 -42t28.5 -79q0 -74 -59.5 -111t-143.5 -37q-120 0 -199 54l4 69q27 -24 81 -40t103 -16q57 1 95 21t38 64q0 26 -13 43t-36.5 24.5t-46 10t-51.5 2.5h-64v62q9 0 29 -0.5
t31 -0.5q27 0 43.5 2t37 8.5t30.5 22t10 38.5q0 74 -117 74q-90 0 -153 -36z" />
    <glyph glyph-name="afii10074" unicode="&#x438;" horiz-adv-x="576" 
d="M432 344l-333 -344h-23v482h76v-171l-6 -167l328 339h26v-483h-76v161z" />
    <glyph glyph-name="afii10075" unicode="&#x439;" horiz-adv-x="576" 
d="M156 681l54 6q11 -72 92 -74q37 0 62.5 19t32.5 55q10 -1 53 -6q-7 -59 -47 -94t-100 -35q-58 0 -99 35t-48 94zM99 0l333 344l-8 -183v-161h76v483h-26l-328 -339l6 167v171h-76v-482h23z" />
    <glyph glyph-name="afii10076" unicode="&#x43a;" horiz-adv-x="534" 
d="M155 278h64q190 0 190 205h74q3 -186 -137 -240l161 -234v-9h-84l-146 219q-23 -5 -59 -5h-63v-214h-79v483h79v-205z" />
    <glyph glyph-name="afii10077" unicode="&#x43b;" horiz-adv-x="583" 
d="M430 412h-199l-28 -253q-10 -104 -47.5 -139t-138.5 -20l2 59q61 -10 80.5 14t27.5 90l37 319h343v-482h-77v412z" />
    <glyph glyph-name="afii10078" unicode="&#x43c;" horiz-adv-x="640" 
d="M323 120h-8l-163 197v-315h-76v480h26l218 -264l219 264h25v-480h-75v315z" />
    <glyph glyph-name="afii10079" unicode="&#x43d;" horiz-adv-x="578" 
d="M426 482h76v-482h-76v215h-273v-215h-77v482h77v-199h273v199z" />
    <glyph glyph-name="afii10080" unicode="&#x43e;" 
d="M553 242q0 -80 -37.5 -138.5t-94 -85t-122.5 -26.5t-122.5 26.5t-94 85t-37.5 138.5q0 61 22 110t57.5 79t81 46.5t93.5 16.5t93.5 -16.5t81 -46.5t57.5 -79t22 -110zM124 242q0 -59 26 -102t65 -62.5t84.5 -19.5t84.5 19.5t65 62.5t26 102t-26 102t-65 62t-84.5 19
t-84.5 -19t-65 -62t-26 -102z" />
    <glyph glyph-name="afii10081" unicode="&#x43f;" horiz-adv-x="577" 
d="M76 482h425v-482h-78v412h-268v-412h-79v482z" />
    <glyph glyph-name="afii10082" unicode="&#x440;" horiz-adv-x="601" 
d="M161 402q57 93 176 93q102 0 160 -71.5t58 -179.5q0 -78 -36 -137.5t-91 -87t-124 -22.5t-132 47v-292h-78v569q0 66 -5 80q-11 29 -52 24l-1 58q61 10 94 -8.5t31 -72.5zM170 264v-149q65 -50 136.5 -52t120 47t48.5 134q0 78 -38 129t-115 51q-66 0 -108 -47.5
t-44 -112.5z" />
    <glyph glyph-name="afii10083" unicode="&#x441;" horiz-adv-x="566" 
d="M523 335h-75q-19 43 -58 66t-87 23q-72 0 -126 -48t-54 -133q0 -84 53 -133t123 -49q50 0 92 26t61 75h76q-21 -82 -85.5 -126t-144.5 -44q-102 0 -178 66.5t-76 184.5q0 119 76.5 185.5t179.5 65.5q77 -1 139 -42t84 -117z" />
    <glyph glyph-name="afii10084" unicode="&#x442;" horiz-adv-x="460" 
d="M268 1h-76v412h-170v69h416v-69h-170v-412z" />
    <glyph glyph-name="afii10085" unicode="&#x443;" horiz-adv-x="547" 
d="M518 473l-212 -507q-18 -43 -28.5 -65.5t-29.5 -57t-37.5 -50.5t-44 -30t-57.5 -11t-70 20l11 59q27 -12 49 -13t38.5 5.5t30.5 23t23.5 35.5t20.5 46l28 68l-221 477v8h84l175 -393h1l160 393h79v-8z" />
    <glyph glyph-name="afii10086" unicode="&#x444;" horiz-adv-x="855" 
d="M467 -245h-77v290q-64 -41 -127 -47t-110 20t-76 84.5t-29 139.5t29 140t76 85t110 21t127 -46v286h77v-286q64 41 126.5 46t109 -21t75.5 -85t29 -140t-29 -139.5t-75.5 -84.5t-109 -20t-126.5 47v-290zM729 242q0 84 -39 131.5t-100 46t-124 -50.5v-252
q47 -37 95 -45.5t84.5 8t60 59t23.5 103.5zM127 242q0 -82 39 -129t101 -46t125 50v252q-47 37 -95.5 45.5t-85.5 -8.5t-60.5 -60t-23.5 -104z" />
    <glyph glyph-name="afii10087" unicode="&#x445;" horiz-adv-x="492" 
d="M247 208h-2l-73 -106l-78 -102h-78v9l186 247l-159 218v8h81l63 -87l61 -94h2l66 98l63 83h78v-9l-165 -221l180 -243v-9h-76l-73 99z" />
    <glyph glyph-name="afii10088" unicode="&#x446;" horiz-adv-x="568" 
d="M463 0h-387v482h76v-412h242v412h75v-419h64l-4 -180h-66v117z" />
    <glyph glyph-name="afii10089" unicode="&#x447;" horiz-adv-x="535" 
d="M120 359q0 -70 40 -109.5t101 -36.5t121 46v223h77v-482h-79v180q-56 -31 -116.5 -35t-109.5 17t-80.5 72.5t-31.5 124.5v123h78v-123z" />
    <glyph glyph-name="afii10090" unicode="&#x448;" horiz-adv-x="798" 
d="M151 70h210v412h76v-412h210v412h75v-482h-646v482h75v-412z" />
    <glyph glyph-name="afii10091" unicode="&#x449;" horiz-adv-x="823" 
d="M153 70h210v412h75v-412h210v412h75v-419h65l-3 -181h-67v118h-642v482h77v-412z" />
    <glyph glyph-name="afii10092" unicode="&#x44a;" horiz-adv-x="568" 
d="M327 0h-188v416h-117v66h193v-158h112q57 0 102 -14t76.5 -51.5t31.5 -95.5q0 -85 -60.5 -124t-149.5 -39zM326 261h-111v-198h111q57 0 96 24t39 76q0 51 -39 74.5t-96 23.5z" />
    <glyph glyph-name="afii10093" unicode="&#x44b;" horiz-adv-x="720" 
d="M264 0h-188v482h76v-158h112q57 0 102 -14t76.5 -51.5t31.5 -95.5q0 -85 -60.5 -124t-149.5 -39zM263 263h-111v-202h111q57 0 96 25t39 77q0 51 -39.5 75.5t-95.5 24.5zM570 0v482h74v-482h-74z" />
    <glyph glyph-name="afii10094" unicode="&#x44c;" horiz-adv-x="505" 
d="M264 0h-188v482h76v-158h112q57 0 102 -14t76.5 -51.5t31.5 -95.5q0 -85 -60.5 -124t-149.5 -39zM263 262h-111v-198h111q58 0 96.5 23.5t38.5 75.5q0 51 -38.5 75t-96.5 24z" />
    <glyph glyph-name="afii10095" unicode="&#x44d;" horiz-adv-x="569" 
d="M446 273q-6 72 -58 111t-120 39q-50 -1 -90.5 -24.5t-58.5 -67.5l-75 2q20 77 83 118.5t141 41.5q103 0 179.5 -67t76.5 -185t-75.5 -184.5t-177.5 -66.5q-83 -1 -149 44.5t-85 129.5l76 2q17 -51 61.5 -79t97.5 -28q68 1 118 39.5t56 109.5h-228v65h228z" />
    <glyph glyph-name="afii10096" unicode="&#x44e;" horiz-adv-x="803" 
d="M758 241q0 -118 -75 -184t-178 -67q-97 -1 -170.5 58t-82.5 166h-100v-214h-76v482h76v-199h103q14 100 86 155t166 54q103 0 177 -66.5t74 -184.5zM328 241q0 -86 53 -134t125 -47q70 0 121.5 48t51.5 133q0 84 -51.5 132t-121.5 49q-72 1 -125 -47t-53 -134z" />
    <glyph glyph-name="afii10097" unicode="&#x44f;" horiz-adv-x="517" 
d="M33 8l138 173q-51 12 -84.5 51.5t-33.5 92.5q0 67 47 112t120 45h221v-482h-79v167h-113l-133 -167h-83v8zM240 232h122v186h-122q-47 0 -77.5 -25.5t-30.5 -68.5q0 -42 30.5 -67t77.5 -25z" />
    <glyph glyph-name="afii10071" unicode="&#x451;" horiz-adv-x="554" 
d="M389 608q-20 0 -33 12t-13 30q0 19 13 30.5t33 11.5q19 0 32 -12t13 -30t-13 -30t-32 -12zM183 608q-19 0 -32 12t-13 30t13 30t32 12q20 0 33.5 -11.5t13.5 -30.5q0 -18 -13.5 -30t-33.5 -12zM292 493q122 -1 178 -70.5t36 -189.5h-383q-4 -81 52 -130t140 -49
q78 0 163 35l12 -59q-87 -41 -177 -41q-122 0 -197 72t-71 193q4 111 74 175t173 64zM292 431q-67 0 -111.5 -36.5t-54.5 -101.5h314q4 66 -38 102t-110 36z" />
    <glyph glyph-name="afii10099" unicode="&#x452;" horiz-adv-x="581" 
d="M317 -11q73 -13 95.5 19.5t22.5 113.5v162q-1 68 -36.5 106.5t-98.5 38.5q-64 0 -104.5 -43.5t-40.5 -111.5v-274h-79v603h-80v59h80v69h79v-69h156v-59h-156v-185q52 79 165 79q97 0 145.5 -59.5t48.5 -153.5v-163q0 -115 -46 -163.5t-151 -30.5v62z" />
    <glyph glyph-name="afii10100" unicode="&#x453;" horiz-adv-x="441" 
d="M154 0h-78v482h342v-69h-264v-413zM266 575h-62v7l86 143l68 -25v-7z" />
    <glyph glyph-name="afii10101" unicode="&#x454;" horiz-adv-x="569" 
d="M122 271h229v-63h-229q6 -71 56.5 -109.5t118.5 -39.5q53 0 97.5 28t61.5 79l76 -2q-19 -84 -85 -129.5t-149 -44.5q-104 0 -178.5 65t-74.5 186q0 62 22 111.5t58.5 79.5t81.5 45.5t94 15.5q78 0 141 -41.5t83 -118.5l-75 -2q-18 44 -59 67.5t-90 24.5q-68 0 -120.5 -40
t-58.5 -112z" />
    <glyph glyph-name="afii10102" unicode="&#x455;" horiz-adv-x="509" 
d="M40 136h76q3 -43 43.5 -64t94.5 -21t94 22.5t42 64.5q0 38 -30 53.5t-105 26.5q-34 4 -58 8.5t-53 14t-47 22.5t-30.5 35t-13.5 51q-2 70 57.5 106.5t142.5 36.5q82 0 142 -36t58 -102h-75q0 37 -36.5 56.5t-88.5 19.5t-90 -20t-36 -59q1 -33 31 -47t104 -25
q34 -4 51.5 -7t46 -9.5t44 -16t32.5 -24t24 -35.5t6 -49q0 -70 -61 -109t-151 -41q-88 0 -148 35.5t-66 112.5z" />
    <glyph glyph-name="afii10103" unicode="&#x456;" horiz-adv-x="234" 
d="M68 641q0 31 24.5 44t49.5 0t25 -44q0 -24 -15.5 -37.5t-34 -13.5t-34 13.5t-15.5 37.5zM156 478v-478h-78v478h78z" />
    <glyph glyph-name="afii10104" unicode="&#x457;" horiz-adv-x="235" 
d="M203 618q-21 0 -35 12.5t-14 32.5q0 21 14 33.5t35 12.5t35 -12.5t14 -33.5q0 -20 -14 -32.5t-35 -12.5zM28 618q-21 0 -35 12.5t-14 32.5q0 21 14 33.5t35 12.5t35.5 -12.5t14.5 -33.5q0 -20 -14.5 -32.5t-35.5 -12.5zM157 481v-481h-79v481h79z" />
    <glyph glyph-name="afii10105" unicode="&#x458;" horiz-adv-x="234" 
d="M78 480h78l-1 -537q0 -117 -47.5 -165t-153.5 -28l2 61q75 -13 98.5 19.5t23.5 113.5v536zM67 641q0 31 24.5 44t49.5 0t25 -44q0 -24 -15.5 -37.5t-34 -13.5t-34 13.5t-15.5 37.5z" />
    <glyph glyph-name="afii10106" unicode="&#x459;" horiz-adv-x="772" 
d="M383 0v412h-151l-29 -253q-11 -104 -48 -138.5t-138 -20.5l1 59q62 -10 81 14t27 90l38 319h295v-158h82q89 0 144 -38t55 -123t-55.5 -124t-143.5 -39h-158zM540 263h-81v-202h81q55 0 89.5 25t34.5 77t-34.5 76t-89.5 24z" />
    <glyph glyph-name="afii10107" unicode="&#x45a;" horiz-adv-x="760" 
d="M529 0h-158v236h-219v-236h-76v482h76v-178h219v178h76v-175h82q199 0 199 -153q0 -154 -199 -154zM528 246h-81v-185h81q124 0 124 93q0 92 -124 92z" />
    <glyph glyph-name="afii10108" unicode="&#x45b;" horiz-adv-x="584" 
d="M435 0v284q-1 68 -36.5 106.5t-98.5 38.5q-64 0 -104.5 -46t-40.5 -115v-268h-79v606h-79v56h79v69h79v-69h156v-56h-156v-195q31 77 149 84q210 0 210 -211v-284h-79z" />
    <glyph glyph-name="afii10109" unicode="&#x45c;" horiz-adv-x="534" 
d="M155 278h64q190 0 190 205h74q3 -186 -137 -240l161 -233v-9h-81l-149 218q-23 -5 -59 -5h-63v-213h-79v482h79v-205zM303 575h-62v7l86 143l68 -25v-7z" />
    <glyph glyph-name="afii10110" unicode="&#x45e;" horiz-adv-x="547" 
d="M518 473l-212 -507l-21 -49.5t-21.5 -46t-25 -43.5t-27.5 -34.5t-33.5 -28t-38 -13.5t-46.5 -1.5t-54 17.5l11 64q27 -12 49 -13t38.5 5.5t30.5 23t23.5 35.5t20.5 46l28 68l-221 477v8h84l176 -394h1l159 394h79v-8zM129 684l48 6q6 -34 31.5 -53t63.5 -21q37 0 64 19
t34 55q4 0 47 -6q-6 -58 -45 -91.5t-99 -33.5q-58 0 -97.5 33t-46.5 92z" />
    <glyph glyph-name="afii10193" unicode="&#x45f;" horiz-adv-x="576" 
d="M252 0h-176v482h77v-412h268v412h79v-482h-176v-109h-72v109z" />
    <glyph glyph-name="afii10050" unicode="&#x490;" horiz-adv-x="516" 
d="M501 626h-324v-626h-84v700h341v107h67v-181z" />
    <glyph glyph-name="afii10098" unicode="&#x491;" horiz-adv-x="441" 
d="M154 0h-78v482h279v99h63v-168h-264v-413z" />
    <glyph glyph-name="Wgrave" unicode="&#x1e80;" horiz-adv-x="965" 
d="M462 687h41l183 -544h2l76 299l80 258h87v-11l-215 -693h-58l-175 514h-1l-173 -514h-58l-218 691v13h89l80 -259l80 -298h1zM515 772h-66l-81 103v7l72 29l75 -132v-7z" />
    <glyph glyph-name="wgrave" unicode="&#x1e81;" horiz-adv-x="758" 
d="M249 -4h-35l-188 477v9h84l71 -190l51 -156h2l129 334h31l131 -334h1l52 156l70 190h85v-9l-190 -477h-36l-127 324zM423 580h-63l-78 99v7l69 28l72 -127v-7z" />
    <glyph glyph-name="Wacute" unicode="&#x1e82;" horiz-adv-x="965" 
d="M462 687h41l183 -544h2l76 299l80 258h87v-11l-215 -693h-58l-175 514h-1l-173 -514h-58l-218 691v13h89l80 -259l80 -298h1zM517 777h-66v7l75 132l72 -29v-7z" />
    <glyph glyph-name="wacute" unicode="&#x1e83;" horiz-adv-x="758" 
d="M249 -4h-35l-188 477v9h84l71 -190l51 -156h2l129 334h31l131 -334h1l52 156l70 190h85v-9l-190 -477h-36l-127 324zM402 572h-64v7l72 128l70 -28v-7z" />
    <glyph glyph-name="Wdieresis" unicode="&#x1e84;" horiz-adv-x="965" 
d="M462 687h41l183 -544h2l76 299l80 258h87v-11l-215 -693h-58l-175 514h-1l-173 -514h-58l-218 691v13h89l80 -259l80 -298h1zM600 778q-21 0 -35 12.5t-14 32.5q0 21 14 33.5t35 12.5t35 -12.5t14 -33.5q0 -20 -14 -32.5t-35 -12.5zM365 778q-21 0 -35 12.5t-14 32.5
q0 21 14 33.5t35 12.5t35.5 -12.5t14.5 -33.5q0 -20 -14.5 -32.5t-35.5 -12.5z" />
    <glyph glyph-name="wdieresis" unicode="&#x1e85;" horiz-adv-x="758" 
d="M249 -4h-35l-188 477v9h84l71 -190l51 -156h2l129 334h31l131 -334h1l52 156l70 190h85v-9l-190 -477h-36l-127 324zM502 592q-21 0 -35 12.5t-14 32.5q0 21 14 33.5t35 12.5t35 -12.5t14 -33.5q0 -20 -14 -32.5t-35 -12.5zM267 592q-21 0 -35 12.5t-14 32.5
q0 21 14 33.5t35 12.5t35.5 -12.5t14.5 -33.5q0 -20 -14.5 -32.5t-35.5 -12.5z" />
    <glyph glyph-name="Ygrave" unicode="&#x1ef2;" horiz-adv-x="628" 
d="M313 366h3l101 170l102 164h89v-12l-252 -401v-287h-84v287l-253 402v11h91l102 -163zM360 747h-66l-81 103v7l72 29l75 -132v-7z" />
    <glyph glyph-name="ygrave" unicode="&#x1ef3;" horiz-adv-x="547" 
d="M518 473l-212 -507l-24 -55.5t-24.5 -50.5t-29.5 -47t-34 -33t-42.5 -22.5t-50.5 -1.5t-62 17l11 58q63 -29 98.5 -1.5t63.5 98.5l28 68l-221 477v8h83l96 -214l79 -191h1l73 189l88 216h79v-8zM303 581h-63l-78 99v7l69 28l72 -127v-7z" />
    <glyph glyph-name="endash" unicode="&#x2013;" horiz-adv-x="545" 
d="M68 299v69h409v-69h-409z" />
    <glyph glyph-name="emdash" unicode="&#x2014;" horiz-adv-x="633" 
d="M68 299v69h497v-69h-497z" />
    <glyph glyph-name="quoteleft" unicode="&#x2018;" horiz-adv-x="222" 
d="M62 590q2 16 5 24l28 88h50l-21 -72q36 -9 36 -44q0 -21 -14.5 -33.5t-35.5 -12.5q-17 0 -30 9t-17 24q-2 12 -1 17z" />
    <glyph glyph-name="quoteright" unicode="&#x2019;" horiz-adv-x="224" 
d="M163 653q-1 -11 -6 -24l-28 -88h-50l21 71q-35 12 -35 45q0 21 14 33.5t35 12.5q17 0 30 -9t17 -24q2 -5 2 -17z" />
    <glyph glyph-name="quotesinglbase" unicode="&#x201a;" horiz-adv-x="236" 
d="M167 30q-1 -13 -6 -25q-6 -15 -15 -45.5t-14 -45.5h-50l22 75q-35 12 -35 45q0 21 14 33.5t35 12.5q37 0 48 -34q2 -13 1 -16z" />
    <glyph glyph-name="quotedblleft" unicode="&#x201c;" horiz-adv-x="371" 
d="M62 589q2 4 3.5 12t2.5 12l28 87h50l-21 -71q35 -9 35 -45q0 -20 -14 -32.5t-35 -12.5q-39 0 -47 33q-2 14 -2 17zM211 589q1 11 6 24l28 87h49l-20 -71q35 -9 35 -45q0 -20 -14 -32.5t-35 -12.5q-37 0 -48 33q-2 12 -1 17z" />
    <glyph glyph-name="quotedblright" unicode="&#x201d;" horiz-adv-x="376" 
d="M163 653q-1 -11 -6 -24l-28 -88h-50l21 71q-35 12 -35 45q0 21 14 33.5t35 12.5q17 0 30 -9t17 -24q2 -5 2 -17zM315 653q-1 -11 -6 -24l-28 -88h-49l20 71q-35 12 -35 45q0 21 14 33.5t35 12.5q36 0 48 -33q2 -12 1 -17z" />
    <glyph glyph-name="quotedblbase" unicode="&#x201e;" horiz-adv-x="405" 
d="M167 30q-1 -4 -2.5 -12t-3.5 -12q-11 -31 -29 -89h-50l22 72q-35 12 -35 45q0 21 14 33.5t35 12.5q39 0 47 -34q2 -14 2 -16zM336 30q-2 -15 -5 -24q-11 -31 -29 -89h-50l22 72q-36 12 -36 45q0 21 14.5 33.5t35.5 12.5q36 0 47 -34q2 -13 1 -16z" />
    <glyph glyph-name="dagger" unicode="&#x2020;" horiz-adv-x="463" 
d="M36 386v68h160v248h72v-248h159v-68h-159v-466h-72v466h-160z" />
    <glyph glyph-name="daggerdbl" unicode="&#x2021;" horiz-adv-x="522" 
d="M58 150v66h166v202h-166v65h166v219h72v-219h168v-65h-168v-202h168v-66h-168v-230h-72v230h-166z" />
    <glyph glyph-name="bullet" unicode="&#x2022;" horiz-adv-x="386" 
d="M192 259q-43 0 -73.5 28.5t-30.5 69.5q0 44 30.5 71.5t73.5 27.5q44 0 75 -27.5t31 -71.5q0 -41 -31.5 -69.5t-74.5 -28.5z" />
    <glyph glyph-name="ellipsis" unicode="&#x2026;" horiz-adv-x="665" 
d="M119 -9q-21 0 -36 13.5t-15 33.5q0 22 14.5 35t36.5 13q23 0 37.5 -12.5t14.5 -35.5q0 -20 -15 -33.5t-37 -13.5zM330 -9q-21 0 -36 13.5t-15 33.5q0 22 14.5 35t36.5 13q23 0 37.5 -12.5t14.5 -35.5q0 -20 -15 -33.5t-37 -13.5zM546 -9q-22 0 -36.5 13.5t-14.5 33.5
q0 23 14.5 35.5t36.5 12.5t36.5 -13t14.5 -35q0 -20 -15 -33.5t-36 -13.5z" />
    <glyph glyph-name="perthousand" unicode="&#x2030;" horiz-adv-x="1231" 
d="M208 -1l342 699h78l-342 -699h-78zM799 152q0 -53 -24.5 -91.5t-61.5 -56t-80 -17.5t-80 17.5t-61.5 56t-24.5 91.5t24.5 92t61.5 56.5t80 17.5t80 -17.5t61.5 -56.5t24.5 -92zM532 152q0 -51 31.5 -80.5t69.5 -29.5t69.5 29.5t31.5 80.5t-31.5 80.5t-69.5 29.5
t-69.5 -29.5t-31.5 -80.5zM368 545q0 -53 -24.5 -92t-61.5 -56.5t-79.5 -17.5t-79.5 17.5t-61.5 56.5t-24.5 92t24.5 92t61.5 56.5t79.5 17.5t79.5 -17.5t61.5 -56.5t24.5 -92zM103 545q0 -51 31.5 -80.5t69 -29.5t69 29.5t31.5 80.5t-31.5 80.5t-69 29.5t-69 -29.5
t-31.5 -80.5zM1195 152q0 -45 -18.5 -81t-47.5 -54.5t-64.5 -27t-71 0t-64.5 27t-47.5 54.5t-18.5 81q0 46 18.5 81.5t47.5 54t64.5 27t71 0t64.5 -27t47.5 -54.5t18.5 -81zM928 152q0 -51 31.5 -80.5t69.5 -29.5t69.5 29.5t31.5 80.5t-31.5 80.5t-69.5 29.5t-69.5 -29.5
t-31.5 -80.5z" />
    <glyph glyph-name="guilsinglleft" unicode="&#x2039;" horiz-adv-x="305" 
d="M241 551l-104 -205l104 -202l-52 -20l-135 222l135 223z" />
    <glyph glyph-name="guilsinglright" unicode="&#x203a;" horiz-adv-x="305" 
d="M168 346l-104 205l52 18l135 -223l-135 -222l-52 20z" />
    <glyph glyph-name="fraction" unicode="&#x2044;" horiz-adv-x="473" 
d="M6 -60l382 789h82l-382 -789h-82z" />
    <glyph glyph-name="Euro" unicode="&#x20ac;" horiz-adv-x="657" 
d="M47 392v58h84q30 120 122 189t217 69q64 0 122 -21l-25 -67q-45 17 -95 17q-93 0 -160.5 -51t-93.5 -136h264l-22 -58h-257q-5 -35 0 -79h233l-21 -60h-200q25 -86 92.5 -137.5t163.5 -51.5q61 0 117 27l27 -69q-69 -31 -146 -31q-130 0 -221.5 70t-117.5 192h-83v60h74
q-5 38 0 79h-74z" />
    <glyph glyph-name="afii61352" unicode="&#x2116;" horiz-adv-x="1340" 
d="M628 -1l-457 530l7 -192v-337h-83v702h29l456 -530l-9 201v328h84v-702h-27zM1301 242q0 -60 -22 -109t-57.5 -79t-81 -46.5t-93.5 -16.5t-93.5 16.5t-81 46.5t-57.5 78.5t-22 109.5t22 110t57.5 79t81 46.5t93.5 16.5t93.5 -16.5t81 -46.5t57.5 -79t22 -110zM872 242
q0 -59 26 -102t65 -62.5t84.5 -19.5t84.5 19.5t65 62.5t26 102t-26 102t-65 62t-84.5 19t-84.5 -19t-65 -62t-26 -102z" />
    <glyph glyph-name="trademark" unicode="&#x2122;" horiz-adv-x="759" 
d="M168 652h-98v49h251v-49h-98v-230h-55v230zM401 701l122 -145l123 145h30v-279h-56v171l-95 -115h-4l-94 115v-171h-56v279h30z" />
    <glyph glyph-name="arrowleft" unicode="&#x2190;" horiz-adv-x="764" 
d="M356 89l-278 250v11l279 249l50 -49l-195 -167l470 3v-83l-469 3l194 -168z" />
    <glyph glyph-name="arrowup" unicode="&#x2191;" horiz-adv-x="723" 
d="M364 635l250 -278l-49 -51l-168 194l3 -469h-83l3 470l-167 -195l-49 50l249 279h11z" />
    <glyph glyph-name="arrowright" unicode="&#x2192;" horiz-adv-x="771" 
d="M680 339l-278 -250l-51 49l194 168l-469 -3v83l470 -3l-195 167l50 49l279 -249v-11z" />
    <glyph glyph-name="arrowdown" unicode="&#x2193;" horiz-adv-x="706" 
d="M347 53l-250 278l49 51l168 -194l-3 469h83l-3 -470l167 195l49 -50l-249 -279h-11z" />
    <glyph glyph-name="arrowboth" unicode="&#x2194;" horiz-adv-x="989" 
d="M912 339l-268 -241l-50 47l188 162h-579l188 -162l-50 -47l-268 241v11l269 240l49 -47l-189 -161h581l-189 161l49 47l269 -240v-11z" />
    <glyph glyph-name="arrowupdn" unicode="&#x2195;" horiz-adv-x="694" 
d="M346 -22l-240 257l47 48l161 -180v523l-161 -180l-47 48l240 257h11l239 -258l-47 -47l-161 181v-525l161 181l47 -47l-239 -258h-11z" />
    <glyph glyph-name="uni2196" unicode="&#x2196;" horiz-adv-x="735" 
d="M151 185l-20 373l7 8l374 -21v-70l-256 20l335 -331l-59 -59l-329 334l18 -255z" />
    <glyph glyph-name="uni2197" unicode="&#x2197;" horiz-adv-x="708" 
d="M567 558l-20 -373l-70 -1l18 255l-329 -334l-59 59l335 331l-256 -20v70l374 21z" />
    <glyph glyph-name="uni2198" unicode="&#x2198;" horiz-adv-x="735" 
d="M557 516l20 -373l-7 -8l-374 21v70l256 -20l-335 331l59 59l329 -334l-18 255z" />
    <glyph glyph-name="uni2199" unicode="&#x2199;" horiz-adv-x="735" 
d="M158 143l20 373l70 1l-18 -255l329 334l59 -59l-335 -331l256 20v-70l-374 -21z" />
    <glyph glyph-name="minus" unicode="&#x2212;" horiz-adv-x="533" 
d="M74 319v69h385v-69h-385z" />
    <glyph glyph-name="CR" horiz-adv-x="219" 
 />
    </font>
</defs>
</svg>
